<?xml version="1.0" encoding="utf-8"?>
<!-- Generator: Adobe Illustrator 20.1.0, SVG Export Plug-In . SVG Version: 6.00 Build 0)  -->
<svg version="1.1" id="Слой_1" xmlns="http://www.w3.org/2000/svg" xmlns:xlink="http://www.w3.org/1999/xlink" x="0px" y="0px"
	 viewBox="0 0 90 60" style="enable-background:new 0 0 90 60;" xml:space="preserve">
<style type="text/css">
	.st0{fill:#5C4A99;}
</style>
<g>
	<path class="st0" d="M41.4,43.1h-28l9.5-13.2L44.6,0C46.4,18.5,41.5,28.4,41.4,43.1 M43.2,59.9H1.1l1.6-2.2h39.9
		C42.9,58.3,43,59.1,43.2,59.9z M81.4,50.5l6.7,9.3H51.1c0-0.2-0.4-0.8-0.9-1.9c5.9,0.6,12-2.1,17.6-4.6
		C73.3,50.9,78.2,48.7,81.4,50.5z M77.5,45l1.6,2.2c-3.5,0-7.7,1.8-12.2,3.8c-5.8,2.6-12.1,5.4-17.8,4.2c-0.2-0.6-0.4-1.1-0.6-1.7
		c-0.1-0.4-0.2-0.7-0.3-1.1C53.5,52.5,59,50,64,47.8C69.3,45.4,74.2,43.3,77.5,45z M73.4,39.5l1.6,2.3c-3.5,0-7.6,1.8-12.1,3.8
		c-5,2.2-10.4,4.6-15.4,4.5c-0.2-1.1-0.4-2.1-0.6-3.3c4.4-0.7,8.9-2.6,13-4.4C65.3,40,70.1,37.9,73.4,39.5z M46.8,2.8l19.7,27.1
		l4.6,6.4c-3.5,0-7.6,1.8-12,3.8c-3.9,1.7-8.2,3.7-12.3,4.2c-0.7-10.5,2-21.6,1.1-33C47.5,8.5,47.1,5.6,46.8,2.8z"/>
</g>
</svg>
