<svg id="Слой_1" data-name="Слой 1" xmlns="http://www.w3.org/2000/svg" viewBox="0 0 100 50"><defs><style>.cls-1{fill:#fff;}</style></defs><title>Монтажная область 1</title><path class="cls-1" d="M38.9,20.9c-.7-3,6.8.8,1.7,1.5C39.9,22.5,39.1,21.7,38.9,20.9Z"/><path class="cls-1" d="M35.3,18.6c.3-3.7,6.3-1.3,1.6.5C36.7,19.2,35.3,19.2,35.3,18.6Z"/><path class="cls-1" d="M33.2,22.3c-.7-.9.8-1.8,2.3-1.5,4.1.8-.3,4.9-1.3,2.1C34.1,22.6,33.4,22.5,33.2,22.3Z"/><path class="cls-1" d="M33.3,29c-3.6.3-3.3-5.7.3-2.7C33.7,26.4,35.4,28.9,33.3,29Z"/><path class="cls-1" d="M43.9,17.5c-3.1-3.2.6-7.3,2.7-7.8,4.9-1.1,9.7-.2,9.7,5.6,0,3.8-7.7-.8-10.6,2.3A1.27,1.27,0,0,1,43.9,17.5Z"/><path class="cls-1" d="M26.4,18.9c-.5-.2-5.1-6.6-.6-8.5,1.6-.7-1.9-1,4-1.4,0,0,7-5.5,7.9,1.9.2,1.3,1.7.2.6,2.2-.3.5,1.8,2.5-2.8,1-2.6-.7-1,2.9-5.5,2.9C28.8,17,29.9,20.5,26.4,18.9Z"/><path class="cls-1" d="M14.7,33.2c-2.2-.2-1.7-4.8-3.4-5.4-.8-.2-2.5-3.9-2.5-5.7,0-3.7-2.4-9.7,4.4-6.8a56.82,56.82,0,0,1,7.7,4.1c1.3.7,3.4,5,5.4,7.1,1.4,1.5,1.6,4.2-1.3,5.2-1.4.5-2.1,0-3,1.4C20.6,33.3,16.5,34.7,14.7,33.2Z"/><polygon class="cls-1" points="6.8 8.8 7 8.9 7.1 9 7.3 9 7.4 9.1 7.6 9.2 7.7 9.2 7.9 9.3 8 9.4 8.2 9.5 8.3 9.6 8.4 9.6 8.6 9.7 8.7 9.8 8.9 9.9 9 10 9.1 10.1 9.3 10.2 9.4 10.3 9.5 10.5 9.6 10.6 9.8 10.7 9.9 10.8 10 10.9 10.1 11 10.2 11.2 10.3 11.3 10.5 11.4 10.6 11.5 10.7 11.7 10.8 11.8 10.9 12 11 12.1 11 12.1 11 12.1 11 12.1 11.1 12.1 11.1 12.1 11.1 12.1 11.2 12.1 11.2 12.1 11.3 12 11.3 12 11.3 12 11.4 12 11.4 12 11.5 12 11.5 12 11.5 12 11.6 12 11.6 12 11.7 12 11.7 11.9 11.8 11.9 11.8 11.9 11.8 11.9 11.9 11.9 11.9 11.9 12 11.9 12 11.9 12 11.9 12.1 11.9 12.1 11.8 12.1 11.9 12.2 11.8 12.2 11.8 12.2 11.8 12.5 11.8 12.7 11.8 12.9 11.8 13.2 11.8 13.4 11.9 13.6 11.9 13.9 11.9 14.1 12 14.3 12 14.6 12.1 14.8 12.2 15 12.3 15.2 12.3 15.4 12.4 15.7 12.5 15.9 12.6 16.1 12.8 16.3 12.9 16.5 13 16.7 13.1 16.9 13.3 17.1 13.4 17.3 13.5 17.5 13.7 17.7 13.8 17.8 14 18 14.2 18.2 14.3 18.4 14.5 18.5 14.7 18.7 14.8 18.8 15 18.8 15 18.9 15.1 19 15.2 19.1 15.3 19.1 15.4 19.2 15.5 19.3 15.7 19.4 15.8 19.5 15.8 19.5 15.9 19.6 16 19.7 16.1 19.8 16.2 19.9 16.3 20 16.4 20.1 16.5 20.1 16.6 20.2 16.7 20.4 16.8 20.4 16.8 20.5 16.9 20.6 17 20.7 17.1 20.8 17.2 20.9 17.2 21 17.3 21.1 17.4 21.2 17.5 21.3 17.6 21.5 17.6 21.5 17.7 21.7 17.8 21.8 17.8 21.8 17.8 22.1 18 22.3 18.2 22.6 18.3 22.9 18.5 23.2 18.6 23.5 18.8 23.7 19 24 19.1 24.3 19.3 24.5 19.5 24.8 19.7 25.1 19.8 25.3 20 25.6 20.2 25.8 20.4 26.1 20.6 26.3 20.9 26.5 21.1 26.8 21.3 27 21.5 27.2 21.8 27.4 22 27.6 22.3 27.8 22.5 28 22.8 28.1 23 28.3 23.3 28.4 23.6 28.6 23.9 28.7 24.2 28.8 24.5 29 24.8 29 24.8 29 24.9 29 25 29 25 29.1 25.1 29.1 25.2 29.1 25.2 29.1 25.3 29.2 25.4 29.2 25.5 29.2 25.5 29.2 25.6 29.3 25.7 29.3 25.7 29.3 25.8 29.3 25.9 29.3 26 29.4 26 29.4 26.1 29.4 26.2 29.4 26.2 29.4 26.3 29.5 26.4 29.5 26.5 29.5 26.5 29.5 26.6 29.5 26.7 29.5 26.7 29.5 26.8 29.6 26.8 29.6 26.9 29.6 27 29.6 27 29.6 27 29.6 27 29.6 27 29.6 27 29.6 27 29.6 27 29.6 27 29.6 27 29.6 26.9 29.6 26.9 29.7 26.9 29.6 26.9 29.7 26.9 29.7 26.8 29.7 26.8 29.7 26.8 29.7 26.8 29.7 26.7 29.7 26.7 29.7 26.7 29.7 26.7 29.7 26.7 29.7 26.6 29.8 26.6 29.8 26.6 29.8 26.6 29.8 26.5 29.8 26.5 29.8 26.5 29.8 26.5 29.8 26.4 29.8 26.4 29.8 26.4 29.8 26.4 29.8 26.3 29.9 26.3 29.9 26.2 29.9 26.2 29.9 26.1 30 26 30 26 30 25.9 30 25.9 30.1 25.8 30.1 25.8 30.1 25.7 30.2 25.7 30.2 25.6 30.2 25.5 30.2 25.5 30.3 25.4 30.3 25.4 30.3 25.3 30.4 25.3 30.4 25.2 30.5 25.2 30.5 25.1 30.5 25.1 30.5 25 30.6 25 30.6 24.9 30.7 24.9 30.7 24.8 30.8 24.8 30.8 24.7 30.8 24.7 30.8 24.7 30.9 24.7 30.9 24.7 30.9 24.8 30.9 24.8 30.9 24.8 30.9 24.8 30.9 24.9 30.9 24.9 30.9 24.9 30.9 24.9 30.8 25 30.8 25 30.8 25 30.8 25.1 30.8 25.1 30.8 25.1 30.8 25.2 30.8 25.2 30.8 25.2 30.8 25.2 30.8 25.3 30.8 25.3 30.7 25.4 30.7 25.4 30.7 25.4 30.7 25.5 30.7 25.5 30.7 25.5 30.7 25.5 30.7 25.6 30.7 25.6 30.8 25.6 30.8 25.6 30.7 25.7 30.7 25.8 30.7 25.9 30.6 25.9 30.6 26 30.6 26.1 30.5 26.2 30.5 26.2 30.5 26.3 30.5 26.4 30.5 26.5 30.5 26.6 30.4 26.7 30.4 26.8 30.4 26.8 30.4 26.9 30.4 27 30.4 27.1 30.4 27.2 30.4 27.3 30.4 27.3 30.4 27.4 30.4 27.5 30.4 27.6 30.4 27.7 30.4 27.8 30.4 27.8 30.4 27.9 30.5 28 30.5 28.1 30.5 28.2 30.6 28.2 30.6 28.2 30.6 28.3 30.7 28.4 30.8 28.5 30.8 28.5 30.9 28.6 31 28.7 31 28.8 31.1 28.8 31.2 28.9 31.3 29 31.4 29 31.4 29.1 31.5 29.1 31.6 29.2 31.7 29.2 31.8 29.3 31.9 29.3 32 29.4 32 29.4 32.1 29.4 32.2 29.5 32.3 29.5 32.4 29.5 32.5 29.5 32.6 29.5 32.7 29.5 32.8 29.6 32.9 29.6 33 29.5 33.1 29.6 33.2 29.5 33.3 29.5 33.3 29.5 33.4 29.5 33.5 29.5 33.5 29.5 33.6 29.5 33.6 29.5 33.7 29.4 33.7 29.4 33.8 29.3 33.8 29.3 33.9 29.3 33.9 29.2 34 29.2 34 29.2 34 29.1 34.1 29.1 34.1 29 34.2 29 34.2 29 34.2 28.9 34.3 28.9 34.3 28.9 34.4 28.9 34.4 28.9 34.4 28.9 34.5 28.9 34.5 28.9 34.5 28.9 34.5 29 34.6 29 34.6 29.1 34.6 29.2 34.7 29.3 34.7 29.3 34.7 29.3 34.7 29.4 34.7 29.4 34.6 29.5 34.6 29.5 34.6 29.6 34.6 29.6 34.6 29.7 34.6 29.7 34.6 29.7 34.5 29.8 34.5 29.8 34.5 29.9 34.5 29.9 34.5 30 34.4 30 34.4 30 34.4 30.1 34.4 30.1 34.3 30.1 34.3 30.2 34.2 30.2 34.2 30.2 34.2 30.3 34.1 30.3 34.1 30.3 34.1 30.3 34 30.4 34 30.4 33.9 30.4 33.9 30.5 33.9 30.5 33.9 30.5 33.8 30.5 33.6 30.5 33.5 30.6 33.4 30.6 33.3 30.6 33.2 30.6 33.1 30.7 33 30.6 32.9 30.6 32.8 30.6 32.7 30.6 32.6 30.6 32.5 30.6 32.4 30.6 32.2 30.5 32.1 30.5 32 30.5 31.9 30.4 31.8 30.4 31.7 30.4 31.6 30.3 31.5 30.3 31.4 30.2 31.4 30.2 31.3 30.1 31.2 30.1 31.1 30 31 29.9 30.9 29.9 30.8 29.8 30.8 29.7 30.7 29.7 30.7 29.7 30.6 29.6 30.6 29.6 30.6 29.5 30.5 29.5 30.5 29.5 30.4 29.4 30.4 29.4 30.4 29.3 30.3 29.3 30.3 29.2 30.3 29.2 30.2 29.1 30.2 29.1 30.1 29 30.1 29 30.1 28.9 30.1 28.9 30 28.8 30 28.8 30 28.7 29.9 28.7 29.9 28.6 29.9 28.6 29.8 28.5 29.8 28.5 29.8 28.4 29.8 28.3 29.7 28.3 29.7 28.2 29.6 28.2 29.6 28.1 29.6 28.1 29.6 28.1 29.6 28.2 29.6 28.3 29.6 28.5 29.5 28.6 29.5 28.7 29.5 28.8 29.5 29 29.5 29.1 29.5 29.2 29.4 29.3 29.4 29.4 29.4 29.5 29.4 29.7 29.3 29.8 29.3 29.9 29.3 30 29.2 30.1 29.2 30.2 29.1 30.3 29.1 30.4 29 30.5 29 30.7 29 30.8 28.9 30.8 28.8 31 28.8 31.1 28.7 31.2 28.6 31.3 28.5 31.4 28.5 31.5 28.4 31.6 28.3 31.7 28.3 31.7 28.3 31.7 28.3 31.8 28.2 31.8 28.2 31.8 28.2 31.9 28.1 31.9 28.1 31.9 28.1 32 28.1 32 28 32 28 32.1 28 32.1 28 32.1 28 32.2 27.9 32.2 27.9 32.2 27.9 32.3 27.8 32.3 27.8 32.3 27.8 32.4 27.7 32.4 27.7 32.4 27.7 32.4 27.7 32.5 27.6 32.5 27.6 32.5 27.5 32.5 27.5 32.5 27.5 32.5 27.4 32.5 27.4 32.5 27.4 32.5 27.4 32.5 27.5 32.3 27.6 32 27.7 31.8 27.8 31.5 27.9 31.3 27.9 31 28 30.7 28 30.5 28.1 30.2 28.1 29.9 28.1 29.6 28.1 29.3 28.1 29.1 28.1 28.8 28.1 28.5 28.1 28.2 28 27.9 28 27.7 27.9 27.4 27.9 27.1 27.8 26.8 27.7 26.5 27.7 26.3 27.6 26 27.5 25.7 27.4 25.4 27.3 25.1 27.2 24.9 27.1 24.6 27 24.3 26.9 24.1 26.8 23.8 26.8 23.8 26.6 23.5 26.4 23.2 26.2 22.9 26 22.6 25.8 22.3 25.6 22 25.3 21.8 25.1 21.5 24.8 21.3 24.6 21 24.3 20.8 24 20.6 23.8 20.4 23.5 20.1 23.2 19.9 22.9 19.7 22.6 19.5 22.3 19.3 22 19.1 21.8 18.9 21.5 18.7 21.2 18.5 20.9 18.3 20.6 18.1 20.3 17.9 20 17.7 19.8 17.5 19.5 17.2 19.2 17 18.9 16.8 18.7 16.6 18.4 16.3 18.4 16.3 18.3 16.1 18.1 16 17.9 15.8 17.8 15.6 17.6 15.5 17.4 15.3 17.2 15.1 17 15 16.8 14.8 16.6 14.7 16.4 14.5 16.2 14.3 16.1 14.2 15.9 14.1 15.6 13.9 15.4 13.8 15.2 13.7 15 13.6 14.8 13.5 14.6 13.4 14.3 13.4 14.1 13.3 13.9 13.2 13.6 13.2 13.4 13.2 13.2 13.2 12.9 13.2 12.7 13.2 12.4 13.2 12.2 13.2 11.9 13.3 11.7 13.4 11.7 13.4 11.7 13.4 11.7 13.4 11.7 13.4 11.7 13.4 11.7 13.4 11.6 13.4 11.6 13.4 11.6 13.4 11.6 13.4 11.6 13.4 11.6 13.4 11.6 13.4 11.6 13.4 11.6 13.4 11.6 13.4 11.6 13.4 11.6 13.4 11.6 13.4 11.6 13.4 11.6 13.4 11.6 13.4 11.6 13.4 11.6 13.4 11.6 13.4 11.6 13.4 11.6 13.4 11.6 13.4 11.6 13.4 11.6 13.4 11.6 13.4 11.6 13.4 11.6 13.4 11.6 13.4 11.6 13.5 11.6 13.6 11.6 13.7 11.6 13.7 11.7 13.8 11.7 13.9 11.7 14 11.7 14 11.7 14.1 11.8 14.2 11.8 14.2 11.8 14.3 11.8 14.4 11.8 14.5 11.8 14.5 11.8 14.6 11.9 14.7 11.9 14.8 11.9 14.8 11.9 14.9 11.9 15 11.9 15 11.9 15.1 11.9 15.2 11.9 15.2 11.9 15.3 11.8 15.4 11.8 15.4 11.8 15.5 11.8 15.6 11.8 15.7 11.7 15.7 11.7 15.7 11.7 15.7 11.7 15.7 11.7 15.7 11.7 15.7 11.7 15.7 11.7 15.7 11.6 15.7 11.6 15.7 11.6 15.7 11.6 15.7 11.6 15.7 11.6 15.7 11.6 15.8 11.6 15.8 11.5 15.8 11.5 15.8 11.5 15.8 11.5 15.8 11.5 15.8 11.5 15.8 11.5 15.8 11.5 15.8 11.5 15.8 11.4 15.8 11.4 15.8 11.4 15.8 11.4 15.8 11.4 15.8 11.4 15.7 11.4 15.8 11.4 15.8 11.4 15.7 11.4 15.7 11.3 15.7 11.3 15.6 11.3 15.6 11.2 15.5 11.2 15.4 11.2 15.4 11.2 15.3 11.1 15.2 11.1 15.2 11.1 15.1 11.1 15.1 11 15 11 14.9 11 14.9 11 14.8 10.9 14.7 10.9 14.7 10.9 14.6 10.9 14.5 10.8 14.5 10.8 14.4 10.8 14.3 10.8 14.3 10.7 14.2 10.7 14.2 10.7 14.1 10.6 14.1 10.6 14 10.6 14 10.5 13.9 10.5 13.8 10.4 13.8 10.4 13.8 10.3 13.9 10.2 13.9 10.1 14 10 14 9.9 14.1 9.8 14.1 9.8 14.2 9.7 14.2 9.6 14.3 9.5 14.3 9.4 14.4 9.3 14.5 9.2 14.5 9.1 14.6 9 14.7 9 14.7 8.9 14.8 8.8 14.8 8.7 14.9 8.6 15 8.5 15 8.4 15.1 8.3 15.1 8.3 15.2 8.2 15.3 8.1 15.3 8 15.4 7.9 15.5 7.9 15.5 7.8 15.6 7.7 15.7 7.6 15.7 7.6 15.7 7.6 15.6 7.6 15.5 7.7 15.4 7.7 15.2 7.7 15.1 7.8 15 7.8 14.9 7.8 14.8 7.9 14.7 8 14.6 8 14.5 8.1 14.3 8.2 14.3 8.2 14.2 8.3 14.1 8.4 14 8.5 13.9 8.5 13.8 8.6 13.7 8.7 13.6 8.8 13.5 8.9 13.4 9 13.3 9.1 13.2 9.2 13.2 9.3 13.1 9.4 13 9.5 12.9 9.6 12.8 9.7 12.8 9.8 12.7 9.9 12.6 9.9 12.6 9.8 12.5 9.7 12.3 9.6 12.2 9.5 12 9.4 11.9 9.2 11.8 9.1 11.6 9 11.5 8.9 11.3 8.8 11.2 8.7 11.1 8.6 11 8.4 10.8 8.3 10.7 8.2 10.6 8.1 10.5 8 10.3 7.8 10.2 7.7 10.1 7.6 10 7.4 9.9 7.3 9.8 7.2 9.7 7 9.6 6.9 9.5 6.8 9.4 6.6 9.3 6.5 9.2 6.3 9 6.2 9 6.1 8.9 5.9 8.8 5.9 8.8 5.9 8.7 5.9 8.7 5.8 8.7 5.8 8.6 5.8 8.6 5.8 8.6 5.8 8.6 5.8 8.6 5.8 8.5 5.8 8.5 5.8 8.5 5.8 8.5 5.9 8.6 5.9 8.6 5.9 8.6 5.9 8.6 5.9 8.6 6 8.6 6 8.6 6 8.6 6.1 8.7 6.1 8.7 6.1 8.7 6.1 8.7 6.2 8.7 6.2 8.8 6.2 8.8 6.3 8.8 6.3 8.8 6.3 8.8 6.3 8.8 6.3 8.8 6.3 8.8 6.3 8.8 6.4 8.8 6.4 8.8 6.4 8.8 6.4 8.8 6.4 8.8 6.5 8.8 6.5 8.8 6.5 8.8 6.5 8.8 6.5 8.8 6.5 8.8 6.5 8.8 6.5 8.8 6.6 8.8 6.6 8.8 6.6 8.8 6.6 8.8 6.6 8.8 6.7 8.8 6.7 8.8 6.7 8.8 6.7 8.8 6.7 8.8 6.7 8.8 6.8 8.8 6.8 8.8 6.8 8.8 6.8 8.8 6.8 8.9 6.8 8.8 6.8 8.8"/><polygon class="cls-1" points="29.3 1.5 29.3 1.7 29.3 1.9 29.3 2.1 29.4 2.2 29.4 2.4 29.4 2.6 29.4 2.7 29.4 2.9 29.5 3.1 29.5 3.3 29.5 3.4 29.5 3.6 29.5 3.8 29.5 3.9 29.6 4.1 29.6 4.3 29.6 4.5 29.7 4.6 29.7 4.8 29.7 5 29.8 5.2 29.8 5.3 29.8 5.5 29.8 5.7 29.9 5.8 29.9 6 29.9 6.2 30 6.4 30 6.5 30 6.7 30.1 6.9 30.1 7 30.1 7 30.1 7.1 30.1 7.1 30.1 7.2 30.1 7.2 30.1 7.2 30.2 7.3 30.2 7.3 30.2 7.4 30.2 7.4 30.2 7.4 30.2 7.5 30.3 7.5 30.3 7.5 30.3 7.6 30.3 7.6 30.3 7.7 30.3 7.7 30.4 7.7 30.4 7.8 30.4 7.8 30.4 7.8 30.4 7.9 30.5 7.9 30.5 8 30.5 8 30.5 8 30.5 8 30.6 8.1 30.6 8.1 30.6 8.1 30.6 8.2 30.7 8.2 30.7 8.2 30.7 8.2 30.8 8.1 30.8 8.1 30.8 8.1 30.9 8 30.9 8 30.9 8 31 7.9 31 7.9 31 7.8 31 7.8 31.1 7.8 31.1 7.7 31.1 7.7 31.1 7.6 31.2 7.6 31.2 7.5 31.2 7.5 31.3 7.5 31.3 7.5 31.3 7.4 31.3 7.4 31.4 7.4 31.4 7.4 31.5 7.4 31.5 7.4 31.5 7.4 31.6 7.4 31.6 7.4 31.6 7.5 31.7 7.5 31.8 7.5 31.8 7.5 31.8 7.6 31.8 7.7 31.8 7.8 31.8 7.8 31.7 7.9 31.7 7.9 31.7 8 31.7 8.1 31.7 8.1 31.7 8.2 31.6 8.3 31.6 8.3 31.6 8.4 31.6 8.5 31.5 8.5 31.5 8.5 31.5 8.6 31.4 8.7 31.4 8.7 31.3 8.8 31.3 8.8 31.2 8.9 31.2 8.9 31.1 9 31.1 9 31 9 31 9.1 30.9 9.1 30.9 9.1 30.8 9.2 30.8 9.2 30.7 9.2 30.7 9.2 30.6 9.3 30.5 9.4 30.3 9.4 30.2 9.5 30.1 9.5 30 9.6 29.8 9.6 29.7 9.6 29.6 9.7 29.5 9.7 29.3 9.7 29.2 9.7 29.1 9.7 28.9 9.7 28.8 9.7 28.7 9.7 28.5 9.7 28.4 9.7 28.3 9.7 28.2 9.7 28 9.7 27.9 9.6 27.8 9.6 27.7 9.6 27.5 9.5 27.4 9.5 27.3 9.5 27.2 9.5 27 9.4 26.9 9.4 26.8 9.3 26.7 9.3 26.7 9.3 26.8 9.2 26.9 9.2 27 9.1 27.1 9.1 27.2 9 27.3 9 27.5 9 27.6 9 27.7 9 27.8 8.9 27.9 8.9 28 8.9 28.1 8.9 28.2 8.9 28.3 8.9 28.5 8.9 28.6 8.9 28.7 8.9 28.8 8.9 28.9 8.9 29 8.9 29.1 8.9 29.2 8.9 29.3 8.8 29.5 8.8 29.5 8.8 29.7 8.8 29.8 8.8 29.9 8.7 30 8.7 30.1 8.6 30.2 8.5 30.2 8.5 30.2 8.5 30.2 8.5 30.2 8.5 30.1 8.4 30.1 8.4 30.1 8.4 30.1 8.3 30.1 8.3 30.1 8.3 30.1 8.2 30 8.2 30 8.2 30 8.2 30 8.2 30 8.1 30 8.1 30 8.1 29.9 8 29.9 8 29.9 8 29.9 8 29.9 7.9 29.8 7.9 29.8 7.9 29.8 7.9 29.8 7.8 29.8 7.8 29.7 7.8 29.7 7.8 29.7 7.7 29.7 7.7 29.6 7.7 29.6 7.7 29.5 7.7 29.4 7.8 29.3 7.8 29.1 7.8 29 7.8 28.9 7.8 28.8 7.8 28.6 7.8 28.5 7.8 28.4 7.8 28.3 7.8 28.1 7.8 28 7.8 27.9 7.8 27.8 7.7 27.6 7.7 27.5 7.7 27.4 7.7 27.3 7.7 27.1 7.7 27 7.8 26.9 7.8 26.8 7.8 26.6 7.8 26.5 7.8 26.4 7.9 26.3 7.9 26.2 8 26 8 25.9 8.1 25.8 8.2 25.7 8.3 25.7 8.3 25.6 8.3 25.5 8.4 25.4 8.5 25.4 8.5 25.3 8.6 25.2 8.7 25.1 8.7 25 8.8 25 8.9 24.9 8.9 24.8 9 24.8 9.1 24.7 9.1 24.6 9.2 24.5 9.3 24.5 9.3 24.4 9.4 24.3 9.5 24.3 9.6 24.2 9.6 24.1 9.7 24.1 9.8 24 9.8 23.9 9.9 23.9 10 23.8 10.1 23.8 10.2 23.7 10.3 23.6 10.3 23.6 10.4 23.5 10.5 23.5 10.6 23.5 10.6 23.4 10.6 23.4 10.6 23.4 10.6 23.4 10.6 23.3 10.7 23.3 10.7 23.3 10.7 23.2 10.7 23.2 10.7 23.2 10.7 23.2 10.7 23.1 10.7 23.1 10.8 23.1 10.8 23.1 10.8 23 10.8 23 10.8 23 10.8 23 10.8 23 10.8 22.9 10.9 22.9 10.9 22.9 10.9 22.9 10.9 22.8 10.9 22.8 10.9 22.8 10.9 22.8 11 22.7 11 22.7 11 22.7 11 22.7 11 22.7 11 22.7 10.9 22.7 10.7 22.7 10.6 22.7 10.4 22.7 10.3 22.8 10.1 22.8 10 22.8 9.9 22.9 9.7 23 9.6 23 9.5 23.1 9.3 23.2 9.2 23.3 9.1 23.4 8.9 23.5 8.8 23.6 8.7 23.7 8.6 23.8 8.5 23.9 8.4 24 8.2 24.1 8.1 24.2 8 24.4 7.9 24.5 7.8 24.6 7.8 24.8 7.7 24.9 7.6 25 7.5 25.2 7.4 25.3 7.4 25.4 7.3 25.4 7.3 25.5 7.2 25.7 7.2 25.8 7.1 25.9 7.1 26 7 26.2 7 26.3 7 26.4 7 26.5 6.9 26.7 6.9 26.8 6.9 26.9 6.9 27 6.9 27.1 6.9 27.3 6.9 27.4 6.9 27.5 6.9 27.7 6.9 27.8 6.9 27.9 6.9 28 6.9 28.1 6.9 28.3 7 28.4 7 28.5 7 28.6 7 28.8 7 28.9 7 29 7 29.1 7 29.2 7.1 29.4 7.1 29.4 7.1 29.4 7 29.4 7 29.4 7 29.3 6.9 29.4 6.9 29.3 6.9 29.3 6.8 29.3 6.8 29.3 6.8 29.3 6.7 29.3 6.7 29.3 6.7 29.3 6.6 29.2 6.6 29.2 6.6 29.2 6.5 29.2 6.5 29.2 6.5 29.2 6.4 29.2 6.4 29.2 6.4 29.1 6.3 29.1 6.3 29.1 6.3 29.1 6.2 29.1 6.2 29.1 6.2 29.1 6.1 29.1 6.1 29.1 6 29 6 29 5.9 29 5.9 29 5.8 29 5.6 28.9 5.5 28.9 5.3 28.9 5.2 28.9 5 28.8 4.9 28.8 4.7 28.8 4.6 28.8 4.4 28.7 4.3 28.7 4.1 28.7 4 28.7 3.8 28.7 3.7 28.7 3.5 28.6 3.3 28.6 3.2 28.6 3 28.6 2.9 28.6 2.7 28.6 2.6 28.6 2.5 28.6 2.3 28.6 2.1 28.6 2 28.7 1.9 28.7 1.7 28.7 1.6 28.7 1.4 28.7 1.3 28.8 1.1 28.8 1.1 28.8 1.1 28.8 1.1 28.8 1.1 28.8 1.1 28.8 1.1 28.8 1.1 28.8 1.1 28.9 1.1 28.9 1.1 28.9 1.1 28.9 1.1 28.9 1.1 28.9 1.1 28.9 1.1 28.9 1.1 28.9 1.1 28.9 1.1 28.9 1 28.9 1 28.9 1 28.9 1 28.9 1 28.9 1 28.9 1 28.9 1 28.9 1 28.9 1 28.9 1 28.9 1 28.9 1 28.9 0.9 28.9 0.9 28.9 0.9 28.9 1 28.9 1 29 1 29 1 29 1 29 1.1 29 1.1 29 1.1 29 1.1 29 1.1 29 1.2 29 1.2 29.1 1.2 29.1 1.2 29.1 1.2 29.1 1.3 29.1 1.3 29.1 1.3 29.1 1.3 29.1 1.3 29.1 1.4 29.2 1.4 29.2 1.4 29.2 1.4 29.2 1.4 29.2 1.5 29.2 1.5 29.2 1.5 29.3 1.5 29.3 1.5 29.3 1.5 29.3 1.5"/><polygon class="cls-1" points="38.7 5.8 39 6.1 39.2 6.3 39.4 6.6 39.6 6.8 39.8 7.1 39.9 7.3 40.1 7.6 40.2 7.9 40.3 8.2 40.4 8.5 40.4 8.8 40.5 9.1 40.5 9.4 40.6 9.7 40.6 10 40.6 10.3 40.6 10.6 40.6 10.9 40.6 11.3 40.6 11.6 40.5 11.9 40.5 12.2 40.5 12.5 40.4 12.8 40.4 13.2 40.4 13.5 40.3 13.8 40.3 14.1 40.3 14.4 40.2 14.7 40.2 15 40.2 15.2 40.2 15.2 40.2 15.2 40.2 15.3 40.1 15.3 40.1 15.3 40.1 15.3 40.1 15.3 40.1 15.4 40.1 15.4 40.1 15.4 40.1 15.4 40.1 15.4 40.1 15.5 40.1 15.5 40.1 15.5 40.1 15.5 40 15.5 40.1 15.5 40 15.6 40 15.6 40 15.6 40 15.6 40 15.6 40 15.7 40 15.7 40 15.7 40 15.7 40 15.7 40 15.7 39.9 15.7 39.9 15.8 39.9 15.8 39.9 15.8 39.9 15.8 39.9 15.8 39.8 15.8 39.8 15.8 39.8 15.8 39.8 15.8 39.7 15.8 39.7 15.8 39.7 15.7 39.7 15.7 39.6 15.7 39.6 15.7 39.6 15.7 39.6 15.6 39.6 15.6 39.6 15.6 39.6 15.6 39.5 15.6 39.5 15.5 39.5 15.5 39.5 15.5 39.5 15.5 39.5 15.4 39.5 15.4 39.5 15.4 39.5 15.3 39.5 15.3 39.5 15.3 39.5 15.3 39.5 15.2 39.5 15.2 39.5 15.2 39.5 15.1 39.5 15.1 39.5 15.1 39.5 15.1 39.5 15 39.5 15 39.5 15 39.5 14.9 39.4 14.9 39.5 14.9 39.4 14.8 39.4 14.8 39.4 14.7 39.4 14.7 39.4 14.7 39.4 14.6 39.4 14.6 39.4 14.6 39.4 14.5 39.4 14.5 39.4 14.4 39.4 14.4 39.4 14.4 39.4 14.3 39.4 14.3 39.4 14.3 39.4 14.2 39.4 14.2 39.4 14.2 39.4 14.1 39.4 14.1 39.4 14 39.4 14 39.4 14 39.4 14 39.3 13.8 39.3 13.6 39.3 13.3 39.3 13.2 39.3 13 39.3 12.7 39.3 12.5 39.3 12.3 39.3 12.1 39.3 11.9 39.3 11.7 39.3 11.5 39.3 11.3 39.3 11 39.3 10.8 39.3 10.6 39.3 10.4 39.3 10.2 39.2 10 39.2 9.8 39.2 9.6 39.1 9.4 39.1 9.2 39 9 39 8.8 38.9 8.5 38.8 8.3 38.8 8.2 38.7 7.9 38.5 7.8 38.4 7.5 38.3 7.3 38.3 7.3 38.2 7.2 38.1 7.1 37.9 6.9 37.8 6.8 37.7 6.7 37.5 6.6 37.4 6.5 37.3 6.3 37.1 6.2 37 6.2 36.8 6.1 36.6 6 36.5 5.9 36.3 5.8 36.1 5.8 36 5.7 35.8 5.7 35.6 5.7 35.4 5.6 35.2 5.6 35 5.6 34.9 5.6 34.7 5.5 34.5 5.5 34.3 5.6 34.1 5.6 33.9 5.6 33.8 5.6 33.6 5.7 33.4 5.7 33.2 5.8 33 5.8 33 5.8 32.9 5.8 32.8 5.8 32.8 5.9 32.7 5.9 32.6 5.9 32.5 6 32.4 6 32.4 6 32.3 6.1 32.2 6.1 32.1 6.2 32 6.2 32 6.2 31.9 6.3 31.8 6.3 31.8 6.4 31.7 6.4 31.6 6.5 31.5 6.5 31.4 6.5 31.4 6.6 31.3 6.6 31.2 6.6 31.1 6.6 31 6.6 31 6.7 30.9 6.7 30.8 6.7 30.7 6.7 30.6 6.6 30.5 6.6 30.5 6.5 30.5 6.5 30.6 6.4 30.8 6.3 30.9 6.2 31 6 31.2 5.9 31.4 5.8 31.5 5.6 31.7 5.5 31.9 5.4 32.1 5.3 32.3 5.2 32.5 5.1 32.6 5 32.9 4.9 33 4.9 33.2 4.8 33.5 4.7 33.6 4.6 33.9 4.6 34.1 4.5 34.3 4.5 34.5 4.5 34.7 4.5 34.9 4.4 35.1 4.4 35.3 4.4 35.5 4.4 35.7 4.4 35.9 4.5 36.1 4.5 36.3 4.5 36.5 4.6 36.5 4.6 36.6 4.6 36.7 4.7 36.7 4.7 36.8 4.7 36.9 4.7 37 4.8 37 4.8 37.1 4.8 37.2 4.9 37.2 4.9 37.3 5 37.4 5 37.5 5 37.5 5.1 37.6 5.1 37.7 5.1 37.8 5.2 37.8 5.2 37.9 5.2 38 5.3 38 5.3 38.1 5.4 38.2 5.4 38.2 5.5 38.3 5.5 38.3 5.5 38.4 5.6 38.5 5.7 38.5 5.7 38.6 5.8 38.6 5.8 38.7 5.8"/><polygon class="cls-1" points="8.1 18.1 8.1 18.3 8.1 18.5 8.1 18.6 8.2 18.8 8.2 19 8.2 19.2 8.2 19.3 8.3 19.5 8.3 19.7 8.3 19.8 8.3 20 8.3 20.2 8.3 20.4 8.4 20.6 8.4 20.7 8.4 20.9 8.4 21.1 8.4 21.3 8.4 21.4 8.4 21.6 8.4 21.8 8.4 22 8.4 22.1 8.4 22.3 8.4 22.5 8.4 22.7 8.4 22.8 8.4 23 8.4 23.2 8.4 23.4 8.4 23.5 8.4 23.7 8.4 23.7 8.3 23.8 8.3 24 8.3 24.1 8.3 24.2 8.3 24.3 8.3 24.5 8.3 24.6 8.3 24.7 8.3 24.8 8.3 25 8.3 25.1 8.3 25.2 8.3 25.4 8.3 25.5 8.3 25.6 8.3 25.8 8.3 25.9 8.3 26 8.3 26.1 8.4 26.3 8.4 26.4 8.4 26.5 8.4 26.7 8.4 26.8 8.4 26.9 8.4 27.1 8.4 27.2 8.5 27.3 8.5 27.5 8.5 27.6 8.5 27.7 8.5 27.8 8.5 27.8 8.6 28 8.6 28.2 8.7 28.5 8.7 28.6 8.8 28.8 8.8 29 8.9 29.2 9 29.4 9.1 29.6 9.1 29.8 9.2 29.9 9.3 30.1 9.4 30.3 9.5 30.4 9.6 30.6 9.7 30.8 9.8 30.9 9.9 31.1 10 31.2 10.1 31.4 10.3 31.5 10.4 31.7 10.5 31.8 10.6 32 10.8 32.1 10.9 32.2 11 32.4 11.2 32.5 11.3 32.6 11.4 32.8 11.6 32.9 11.7 33 11.7 33 11.7 33 11.7 33 11.8 33 11.8 33.1 11.8 33.1 11.8 33.1 11.8 33.1 11.9 33.1 11.9 33.1 11.9 33.1 11.9 33.2 11.9 33.2 12 33.2 12 33.2 12 33.2 12 33.2 12.1 33.3 12.1 33.3 12.1 33.3 12.1 33.3 12.1 33.3 12.2 33.3 12.2 33.3 12.2 33.4 12.2 33.4 12.3 33.4 12.3 33.4 12.3 33.4 12.3 33.5 12.4 33.5 12.4 33.5 12.4 33.5 12.4 33.5 12.3 33.5 12.1 33.5 12 33.6 11.9 33.6 11.8 33.6 11.7 33.6 11.5 33.6 11.4 33.6 11.3 33.6 11.2 33.6 11 33.6 10.9 33.6 10.8 33.5 10.7 33.5 10.6 33.5 10.4 33.5 10.3 33.4 10.2 33.4 10.1 33.3 10 33.3 9.8 33.2 9.7 33.2 9.6 33.1 9.5 33.1 9.4 33 9.3 33 9.2 32.9 9.1 32.9 9 32.8 8.9 32.8 8.8 32.7 8.7 32.6 8.7 32.6 8.4 32.3 8.1 32 7.8 31.7 7.6 31.3 7.4 31 7.2 30.6 7 30.2 6.8 29.9 6.7 29.5 6.6 29.1 6.5 28.7 6.4 28.3 6.3 27.9 6.3 27.5 6.2 27.1 6.2 26.7 6.2 26.2 6.2 25.8 6.2 25.4 6.2 25 6.3 24.5 6.3 24.1 6.3 23.7 6.4 23.3 6.4 22.9 6.5 22.5 6.6 22.1 6.7 21.7 6.7 21.2 6.8 20.9 6.8 20.5 6.9 20.1 6.9 20.1 6.9 20 7 19.9 7 19.8 7 19.7 7 19.6 7 19.5 7 19.4 7 19.3 7 19.2 7 19.1 7 19 7 18.9 7.1 18.8 7.1 18.7 7.1 18.6 7.1 18.5 7.1 18.4 7.1 18.3 7.1 18.2 7.1 18.1 7.1 18 7.1 17.9 7.1 17.8 7 17.7 7 17.6 7 17.5 7 17.4 7 17.3 6.9 17.2 6.9 17.1 6.9 17 6.9 16.9 6.9 16.9 6.9 16.9 7 16.9 7 16.9 7.1 16.9 7.2 16.9 7.2 16.9 7.2 17 7.3 17 7.3 17 7.4 17.1 7.4 17.1 7.5 17.1 7.5 17.2 7.5 17.2 7.6 17.2 7.6 17.3 7.7 17.3 7.7 17.4 7.7 17.4 7.8 17.5 7.8 17.5 7.8 17.6 7.8 17.6 7.9 17.7 7.9 17.8 7.9 17.8 7.9 17.8 8 17.9 8 18 8 18 8 18.1 8.1 18.1"/><polygon class="cls-1" points="13.2 15.7 13.2 15.7 13.1 15.8 13.1 15.8 13.1 15.9 13 15.9 12.9 16 12.9 16 12.8 16.1 12.8 16.1 12.7 16.1 12.7 16.2 12.6 16.2 12.6 16.3 12.5 16.3 12.4 16.4 12.4 16.4 12.3 16.4 12.3 16.4 12.2 16.5 12.1 16.5 12.1 16.5 12 16.5 11.9 16.6 11.9 16.6 11.8 16.6 11.7 16.6 11.6 16.6 11.6 16.6 11.5 16.6 11.4 16.6 11.3 16.6 11.3 16.6 11.3 16.6 11.2 16.6 11.2 16.6 11.2 16.6 11.1 16.6 11.1 16.6 11 16.6 11 16.5 10.9 16.5 10.9 16.5 10.9 16.5 10.8 16.5 10.8 16.5 10.8 16.5 10.7 16.5 10.7 16.4 10.7 16.4 10.6 16.4 10.6 16.4 10.6 16.3 10.6 16.3 10.5 16.3 10.5 16.3 10.4 16.3 10.4 16.2 10.4 16.2 10.3 16.2 10.3 16.2 10.3 16.2 10.2 16.2 10.2 16.2 10.2 16.1 10.2 16.1 10.2 16.1 10.2 16.1 10.3 16.1 10.3 16.1 10.4 16.1 10.5 16.1 10.5 16.1 10.6 16.1 10.7 16.1 10.7 16.1 10.8 16.1 10.8 16.1 10.9 16.1 11 16.1 11 16.1 11.1 16.1 11.2 16.1 11.2 16.1 11.3 16.1 11.3 16.1 11.4 16.1 11.5 16.1 11.5 16 11.6 16 11.7 16 11.7 16 11.8 16 11.8 15.9 11.9 15.9 12 15.9 12 15.8 12.1 15.8 12.1 15.8 12.1 15.8 12.2 15.8 12.2 15.7 12.3 15.7 12.3 15.7 12.4 15.6 12.4 15.6 12.4 15.6 12.5 15.6 12.5 15.5 12.6 15.5 12.6 15.5 12.6 15.5 12.7 15.4 12.7 15.4 12.8 15.4 12.8 15.4 12.9 15.3 12.9 15.3 12.9 15.3 13 15.2 13 15.2 13 15.2 13.1 15.2 13.1 15.1 13.1 15.1 13.2 15.1 13.2 15 13.2 15 13.3 15 13.3 15 13.3 14.9 13.4 14.9 13.4 14.9 13.4 14.9 13.4 15 13.4 15 13.4 15 13.4 15 13.4 15.1 13.5 15.1 13.5 15.1 13.5 15.2 13.5 15.2 13.5 15.2 13.5 15.2 13.5 15.2 13.5 15.3 13.4 15.3 13.4 15.3 13.4 15.3 13.4 15.4 13.4 15.4 13.4 15.4 13.4 15.4 13.4 15.5 13.4 15.5 13.4 15.5 13.3 15.5 13.3 15.5 13.3 15.6 13.3 15.6 13.3 15.6 13.3 15.6 13.2 15.6 13.2 15.7"/><polygon class="cls-1" points="22.1 12 22.2 12.2 22.2 12.3 22.3 12.4 22.4 12.5 22.5 12.6 22.5 12.8 22.6 12.9 22.6 13 22.7 13.1 22.7 13.2 22.8 13.4 22.8 13.5 22.8 13.7 22.9 13.8 22.9 13.9 23 14 23 14.2 23 14.3 23 14.4 23.1 14.6 23.1 14.7 23.1 14.9 23.1 15 23.2 15.1 23.2 15.2 23.2 15.4 23.3 15.5 23.3 15.6 23.4 15.8 23.4 15.9 23.5 16 23.6 16.1 23.6 16.1 23.6 16.2 23.7 16.3 23.7 16.4 23.7 16.4 23.8 16.5 23.8 16.6 23.9 16.7 23.9 16.7 24 16.8 24 16.9 24 17 24 17 24.1 17.1 24.1 17.2 24.2 17.3 24.2 17.4 24.2 17.5 24.3 17.5 24.3 17.6 24.4 17.7 24.4 17.8 24.5 17.8 24.5 17.9 24.5 18 24.6 18.1 24.6 18.1 24.7 18.2 24.7 18.3 24.8 18.3 24.8 18.4 24.9 18.5 24.9 18.5 24.9 18.5 24.9 18.6 24.9 18.6 24.9 18.6 24.9 18.6 24.9 18.6 24.9 18.7 24.9 18.7 24.9 18.7 24.9 18.7 24.9 18.7 24.9 18.7 24.9 18.7 24.9 18.8 24.8 18.8 24.8 18.8 24.8 18.8 24.8 18.8 24.8 18.8 24.8 18.8 24.8 18.8 24.7 18.8 24.7 18.8 24.7 18.8 24.7 18.8 24.7 18.8 24.6 18.8 24.6 18.9 24.6 18.9 24.6 18.9 24.6 18.9 24.5 18.9 24.5 18.9 24.5 18.9 24.4 18.8 24.3 18.8 24.2 18.7 24 18.6 23.9 18.5 23.8 18.5 23.7 18.4 23.6 18.3 23.5 18.2 23.4 18.1 23.3 18 23.2 17.9 23.1 17.8 23.1 17.7 23 17.6 22.9 17.5 22.8 17.3 22.8 17.2 22.7 17.1 22.6 17 22.6 16.9 22.5 16.7 22.5 16.6 22.4 16.5 22.3 16.4 22.3 16.2 22.2 16.1 22.2 16 22.1 15.8 22.1 15.7 22 15.6 22 15.5 22 15.5 21.9 15.3 21.9 15.2 21.9 15.1 21.9 15 21.8 14.9 21.8 14.8 21.8 14.7 21.8 14.6 21.8 14.5 21.8 14.3 21.8 14.2 21.7 14.1 21.8 14 21.7 13.9 21.7 13.8 21.7 13.7 21.8 13.6 21.8 13.5 21.8 13.4 21.8 13.3 21.8 13.2 21.8 13.1 21.8 13 21.8 12.8 21.9 12.7 21.9 12.6 21.9 12.5 21.9 12.5 22 12.3 22 12.2 22 12.2 22.1 12"/><polygon class="cls-1" points="58.7 6.5 58.7 6.6 58.8 6.7 58.9 6.8 58.9 6.8 59 7 59.1 7 59.1 7.1 59.2 7.2 59.2 7.3 59.3 7.4 59.4 7.5 59.4 7.7 59.5 7.8 59.5 7.9 59.6 8 59.6 8.1 59.7 8.2 59.7 8.3 59.7 8.4 59.8 8.5 59.8 8.6 59.8 8.7 59.8 8.9 59.8 9 59.8 9.1 59.8 9.2 59.8 9.3 59.8 9.4 59.7 9.5 59.7 9.6 59.7 9.7 59.6 9.8 59.6 9.8 59.6 9.8 59.6 9.8 59.6 9.8 59.6 9.8 59.6 9.8 59.6 9.8 59.5 9.8 59.5 9.8 59.5 9.8 59.5 9.8 59.5 9.8 59.5 9.8 59.5 9.8 59.5 9.8 59.5 9.8 59.5 9.8 59.5 9.8 59.5 9.8 59.5 9.8 59.5 9.8 59.5 9.8 59.5 9.8 59.5 9.8 59.5 9.8 59.5 9.8 59.5 9.8 59.5 9.8 59.5 9.8 59.5 9.8 59.5 9.8 59.5 9.8 59.5 9.7 59.5 9.7 59.5 9.5 59.5 9.3 59.4 9 59.3 8.8 59.3 8.6 59.2 8.4 59.1 8.2 59 8 58.9 7.9 58.8 7.7 58.6 7.5 58.5 7.4 58.3 7.2 58.2 7 58 6.9 57.9 6.8 57.7 6.6 57.5 6.5 57.3 6.4 57.2 6.3 57 6.2 56.8 6.1 56.6 6 56.4 5.9 56.2 5.8 56 5.7 55.8 5.6 55.6 5.5 55.4 5.5 55.2 5.4 55 5.3 54.8 5.3 54.8 5.3 54.6 5.2 54.4 5.2 54.2 5.1 53.9 5.1 53.7 5.1 53.5 5 53.2 5 53 5 52.8 5 52.5 4.9 52.3 4.9 52.1 4.9 51.8 4.9 51.6 4.8 51.4 4.8 51.1 4.8 50.9 4.8 50.7 4.8 50.4 4.8 50.2 4.8 50 4.8 49.7 4.8 49.5 4.8 49.3 4.8 49 4.8 48.8 4.8 48.5 4.8 48.3 4.9 48.1 4.9 47.8 5 47.6 5 47.4 5 47.4 5 47.3 5 47.2 5 47.2 5 47.1 5.1 47.1 5.1 47 5.1 46.9 5.1 46.9 5.1 46.8 5.1 46.7 5.1 46.7 5.1 46.6 5.2 46.5 5.2 46.5 5.2 46.4 5.2 46.4 5.2 46.3 5.2 46.2 5.2 46.2 5.3 46.1 5.3 46.1 5.3 46 5.3 45.9 5.3 45.9 5.3 45.8 5.3 45.7 5.3 45.7 5.3 45.6 5.3 45.6 5.3 45.5 5.3 45.4 5.2 45.4 5.2 45.4 5.2 45.6 5.2 45.8 5.1 45.9 5 46.1 4.9 46.3 4.9 46.5 4.8 46.7 4.7 46.9 4.6 47 4.5 47.2 4.5 47.5 4.4 47.7 4.3 47.8 4.2 48 4.2 48.2 4.1 48.4 4 48.6 4 48.8 3.9 49 3.9 49.2 3.8 49.4 3.7 49.6 3.7 49.8 3.6 50 3.6 50.2 3.6 50.4 3.5 50.6 3.5 50.8 3.5 51 3.5 51.2 3.5 51.4 3.5 51.6 3.5 51.6 3.5 51.8 3.5 52.1 3.5 52.4 3.5 52.6 3.5 52.9 3.5 53.1 3.5 53.4 3.6 53.6 3.6 53.9 3.7 54.1 3.8 54.3 3.8 54.6 3.9 54.8 4 55.1 4.1 55.3 4.2 55.5 4.3 55.8 4.4 56 4.5 56.2 4.6 56.4 4.8 56.6 4.9 56.8 5 57 5.1 57.2 5.3 57.4 5.4 57.6 5.6 57.8 5.7 58 5.9 58.2 6 58.3 6.2 58.5 6.3 58.7 6.5"/><polygon class="cls-1" points="26.5 17.2 26.5 17.2 26.6 17.3 26.6 17.3 26.6 17.4 26.7 17.5 26.7 17.5 26.7 17.6 26.8 17.7 26.8 17.7 26.8 17.8 26.9 17.9 26.9 17.9 26.9 18 26.9 18.1 27 18.1 27 18.2 27 18.2 27.1 18.3 27.1 18.4 27.1 18.4 27.2 18.5 27.2 18.6 27.2 18.6 27.3 18.7 27.3 18.8 27.3 18.8 27.4 18.9 27.4 18.9 27.4 19 27.5 19.1 27.5 19.1 27.6 19.2 27.6 19.2 27.5 19.2 27.5 19.2 27.5 19.2 27.5 19.2 27.5 19.2 27.5 19.3 27.5 19.3 27.5 19.3 27.5 19.3 27.4 19.3 27.4 19.3 27.4 19.3 27.4 19.3 27.4 19.3 27.4 19.3 27.4 19.3 27.4 19.3 27.3 19.3 27.3 19.3 27.3 19.3 27.3 19.2 27.3 19.2 27.3 19.2 27.2 19.2 27.2 19.2 27.2 19.2 27.2 19.2 27.2 19.2 27.2 19.2 27.2 19.2 27.2 19.2 27.1 19.2 27.1 19.2 27 19.1 26.8 19 26.6 18.9 26.5 18.8 26.3 18.6 26.2 18.5 26 18.3 25.9 18.1 25.7 18 25.6 17.8 25.5 17.6 25.4 17.4 25.3 17.2 25.2 17 25 16.8 25 16.7 24.9 16.4 24.8 16.2 24.7 16 24.7 15.8 24.6 15.6 24.6 15.4 24.5 15.2 24.5 14.9 24.5 14.7 24.5 14.5 24.4 14.3 24.4 14.1 24.4 13.9 24.4 13.7 24.5 13.5 24.5 13.2 24.5 13.2 24.5 13.2 24.5 13.2 24.5 13.2 24.5 13.2 24.5 13.2 24.5 13.2 24.5 13.2 24.6 13.2 24.6 13.3 24.6 13.3 24.6 13.3 24.6 13.3 24.6 13.3 24.6 13.3 24.6 13.3 24.6 13.3 24.7 13.4 24.7 13.4 24.7 13.4 24.7 13.4 24.7 13.4 24.7 13.4 24.7 13.4 24.7 13.5 24.7 13.5 24.8 13.5 24.8 13.5 24.8 13.5 24.8 13.5 24.8 13.5 24.8 13.5 24.8 13.5 24.8 13.5 24.9 13.6 25 13.8 25 13.8 25.1 14 25.1 14.1 25.2 14.2 25.2 14.3 25.3 14.4 25.3 14.5 25.4 14.6 25.4 14.8 25.5 14.9 25.5 15 25.6 15.1 25.6 15.2 25.7 15.3 25.7 15.5 25.8 15.6 25.8 15.7 25.9 15.8 25.9 15.9 26 16 26 16.2 26.1 16.3 26.1 16.4 26.2 16.5 26.2 16.6 26.3 16.7 26.3 16.8 26.4 17 26.4 17.1 26.5 17.2"/><polygon class="cls-1" points="5.5 22.3 5.6 22.5 5.6 22.7 5.6 22.8 5.6 23 5.7 23.2 5.7 23.3 5.7 23.5 5.7 23.7 5.6 23.8 5.6 24 5.6 24.1 5.6 24.3 5.6 24.4 5.5 24.6 5.5 24.7 5.5 24.9 5.5 25.1 5.4 25.2 5.4 25.4 5.3 25.5 5.3 25.7 5.3 25.8 5.2 26 5.2 26.2 5.2 26.3 5.2 26.5 5.2 26.6 5.2 26.8 5.2 26.9 5.1 27.1 5.2 27.2 5.2 27.4 5.2 27.4 5.1 27.5 5.1 27.5 5.1 27.6 5.1 27.7 5.1 27.7 5.1 27.8 5.1 27.8 5.1 27.9 5.1 28 5.1 28 5.1 28.1 5.1 28.2 5.1 28.2 5.1 28.3 5.1 28.3 5.1 28.4 5.1 28.5 5.1 28.5 5.1 28.6 5.1 28.7 5.1 28.7 5.1 28.8 5.2 28.8 5.2 28.9 5.2 29 5.2 29 5.2 29.1 5.2 29.2 5.2 29.2 5.2 29.3 5.3 29.3 5.3 29.4 5.3 29.4 5.3 29.4 5.3 29.4 5.3 29.4 5.3 29.4 5.3 29.4 5.2 29.4 5.2 29.4 5.2 29.4 5.2 29.4 5.2 29.4 5.2 29.4 5.2 29.4 5.2 29.4 5.2 29.4 5.2 29.4 5.2 29.4 5.2 29.4 5.2 29.4 5.2 29.4 5.2 29.4 5.2 29.4 5.2 29.4 5.2 29.4 5.2 29.4 5.2 29.4 5.2 29.4 5.2 29.4 5.2 29.4 5.2 29.4 5.2 29.4 5.2 29.4 5.2 29.4 5.2 29.4 5.1 29.3 4.9 29.2 4.8 29 4.7 28.9 4.6 28.8 4.5 28.6 4.4 28.4 4.3 28.3 4.3 28.1 4.2 27.9 4.2 27.8 4.1 27.6 4.1 27.4 4.1 27.2 4.1 27 4 26.8 4 26.7 4 26.5 4 26.3 4 26.1 4 25.9 4 25.7 4 25.5 4.1 25.3 4.1 25.1 4.1 24.9 4.1 24.8 4.1 24.6 4.2 24.4 4.2 24.2 4.2 24 4.2 23.9 4.2 23.9 4.3 23.8 4.3 23.7 4.3 23.5 4.3 23.4 4.3 23.3 4.4 23.2 4.4 23.1 4.4 23 4.4 22.9 4.4 22.8 4.4 22.7 4.4 22.5 4.4 22.4 4.5 22.3 4.5 22.2 4.5 22.1 4.5 22 4.5 21.9 4.5 21.8 4.5 21.7 4.5 21.5 4.5 21.5 4.5 21.3 4.5 21.2 4.5 21.1 4.5 21 4.5 20.9 4.5 20.8 4.5 20.7 4.5 20.5 4.5 20.5 4.5 20.3 4.5 20.3 4.6 20.4 4.6 20.4 4.7 20.4 4.8 20.5 4.8 20.5 4.9 20.6 4.9 20.6 5 20.7 5 20.8 5 20.8 5.1 20.9 5.1 20.9 5.1 21 5.2 21.1 5.2 21.1 5.2 21.2 5.2 21.3 5.3 21.3 5.3 21.4 5.3 21.5 5.3 21.6 5.3 21.6 5.3 21.7 5.4 21.8 5.4 21.8 5.4 21.9 5.4 22 5.5 22.1 5.5 22.2 5.5 22.2 5.5 22.3 5.5 22.3"/><polygon class="cls-1" points="56.8 9 56.9 9.2 57.1 9.5 57.2 9.7 57.4 9.9 57.5 10.2 57.7 10.4 57.8 10.7 57.9 11 58 11.2 58.1 11.5 58.2 11.7 58.2 12 58.3 12.3 58.3 12.5 58.4 12.8 58.4 13.1 58.5 13.4 58.5 13.7 58.5 13.9 58.5 14.2 58.5 14.5 58.5 14.8 58.5 15 58.4 15.3 58.4 15.6 58.3 15.8 58.2 16.1 58.2 16.4 58.1 16.6 58 16.9 57.9 17.1 57.8 17.3 57.8 17.3 57.8 17.5 57.8 17.5 57.7 17.6 57.7 17.7 57.7 17.8 57.6 17.8 57.6 17.9 57.5 18 57.5 18.1 57.5 18.1 57.4 18.2 57.4 18.3 57.3 18.3 57.3 18.4 57.2 18.5 57.2 18.5 57.1 18.6 57.1 18.7 57 18.7 57 18.8 56.9 18.8 56.8 18.9 56.8 19 56.7 19 56.7 19 56.6 19.1 56.5 19.2 56.4 19.2 56.4 19.2 56.3 19.3 56.2 19.3 56.2 19.3 56.2 19.3 56.2 19.4 56.2 19.5 56.3 19.5 56.3 19.6 56.4 19.6 56.4 19.7 56.4 19.7 56.5 19.8 56.5 19.8 56.5 19.9 56.6 20 56.6 20 56.7 20.1 56.7 20.2 56.7 20.2 56.8 20.3 56.8 20.3 56.8 20.4 56.8 20.4 56.9 20.5 56.9 20.6 56.9 20.6 57 20.7 57 20.8 57 20.8 57 20.9 57.1 21 57.1 21 57.1 21.1 57.1 21.2 57.1 21.2 57.2 21.3 57.2 21.3 57.2 21.2 57.3 21.2 57.4 21.2 57.5 21.1 57.6 21 57.7 21 57.7 20.9 57.8 20.9 57.9 20.8 58 20.8 58 20.7 58.1 20.6 58.2 20.5 58.3 20.5 58.4 20.4 58.5 20.3 58.5 20.3 58.6 20.2 58.7 20.2 58.8 20.1 58.8 20 58.9 20 59 19.9 59 19.8 59.1 19.7 59.2 19.7 59.3 19.6 59.3 19.5 59.4 19.5 59.5 19.4 59.5 19.3 59.6 19.2 59.6 19.2 59.6 19.2 59.7 19.1 59.7 19 59.7 18.9 59.7 18.9 59.7 18.8 59.8 18.7 59.8 18.6 59.8 18.5 59.8 18.5 59.8 18.4 59.8 18.3 59.8 18.2 59.8 18.1 59.7 18 59.7 18 59.7 17.9 59.7 17.8 59.7 17.7 59.6 17.6 59.6 17.6 59.6 17.5 59.5 17.4 59.5 17.3 59.5 17.3 59.4 17.2 59.4 17.1 59.3 17 59.3 17 59.3 16.9 59.2 16.8 59.2 16.8 59.2 16.8 59.2 16.8 59.2 16.7 59.1 16.7 59.1 16.7 59.1 16.7 59.1 16.6 59 16.6 59 16.6 59 16.5 59 16.5 59 16.5 58.9 16.5 58.9 16.5 58.9 16.4 58.9 16.4 58.8 16.4 58.8 16.4 58.8 16.3 58.8 16.3 58.8 16.3 58.7 16.2 58.7 16.2 58.7 16.2 58.7 16.2 58.7 16.1 58.7 16.1 58.6 16.1 58.6 16.1 58.6 16 58.6 16 58.6 16 58.6 15.9 58.6 15.9 58.6 16 58.7 16 58.7 16 58.7 16 58.7 16 58.7 16 58.8 16 58.8 16 58.8 16 58.8 16 58.9 16 58.9 16 58.9 16 59 16 59 16 59 16.1 59 16.1 59 16.1 59.1 16.1 59.1 16.1 59.1 16.1 59.1 16.1 59.2 16.1 59.2 16.1 59.2 16.1 59.2 16.1 59.3 16.1 59.3 16.1 59.3 16.1 59.3 16.1 59.4 16.1 59.4 16.1 59.4 16.1 59.5 16.2 59.5 16.2 59.6 16.3 59.6 16.3 59.7 16.4 59.7 16.4 59.8 16.5 59.8 16.5 59.8 16.6 59.9 16.6 60 16.7 60 16.8 60 16.8 60.1 16.9 60.1 16.9 60.1 17 60.2 17.1 60.2 17.1 60.2 17.2 60.3 17.3 60.3 17.3 60.3 17.4 60.4 17.5 60.4 17.5 60.4 17.6 60.4 17.7 60.5 17.8 60.5 17.8 60.5 17.9 60.5 18 60.6 18 60.6 18.1 60.6 18.1 60.6 18.1 60.6 18.1 60.6 18.1 60.7 18.1 60.7 18.1 60.7 18.1 60.7 18.1 60.7 18 60.7 18 60.8 18 60.8 18 60.8 18 60.8 18 60.8 18 60.8 18 60.8 17.9 60.9 17.9 60.9 17.9 60.9 17.9 60.9 17.9 60.9 17.8 60.9 17.8 61 17.8 60.9 17.8 61 17.8 61 17.8 61 17.7 61 17.7 61 17.7 61 17.7 61 17.7 61 17.6 61 17.6 61 17.7 61 17.7 61 17.6 61 17.6 61 17.6 61 17.6 61 17.6 61 17.6 61 17.6 61 17.6 61 17.6 61 17.6 61 17.6 61 17.6 61 17.6 61.1 17.5 61.1 17.5 61.1 17.5 61.1 17.5 61.1 17.5 61.1 17.5 61.1 17.5 61.1 17.5 61.1 17.5 61.1 17.5 61.1 17.5 61.1 17.5 61.1 17.5 61.2 17.5 61.2 17.5 61.2 17.5 61.2 17.5 61.2 17.5 61.2 17.4 61.2 17.4 61.2 17.4 61.2 17.4 61.2 17.3 61.2 17.3 61.2 17.3 61.3 17.3 61.3 17.2 61.3 17.2 61.3 17.2 61.3 17.2 61.3 17.1 61.3 17.1 61.3 17.1 61.3 17 61.4 17 61.4 17 61.4 17 61.4 16.9 61.4 16.9 61.4 16.9 61.4 16.9 61.4 16.8 61.4 16.8 61.4 16.8 61.4 16.8 61.4 16.7 61.4 16.7 61.4 16.7 61.4 16.6 61.4 16.6 61.4 16.6 61.4 16.6 61.4 16.6 61.5 16.6 61.5 16.6 61.5 16.6 61.5 16.5 61.5 16.5 61.5 16.5 61.5 16.5 61.5 16.5 61.5 16.5 61.5 16.5 61.5 16.5 61.5 16.4 61.4 16.4 61.4 16.4 61.4 16.4 61.4 16.4 61.4 16.4 61.4 16.3 61.4 16.3 61.4 16.3 61.4 16.3 61.4 16.3 61.4 16.2 61.4 16.2 61.4 16.2 61.4 16.2 61.4 16.2 61.4 16.2 61.4 16.2 61.4 16.1 61.4 16.1 61.4 16.1 61.4 16.1 61.4 16.1 61.3 16.1 61.3 16.1 61.3 16 61.3 16 61.3 16 61.3 16 61.3 16 61.3 16 61.2 16 61.2 15.9 61.2 15.9 61.2 15.9 61.2 15.9 61.2 15.9 61.2 15.9 61.1 15.9 61.1 15.8 61.1 15.8 61.1 15.8 61 15.8 61 15.8 61 15.8 61 15.8 61 15.8 61 15.8 60.9 15.7 60.9 15.7 60.9 15.7 60.9 15.7 60.9 15.7 61 15.7 61 15.7 61 15.7 61.1 15.7 61.1 15.8 61.2 15.8 61.2 15.8 61.2 15.8 61.3 15.8 61.3 15.8 61.3 15.8 61.4 15.8 61.4 15.9 61.4 15.9 61.5 15.9 61.5 15.9 61.5 16 61.6 16 61.6 16 61.6 16.1 61.7 16.1 61.7 16.1 61.7 16.2 61.8 16.2 61.8 16.2 61.8 16.3 61.8 16.3 61.8 16.4 61.9 16.4 61.9 16.4 61.9 16.5 62 16.5 62 16.5 62 16.5 62 16.6 62 16.6 62 16.7 62 16.7 62 16.7 62 16.7 62 16.8 62.1 16.8 62.1 16.8 62.1 16.9 62.1 16.9 62.1 16.9 62.1 17 62.1 17 62.1 17 62.1 17.1 62.1 17.1 62.1 17.1 62.1 17.1 62.1 17.2 62.1 17.2 62.1 17.2 62.1 17.3 62.1 17.3 62.1 17.3 62.1 17.4 62.1 17.4 62.1 17.4 62.1 17.4 62.1 17.5 62.1 17.5 62.1 17.5 62 17.7 61.9 17.8 61.8 18 61.7 18.2 61.6 18.3 61.5 18.5 61.4 18.7 61.3 18.8 61.2 19 61 19.1 60.9 19.3 60.8 19.4 60.7 19.5 60.6 19.7 60.4 19.8 60.3 20 60.2 20.1 60 20.3 59.9 20.4 59.8 20.6 59.6 20.7 59.5 20.8 59.4 21 59.2 21.1 59.1 21.2 58.9 21.3 58.8 21.5 58.6 21.6 58.5 21.7 58.3 21.8 58.2 21.9 58 22 58 22 57.9 22.1 57.9 22.2 57.8 22.3 57.7 22.4 57.7 22.4 57.6 22.5 57.5 22.6 57.4 22.6 57.4 22.7 57.3 22.7 57.2 22.8 57.1 22.8 57 22.9 57 23 56.9 23 56.8 23.1 56.7 23.1 56.6 23.2 56.5 23.2 56.4 23.3 56.3 23.3 56.2 23.4 56.2 23.4 56.1 23.5 56 23.5 55.9 23.6 55.8 23.6 55.7 23.7 55.7 23.7 55.5 23.8 55.5 23.8 55.4 23.9 55.4 23.9 55 24.1 54.5 24.4 54 24.6 53.6 24.8 53.2 25 52.7 25.3 52.3 25.5 51.8 25.7 51.3 26 50.9 26.2 50.4 26.4 50 26.6 49.5 26.9 49.1 27.1 48.6 27.3 48.2 27.5 47.7 27.7 47.2 28 46.8 28.2 46.3 28.4 45.8 28.6 45.4 28.8 44.9 29 44.4 29.2 43.9 29.4 43.5 29.6 43 29.8 42.5 30 42 30.1 41.5 30.3 41 30.5 40.5 30.6 40.5 30.6 40.1 30.8 39.7 30.9 39.3 31.1 38.9 31.2 38.5 31.4 38.1 31.5 37.7 31.7 37.2 31.8 36.8 31.9 36.4 32.1 36 32.2 35.6 32.3 35.2 32.4 34.8 32.6 34.4 32.7 33.9 32.8 33.5 32.9 33.1 33 32.7 33.2 32.3 33.3 31.9 33.4 31.5 33.5 31 33.6 30.6 33.7 30.2 33.8 29.8 33.9 29.4 34 29 34.1 28.5 34.2 28.1 34.3 27.7 34.4 27.3 34.5 27.3 34.5 26.8 34.6 26.2 34.7 25.8 34.8 25.2 34.9 24.7 35 24.2 35 23.7 35.1 23.2 35.2 22.7 35.2 22.2 35.3 21.6 35.4 21.1 35.4 20.6 35.5 20.1 35.5 19.6 35.6 19.1 35.6 18.6 35.7 18.1 35.7 17.6 35.7 17.1 35.8 16.6 35.8 16.1 35.8 15.6 35.8 15.1 35.8 14.6 35.8 14 35.8 13.6 35.8 13.1 35.8 12.5 35.7 12 35.7 11.5 35.6 11 35.6 11 35.6 10.8 35.5 10.6 35.5 10.3 35.5 10.1 35.4 9.9 35.3 9.7 35.3 9.4 35.2 9.2 35.2 9 35.1 8.8 35 8.6 34.9 8.4 34.8 8.2 34.7 8 34.6 7.8 34.5 7.6 34.4 7.4 34.2 7.2 34.1 7 34 6.9 33.8 6.7 33.6 6.5 33.5 6.4 33.3 6.2 33.1 6.1 32.9 6 32.7 5.8 32.5 5.7 32.3 5.6 32.1 5.5 31.9 5.4 31.6 5.3 31.4 5.3 31.4 5.3 31.4 5.4 31.4 5.4 31.4 5.4 31.4 5.4 31.4 5.5 31.4 5.5 31.5 5.5 31.5 5.5 31.5 5.5 31.5 5.5 31.5 5.6 31.5 5.6 31.5 5.6 31.5 5.6 31.5 5.7 31.5 5.7 31.6 5.7 31.6 5.7 31.6 5.7 31.6 5.8 31.6 5.8 31.7 5.8 31.7 5.8 31.7 5.9 31.7 5.9 31.7 5.9 31.7 5.9 31.7 5.9 31.8 6 31.8 6 31.8 6 31.8 6 31.8 6.1 31.8 6.1 31.9 6.2 32 6.2 32.1 6.3 32.2 6.3 32.2 6.4 32.3 6.5 32.4 6.6 32.5 6.6 32.5 6.7 32.6 6.8 32.7 6.9 32.7 6.9 32.8 7 32.9 7.1 32.9 7.2 33 7.2 33 7.3 33.1 7.4 33.2 7.5 33.2 7.6 33.3 7.7 33.3 7.8 33.4 7.8 33.4 7.9 33.5 8 33.5 8.1 33.6 8.2 33.6 8.3 33.7 8.4 33.7 8.5 33.7 8.5 33.7 8.7 33.8 8.9 33.9 9.1 34 9.3 34 9.5 34.1 9.7 34.2 9.9 34.2 10.1 34.2 10.3 34.3 10.5 34.3 10.8 34.3 11 34.4 11.2 34.4 11.4 34.4 11.6 34.4 11.8 34.5 12 34.5 12.2 34.5 12.4 34.5 12.7 34.5 12.9 34.5 13.1 34.5 13.3 34.5 13.5 34.5 13.7 34.5 13.9 34.5 14.1 34.5 14.4 34.5 14.6 34.5 14.8 34.5 15 34.5 15.2 34.5 15.2 34.5 16 34.4 16.7 34.4 17.4 34.3 18.2 34.3 18.9 34.2 19.7 34.1 20.4 34 21.2 34 22 33.8 22.7 33.7 23.5 33.6 24.2 33.5 25 33.4 25.7 33.2 26.5 33.1 27.2 32.9 28 32.8 28.7 32.6 29.5 32.4 30.2 32.2 31 32 31.8 31.8 32.5 31.6 33.3 31.4 34 31.2 34.8 31 35.5 30.7 36.3 30.5 37 30.2 37.7 30 38.5 29.7 39.2 29.4 39.2 29.4 39.2 29.4 39.2 29.4 39.2 29.4 39.2 29.4 39.2 29.4 39.2 29.4 39.2 29.4 39.2 29.4 39.2 29.4 39.3 29.4 39.3 29.4 39.3 29.4 39.3 29.4 39.3 29.4 39.3 29.4 39.3 29.4 39.3 29.4 39.3 29.4 39.3 29.4 39.3 29.4 39.3 29.3 39.3 29.3 39.3 29.3 39.3 29.3 39.3 29.3 39.3 29.3 39.3 29.3 39.3 29.3 39.3 29.3 39.3 29.3 39.3 29.3 39.3 29.3 39.3 29.3 39.2 29.2 39.1 29.2 39 29.2 38.9 29.1 38.8 29.1 38.7 29 38.6 29 38.5 28.9 38.3 28.8 38.2 28.8 38.2 28.7 38 28.7 37.9 28.6 37.8 28.5 37.7 28.5 37.7 28.4 37.6 28.3 37.5 28.2 37.4 28.1 37.3 28 37.2 28 37.2 27.9 37.1 27.8 37 27.7 37 27.6 36.9 27.5 36.9 27.3 36.8 27.2 36.8 27.1 36.8 27 36.7 26.8 36.7 26.7 36.7 26.7 36.7 26.6 36.7 26.6 36.7 26.5 36.7 26.4 36.7 26.3 36.7 26.3 36.7 26.2 36.7 26.1 36.7 26 36.7 26 36.8 25.9 36.8 25.8 36.8 25.8 36.8 25.7 36.8 25.6 36.8 25.5 36.9 25.5 36.9 25.4 36.9 25.3 37 25.3 37 25.2 37 25.2 37.1 25.1 37.1 25 37.2 25 37.2 24.9 37.3 24.9 37.3 24.8 37.4 24.8 37.4 24.7 37.5 24.7 37.5 24.6 37.5 24.6 37.5 24.7 37.6 24.7 37.6 24.8 37.6 24.8 37.6 24.9 37.6 24.9 37.6 25 37.6 25 37.6 25 37.6 25.1 37.6 25.2 37.6 25.2 37.5 25.2 37.5 25.3 37.5 25.3 37.5 25.4 37.5 25.4 37.5 25.5 37.5 25.5 37.5 25.5 37.5 25.6 37.5 25.7 37.4 25.7 37.4 25.8 37.4 25.8 37.4 25.8 37.4 25.9 37.4 25.9 37.4 26 37.4 26 37.4 26.1 37.4 26.1 37.4 26.1 37.4 26.2 37.4 26.3 37.4 26.4 37.5 26.5 37.5 26.6 37.5 26.7 37.6 26.7 37.6 26.8 37.6 26.9 37.7 27 37.7 27 37.8 27.1 37.8 27.2 37.9 27.2 37.9 27.3 38 27.4 38 27.4 38.1 27.5 38.2 27.6 38.2 27.6 38.3 27.7 38.3 27.7 38.4 27.8 38.5 27.8 38.5 27.9 38.6 27.9 38.7 28 38.8 28 38.8 28 38.9 28.1 39 28.1 39 28.1 39 28.1 39.1 28.2 39.1 28.2 39.2 28.2 39.2 28.2 39.3 28.2 39.3 28.2 39.3 28.2 39.4 28.2 39.4 28.3 39.5 28.3 39.5 28.3 39.6 28.3 39.6 28.3 39.7 28.3 39.7 28.3 39.8 28.3 39.8 28.3 39.8 28.3 39.9 28.3 39.9 28.3 40 28.3 40 28.3 40.1 28.2 40.1 28.2 40.1 28.2 40.2 28.2 40.2 28.2 40.3 28.2 40.3 28.2 40.3 28.1 40.4 28.1 40.4 28.1 40.4 28.1 40.4 28.1 40.5 28 40.5 28 40.5 28 40.5 28 40.5 28 40.5 28 40.5 27.9 40.5 27.9 40.5 27.9 40.6 27.9 40.6 27.9 40.6 27.9 40.6 27.8 40.6 27.8 40.6 27.8 40.7 27.8 40.7 27.8 40.7 27.8 40.7 27.8 40.7 27.8 40.8 27.8 40.8 27.8 40.8 27.8 40.8 27.8 40.8 27.8 40.9 27.8 40.9 27.8 40.9 27.8 40.9 27.8 41 27.8 41 27.8 41 27.8 41 27.9 41 27.9 41 27.9 41 27.9 41 27.9 41 28 41 28 41.1 28 41.1 28 41.1 28 41.1 28.1 41.1 28.1 41.1 28.1 41.1 28.1 41.1 28.1 41.1 28.2 41.1 28.2 41.1 28.2 41.1 28.2 41.1 28.2 41.2 28.3 41.2 28.3 41.2 28.3 41.2 28.3 41.2 28.3 41.2 28.4 41.2 28.4 41.2 28.4 41.1 28.4 41.2 28.5 41.1 28.5 41.1 28.5 41.1 28.5 41.1 28.5 41.1 28.5 41.1 28.5 41.1 28.5 41.1 28.5 41.1 28.5 41.1 28.5 41.1 28.5 41.1 28.5 41.1 28.6 41.1 28.6 41.1 28.6 41 28.6 41 28.6 41 28.6 41 28.6 41 28.6 41 28.6 41 28.6 41 28.6 41 28.6 41 28.7 41 28.7 41 28.7 41 28.7 41 28.7 41 28.7 41 28.7 41 28.7 41 28.7 41 28.7 41 28.7 41 28.7 41.2 28.7 41.5 28.6 41.8 28.5 42 28.4 42.2 28.3 42.5 28.2 42.8 28.2 43 28.1 43.3 28 43.5 27.9 43.8 27.8 44 27.8 44.2 27.7 44.5 27.6 44.7 27.5 45 27.4 45.2 27.3 45.5 27.2 45.7 27.1 45.9 27 46.2 26.9 46.4 26.8 46.6 26.7 46.9 26.6 47.1 26.5 47.3 26.4 47.6 26.3 47.8 26.2 48 26 48.3 25.9 48.5 25.8 48.7 25.7 48.7 25.7 48.7 25.7 48.7 25.7 48.7 25.7 48.7 25.7 48.7 25.7 48.7 25.7 48.7 25.7 48.7 25.7 48.7 25.7 48.7 25.7 48.7 25.7 48.7 25.7 48.7 25.7 48.7 25.7 48.7 25.7 48.8 25.7 48.8 25.7 48.8 25.7 48.8 25.7 48.8 25.7 48.8 25.7 48.8 25.7 48.8 25.7 48.8 25.7 48.8 25.7 48.8 25.7 48.8 25.7 48.8 25.7 48.8 25.7 48.8 25.7 48.8 25.7 48.8 25.6 48.8 25.6 48.8 25.6 48.9 25.6 48.9 25.6 49 25.6 49.1 25.5 49.1 25.5 49.2 25.5 49.2 25.5 49.3 25.5 49.4 25.4 49.4 25.4 49.5 25.4 49.5 25.4 49.6 25.3 49.7 25.3 49.7 25.3 49.8 25.2 49.9 25.2 49.9 25.2 50 25.2 50.1 25.1 50.1 25.1 50.2 25.1 50.2 25 50.3 25 50.4 25 50.5 25 50.5 24.9 50.6 24.9 50.6 24.8 50.7 24.8 50.8 24.8 50.8 24.8 50.7 24.8 50.7 24.7 50.7 24.7 50.6 24.7 50.6 24.7 50.5 24.7 50.5 24.7 50.4 24.6 50.4 24.6 50.3 24.6 50.3 24.6 50.3 24.6 50.2 24.6 50.2 24.6 50.1 24.6 50.1 24.6 50 24.6 50 24.6 50 24.6 49.9 24.6 49.8 24.6 49.8 24.6 49.7 24.6 49.7 24.6 49.7 24.6 49.6 24.6 49.5 24.6 49.5 24.7 49.5 24.6 49.4 24.7 49.3 24.7 49.3 24.7 49.3 24.7 49.2 24.7 49.1 24.7 49 24.8 49 24.8 48.9 24.8 48.8 24.9 48.7 24.9 48.6 24.9 48.5 25 48.4 25 48.3 25 48.2 25.1 48.2 25.1 48.1 25.2 48 25.2 47.9 25.3 47.8 25.3 47.7 25.4 47.7 25.5 47.6 25.5 47.5 25.6 47.4 25.7 47.3 25.7 47.3 25.8 47.2 25.9 47.2 26 47.1 26 47.1 26.1 47 26.2 47 26.3 46.9 26.4 46.9 26.5 46.9 26.5 46.9 26.5 46.9 26.5 46.9 26.5 46.8 26.5 46.8 26.5 46.8 26.5 46.8 26.5 46.8 26.5 46.8 26.5 46.8 26.5 46.8 26.5 46.8 26.5 46.8 26.5 46.8 26.4 46.8 26.5 46.7 26.4 46.7 26.4 46.7 26.4 46.7 26.4 46.7 26.4 46.7 26.4 46.7 26.4 46.7 26.3 46.7 26.3 46.7 26.3 46.7 26.3 46.7 26.3 46.7 26.3 46.7 26.3 46.7 26.3 46.7 26.3 46.7 26.2 46.7 26.2 46.7 26.2 46.8 26.2 46.8 26.1 46.8 26.1 46.8 26 46.8 26 46.8 26 46.8 25.9 46.8 25.8 46.9 25.8 46.9 25.8 46.9 25.7 46.9 25.7 46.9 25.6 46.9 25.5 46.9 25.5 46.9 25.5 47 25.4 47 25.4 47 25.3 47 25.3 47 25.2 47 25.2 47 25.1 47.1 25.1 47.1 25 47.1 25 47.1 24.9 47.2 24.9 47.2 24.9 47.2 24.8 47.3 24.8 47.3 24.8 47.3 24.7 47.4 24.7 47.4 24.6 47.5 24.5 47.5 24.5 47.6 24.5 47.7 24.4 47.8 24.3 47.8 24.3 47.9 24.2 48 24.2 48.1 24.2 48.1 24.1 48.2 24.1 48.3 24 48.4 24 48.5 24 48.5 23.9 48.6 23.9 48.7 23.9 48.8 23.9 48.9 23.8 49 23.8 49.1 23.8 49.2 23.8 49.2 23.8 49.3 23.8 49.4 23.8 49.5 23.8 49.6 23.8 49.7 23.8 49.8 23.8 49.8 23.8 49.8 23.8 49.9 23.8 49.9 23.8 50 23.8 50 23.9 50.1 23.9 50.2 23.9 50.2 23.9 50.3 23.9 50.3 23.9 50.4 23.9 50.4 24 50.5 24 50.5 24 50.6 24 50.6 24 50.7 24 50.7 24.1 50.8 24.1 50.8 24.1 50.8 24.1 50.9 24.2 50.9 24.2 51 24.2 51 24.2 51.1 24.2 51.1 24.3 51.2 24.3 51.2 24.3 51.2 24.4 51.3 24.4 51.3 24.4 51.3 24.4 51.3 24.4 51.3 24.4 51.3 24.4 51.3 24.4 51.3 24.4 51.3 24.4 51.3 24.4 51.3 24.4 51.3 24.4 51.4 24.4 51.4 24.4 51.4 24.4 51.4 24.4 51.4 24.4 51.4 24.4 51.4 24.5 51.4 24.5 51.4 24.5 51.4 24.5 51.4 24.5 51.4 24.5 51.4 24.5 51.4 24.5 51.4 24.5 51.4 24.5 51.4 24.5 51.4 24.5 51.4 24.5 51.4 24.5 51.4 24.5 51.4 24.5 51.4 24.5 51.4 24.5 51.6 24.4 51.7 24.3 51.9 24.2 52 24.2 52.2 24.1 52.3 24 52.5 23.9 52.7 23.9 52.8 23.8 53 23.7 53.1 23.6 53.3 23.6 53.4 23.5 53.6 23.4 53.7 23.3 53.9 23.3 54 23.2 54.2 23.1 54.3 23 54.5 23 54.7 22.9 54.8 22.8 55 22.8 55.1 22.7 55.3 22.6 55.4 22.5 55.5 22.4 55.7 22.3 55.8 22.3 56 22.2 56.1 22.1 56.3 22 56.3 22 56.2 21.8 56.2 21.7 56.1 21.5 56.1 21.3 56 21.2 56 21 55.9 20.9 55.8 20.8 55.7 20.7 55.6 20.5 55.5 20.4 55.4 20.3 55.3 20.2 55.2 20.1 55.1 20 55 19.9 54.9 19.8 54.8 19.7 54.6 19.6 54.5 19.5 54.4 19.5 54.2 19.4 54.1 19.3 54 19.3 53.8 19.2 53.7 19.2 53.5 19.1 53.4 19 53.2 19 53.1 19 52.9 18.9 52.8 18.9 52.8 18.9 52.6 18.9 52.5 18.8 52.3 18.8 52.2 18.8 52 18.8 51.8 18.8 51.7 18.8 51.5 18.8 51.3 18.8 51.2 18.8 51 18.7 50.9 18.7 50.7 18.7 50.5 18.7 50.3 18.7 50.2 18.7 50 18.7 49.9 18.7 49.7 18.7 49.5 18.8 49.4 18.8 49.2 18.8 49 18.8 48.9 18.8 48.7 18.8 48.5 18.9 48.4 18.9 48.2 19 48 19 47.9 19 47.7 19.1 47.5 19.1 47.5 19.1 47.5 19.1 47.5 19.1 47.5 19.1 47.5 19.1 47.5 19.1 47.5 19.1 47.5 19.1 47.5 19.1 47.4 19.1 47.4 19.1 47.4 19.1 47.4 19.1 47.4 19.1 47.4 19.1 47.4 19.1 47.4 19.1 47.3 19.1 47.3 19.1 47.3 19.1 47.3 19.1 47.3 19.1 47.3 19.1 47.3 19.1 47.3 19.1 47.3 19.1 47.3 19.1 47.2 19.1 47.2 19.1 47.2 19.1 47.2 19.1 47.2 19.1 47.2 19 47.2 19 47.2 19 47.2 19 47.2 19 47.2 19 47.2 19 47.2 19 47.2 19 47.2 19 47.2 19 47.2 19 47.2 19 47.2 19 47.2 19 47.2 19 47.2 19 47.2 19 47.2 18.9 47.2 18.9 47.3 18.9 47.3 18.9 47.3 18.9 47.3 18.9 47.3 18.9 47.3 18.9 47.3 18.9 47.3 18.9 47.3 18.9 47.3 18.9 47.3 18.9 47.3 18.9 47.3 18.9 47.3 18.8 47.3 18.8 47.6 18.7 47.8 18.6 48.1 18.5 48.3 18.4 48.6 18.3 48.8 18.2 49.1 18.1 49.3 18 49.6 17.9 49.9 17.8 50.1 17.8 50.4 17.7 50.7 17.7 50.9 17.7 51.2 17.6 51.5 17.6 51.7 17.6 52 17.6 52.3 17.6 52.5 17.6 52.8 17.7 53 17.7 53.3 17.8 53.5 17.8 53.8 17.9 54 18 54.3 18.1 54.5 18.2 54.7 18.3 55 18.4 55.2 18.6 55.4 18.7 55.4 18.7 55.6 18.6 55.7 18.5 55.8 18.4 55.9 18.3 56 18.2 56.1 18 56.2 17.9 56.3 17.8 56.4 17.6 56.5 17.5 56.5 17.3 56.6 17.2 56.7 17 56.7 16.9 56.8 16.8 56.8 16.6 56.8 16.4 56.9 16.3 56.9 16.1 57 16 57 15.8 57 15.7 57 15.5 57 15.3 57.1 15.2 57.1 15 57.1 14.8 57.1 14.7 57.1 14.5 57.1 14.3 57.1 14.2 57.1 14 57.1 14 57.1 13.8 57.1 13.6 57.1 13.3 57.1 13.1 57 12.9 57 12.6 57 12.4 56.9 12.2 56.8 12 56.8 11.7 56.7 11.5 56.6 11.3 56.5 11.1 56.4 10.9 56.3 10.7 56.2 10.5 56 10.2 55.9 10.1 55.8 9.9 55.6 9.7 55.5 9.5 55.3 9.3 55.2 9.2 55 9 54.8 8.9 54.6 8.7 54.4 8.6 54.3 8.5 54.1 8.3 53.9 8.2 53.7 8.1 53.5 8 53.5 8 53.2 7.9 52.9 7.8 52.6 7.7 52.3 7.6 52 7.6 51.7 7.5 51.3 7.5 51 7.5 50.7 7.4 50.4 7.4 50.1 7.5 49.8 7.5 49.4 7.5 49.1 7.6 48.8 7.6 48.4 7.7 48.1 7.8 47.8 7.9 47.5 8 47.2 8.1 46.9 8.2 46.5 8.4 46.2 8.5 46 8.7 45.7 8.8 45.4 9 45.1 9.1 44.8 9.3 44.6 9.5 44.3 9.7 44 9.9 43.8 10.1 43.8 10.1 43.7 10.2 43.6 10.3 43.5 10.4 43.4 10.5 43.3 10.6 43.2 10.7 43.2 10.8 43.1 11 43 11.1 42.9 11.2 42.8 11.3 42.8 11.4 42.7 11.5 42.6 11.7 42.6 11.8 42.5 11.9 42.4 12 42.4 12.2 42.3 12.3 42.2 12.4 42.2 12.5 42.1 12.7 42 12.8 42 12.9 41.9 13 41.8 13.2 41.8 13.3 41.7 13.4 41.6 13.5 41.6 13.6 41.5 13.8 41.4 13.9 41.4 13.9 41.4 13.9 41.4 13.9 41.4 13.9 41.4 14 41.4 14 41.4 14 41.4 14 41.4 14.1 41.4 14.1 41.4 14.1 41.4 14.2 41.4 14.2 41.3 14.2 41.3 14.3 41.3 14.3 41.3 14.3 41.3 14.3 41.3 14.3 41.3 14.4 41.3 14.4 41.3 14.4 41.3 14.4 41.2 14.4 41.2 14.4 41.2 14.4 41.2 14.4 41.2 14.3 41.2 14.3 41.2 14.3 41.2 14.2 41.2 14.2 41.2 14.1 41.2 14.1 41.2 14.1 41.2 14 41.2 14 41.2 13.9 41.2 13.9 41.2 13.8 41.2 13.8 41.2 13.8 41.2 13.7 41.1 13.7 41.2 13.6 41.2 13.6 41.2 13.5 41.1 13.5 41.2 13.4 41.2 13.4 41.2 13.3 41.2 13.3 41.2 13.3 41.2 13.2 41.2 13.2 41.2 13.1 41.2 13.1 41.2 13 41.2 13 41.2 12.9 41.2 12.9 41.2 12.8 41.2 12.8 41.2 12.8 41.2 12.7 41.3 12.7 41.3 12.7 41.3 12.3 41.4 12 41.5 11.7 41.6 11.4 41.7 11.1 41.8 10.8 42 10.6 42.1 10.3 42.3 10 42.5 9.8 42.6 9.5 42.8 9.3 43 9 43.3 8.8 43.5 8.6 43.7 8.4 44 8.2 44.2 8 44.5 7.8 44.7 7.6 45 7.5 45.3 7.3 45.6 7.1 45.8 7 46.2 6.9 46.5 6.7 46.8 6.6 47.1 6.5 47.4 6.4 47.7 6.3 48 6.2 48.3 6.1 48.3 6.1 48.6 6.1 48.9 6 49.2 6 49.5 6 49.8 6 50.1 6 50.4 6 50.7 6 51 6 51.3 6.1 51.6 6.1 51.8 6.2 52.1 6.2 52.4 6.3 52.7 6.4 53 6.5 53.2 6.5 53.5 6.7 53.8 6.8 54 6.9 54.3 7 54.5 7.1 54.8 7.3 55 7.4 55.3 7.6 55.5 7.8 55.7 8 55.9 8.1 56.2 8.3 56.4 8.5 56.6 8.8 56.8 9"/><polygon class="cls-1" points="19.2 18.5 19.3 18.7 19.5 18.8 19.6 19 19.8 19.1 19.9 19.2 20.1 19.4 20.3 19.5 20.5 19.6 20.6 19.8 20.8 19.9 21 20 21.1 20.1 21.3 20.2 21.5 20.4 21.6 20.5 21.8 20.6 22 20.7 22.1 20.9 22.3 21 22.5 21.1 22.7 21.2 22.8 21.4 23 21.5 23.1 21.6 23.3 21.8 23.5 21.9 23.6 22.1 23.8 22.2 23.9 22.4 24 22.5 24.2 22.7 24.3 22.8 24.3 22.8 24.4 22.9 24.5 23 24.6 23.1 24.7 23.2 24.8 23.3 24.8 23.4 24.9 23.5 25 23.7 25.1 23.8 25.1 23.9 25.2 24 25.3 24.1 25.4 24.2 25.4 24.4 25.5 24.5 25.5 24.6 25.5 24.7 25.6 24.9 25.6 25 25.7 25.1 25.7 25.3 25.8 25.4 25.8 25.5 25.8 25.7 25.8 25.8 25.9 25.9 25.9 26.1 25.9 26.2 25.9 26.3 25.9 26.5 25.9 26.6 25.9 26.7 25.9 26.7 25.9 26.7 25.9 26.7 25.9 26.8 25.9 26.8 25.9 26.8 25.9 26.8 25.9 26.8 25.9 26.8 25.9 26.8 25.9 26.8 25.9 26.8 25.9 26.8 25.9 26.8 25.9 26.8 25.9 26.8 25.9 26.8 25.9 26.8 25.9 26.8 25.9 26.9 25.9 26.9 25.9 26.9 25.9 26.9 25.9 26.9 25.9 26.9 25.9 26.9 25.9 26.9 25.9 26.9 25.9 26.9 25.9 26.9 25.9 26.9 25.9 26.9 25.9 26.9 25.9 26.9 25.9 27 25.9 27 25.9 27.1 25.9 27.1 25.9 27.1 25.9 27.2 25.9 27.2 25.9 27.3 25.9 27.3 25.9 27.3 25.9 27.4 25.9 27.4 25.9 27.5 25.9 27.5 25.9 27.6 25.9 27.6 25.8 27.7 25.8 27.7 25.8 27.7 25.8 27.8 25.8 27.8 25.8 27.9 25.8 27.9 25.8 28 25.8 28 25.8 28 25.8 28.1 25.8 28.1 25.8 28.2 25.7 28.2 25.7 28.2 25.7 28.3 25.7 28.3 25.7 28.3 25.7 28.4 25.7 28.5 25.6 28.5 25.6 28.6 25.6 28.7 25.6 28.7 25.6 28.8 25.6 28.8 25.5 28.9 25.5 29 25.5 29 25.5 29.1 25.5 29.1 25.4 29.2 25.4 29.3 25.4 29.3 25.4 29.4 25.3 29.4 25.3 29.5 25.3 29.5 25.2 29.6 25.2 29.7 25.2 29.7 25.1 29.8 25.1 29.8 25.1 29.9 25 29.9 25 30 25 30 24.9 30.1 24.9 30.1 24.9 30.1 24.9 30.2 24.9 30.2 24.8 30.2 24.8 30.2 24.8 30.2 24.8 30.2 24.8 30.2 24.8 30.2 24.8 30.2 24.7 30.2 24.7 30.2 24.7 30.2 24.7 30.2 24.7 30.2 24.7 30.2 24.7 30.2 24.7 30.2 24.6 30.2 24.6 30.2 24.6 30.1 24.6 30.1 24.6 30.1 24.6 30.1 24.6 30.1 24.6 30.1 24.6 30.1 24.6 30 24.6 30 24.6 30 24.7 30 24.7 30 24.7 30 24.7 30 24.7 29.8 24.8 29.5 24.8 29.3 24.8 29.1 24.8 28.9 24.8 28.6 24.8 28.4 24.8 28.2 24.8 28 24.8 27.7 24.7 27.5 24.7 27.3 24.7 27 24.6 26.8 24.6 26.6 24.5 26.4 24.5 26.1 24.4 25.9 24.3 25.7 24.2 25.5 24.1 25.2 24 25 24 24.8 23.9 24.6 23.7 24.4 23.6 24.2 23.5 24 23.4 23.8 23.2 23.7 23.1 23.5 23 23.3 22.8 23.1 22.8 23.1 22.7 23 22.5 22.9 22.4 22.7 22.3 22.6 22.1 22.4 22 22.3 21.8 22.2 21.7 22 21.5 21.9 21.3 21.8 21.2 21.6 21 21.5 20.9 21.3 20.7 21.2 20.5 21.1 20.4 20.9 20.3 20.8 20.1 20.7 20 20.5 19.8 20.4 19.7 20.2 19.5 20 19.4 19.9 19.3 19.7 19.2 19.5 19.1 19.4 19 19.2 18.9 19 18.8 18.8 18.7 18.7 18.6 18.4 18.6 18.2 18.6 18.2 18.6 18.2 18.6 18.2 18.7 18.2 18.7 18.2 18.7 18.2 18.7 18.3 18.7 18.3 18.7 18.3 18.8 18.3 18.8 18.3 18.8 18.3 18.8 18.3 18.8 18.3 18.8 18.4 18.9 18.4 18.9 18.4 18.9 18.4 18.9 18.4 18.9 18.5 18.9 18.5 19 18.5 19 18.5 19 18.5 19 18.5 19 18.5 19 18.5 19.1 18.5 19.1 18.5 19.1 18.6 19.1 18.6 19.1 18.6 19.2 18.5"/><polygon class="cls-1" points="11.3 24 11.4 24.2 11.4 24.3 11.4 24.4 11.4 24.5 11.4 24.7 11.4 24.8 11.4 24.9 11.4 25 11.4 25.2 11.4 25.3 11.4 25.4 11.4 25.5 11.4 25.7 11.4 25.8 11.4 25.9 11.4 26 11.4 26.1 11.4 26.3 11.4 26.4 11.4 26.5 11.5 26.6 11.5 26.8 11.5 26.9 11.5 27 11.5 27.1 11.5 27.2 11.6 27.3 11.6 27.5 11.6 27.6 11.7 27.7 11.7 27.8 11.8 27.9 11.8 27.9 11.8 28 11.9 28 12 28.1 12.1 28.2 12.2 28.2 12.3 28.2 12.4 28.3 12.5 28.3 12.6 28.3 12.7 28.3 12.8 28.4 12.9 28.4 13 28.4 13.1 28.4 13.2 28.5 13.3 28.5 13.4 28.5 13.5 28.5 13.6 28.5 13.7 28.6 13.8 28.6 13.9 28.6 14 28.7 14.1 28.7 14.2 28.7 14.3 28.8 14.4 28.8 14.5 28.9 14.5 29 14.6 29.1 14.7 29.2 14.7 29.2 14.7 29.2 14.8 29.3 14.8 29.4 14.9 29.5 14.9 29.6 14.9 29.8 14.9 29.8 15 29.9 15 30 15 30.1 15.1 30.2 15.1 30.3 15.1 30.4 15.1 30.5 15.1 30.6 15.2 30.7 15.2 30.8 15.2 30.9 15.3 31 15.3 31.1 15.3 31.2 15.4 31.3 15.4 31.3 15.5 31.4 15.5 31.5 15.6 31.6 15.6 31.7 15.7 31.7 15.8 31.8 15.9 31.8 15.9 31.9 16 32 16.1 32 16.1 32 16.3 32 16.4 32.1 16.5 32.2 16.7 32.2 16.8 32.3 17 32.3 17.1 32.3 17.2 32.4 17.4 32.4 17.5 32.5 17.7 32.5 17.8 32.5 18 32.5 18.1 32.5 18.3 32.5 18.4 32.5 18.6 32.6 18.8 32.6 18.9 32.5 19.1 32.5 19.2 32.5 19.4 32.5 19.5 32.5 19.7 32.5 19.8 32.5 20 32.4 20.1 32.4 20.3 32.3 20.4 32.3 20.6 32.2 20.7 32.2 20.9 32.1 20.9 32.1 20.9 32.1 20.9 32.1 20.9 32.1 20.9 32.1 20.9 32.1 20.9 32.1 20.9 32.1 20.9 32.1 20.9 32.2 20.9 32.2 20.9 32.2 20.9 32.2 20.9 32.2 20.9 32.2 20.9 32.2 20.9 32.2 20.9 32.2 20.9 32.2 20.9 32.2 20.9 32.2 20.9 32.2 20.9 32.2 20.9 32.2 20.9 32.2 20.9 32.2 20.9 32.2 20.9 32.2 20.9 32.2 20.9 32.2 20.9 32.2 20.9 32.2 20.9 32.2 20.9 32.2 20.8 32.3 20.6 32.4 20.5 32.5 20.3 32.6 20.2 32.7 20 32.8 19.9 32.8 19.7 32.9 19.5 33 19.4 33 19.2 33.1 19 33.1 18.9 33.1 18.7 33.2 18.5 33.2 18.4 33.2 18.2 33.2 18 33.2 17.8 33.2 17.7 33.2 17.5 33.2 17.3 33.2 17.1 33.2 17 33.2 16.8 33.2 16.6 33.1 16.5 33.1 16.3 33.1 16.1 33 16 33 15.8 32.9 15.7 32.9 15.7 32.9 15.5 32.8 15.4 32.8 15.3 32.7 15.2 32.7 15 32.6 14.9 32.5 14.8 32.5 14.7 32.4 14.6 32.3 14.5 32.2 14.4 32.1 14.4 32 14.3 31.9 14.2 31.8 14.1 31.7 14.1 31.6 14 31.5 13.9 31.4 13.9 31.3 13.8 31.1 13.7 31 13.7 30.9 13.6 30.8 13.6 30.6 13.5 30.5 13.5 30.4 13.4 30.3 13.4 30.2 13.3 30 13.2 29.9 13.2 29.8 13.2 29.7 13.2 29.7 13.1 29.7 13.1 29.6 13.1 29.6 13.1 29.6 13.1 29.6 13.1 29.6 13 29.5 13 29.5 13 29.5 13 29.5 13 29.5 13 29.5 12.9 29.5 12.9 29.4 12.9 29.4 12.9 29.4 12.9 29.4 12.8 29.4 12.8 29.3 12.8 29.3 12.8 29.3 12.8 29.3 12.8 29.3 12.7 29.3 12.7 29.3 12.7 29.3 12.7 29.2 12.7 29.2 12.7 29.2 12.6 29.2 12.6 29.2 12.6 29.2 12.6 29.2 12.6 29.2 12.5 29.1 12.4 29.1 12.3 29 12.2 29 12.1 29 12 28.9 11.9 28.9 11.8 28.9 11.7 28.8 11.6 28.8 11.5 28.8 11.4 28.8 11.3 28.7 11.2 28.7 11.1 28.7 11 28.6 10.9 28.6 10.8 28.6 10.7 28.5 10.6 28.5 10.5 28.4 10.4 28.4 10.4 28.3 10.3 28.2 10.2 28.2 10.2 28.1 10.1 28 10.1 27.9 10.1 27.8 10 27.7 10 27.5 10 27.5 10 27.4 10 27.3 10 27.1 10 27 10 26.8 10 26.7 10.1 26.5 10.1 26.4 10.1 26.3 10.1 26.1 10.1 26 10.1 25.8 10.1 25.7 10.1 25.5 10.1 25.4 10.1 25.2 10.2 25.1 10.1 25 10.2 24.8 10.2 24.7 10.2 24.5 10.2 24.4 10.2 24.3 10.2 24.1 10.3 24 10.3 23.8 10.3 23.7 10.3 23.5 10.3 23.4 10.3 23.3 10.4 23.1 10.4 23 10.4 23 10.4 23 10.4 22.9 10.4 22.9 10.4 22.9 10.4 22.9 10.4 22.9 10.4 22.9 10.4 22.9 10.5 22.9 10.5 22.9 10.5 22.9 10.5 22.9 10.5 22.9 10.5 23 10.5 23 10.5 23 10.5 23 10.6 23 10.6 23 10.6 23 10.6 23.1 10.6 23.1 10.6 23.1 10.6 23.1 10.6 23.1 10.7 23.1 10.7 23.2 10.7 23.2 10.7 23.2 10.7 23.2 10.7 23.2 10.7 23.2 10.7 23.2 10.8 23.2 10.8 23.3 10.8 23.3 10.8 23.3 10.8 23.3 10.8 23.4 10.9 23.4 10.9 23.4 10.9 23.5 10.9 23.5 10.9 23.5 10.9 23.5 11 23.6 11 23.6 11 23.6 11 23.6 11.1 23.7 11.1 23.7 11.1 23.7 11.1 23.8 11.1 23.8 11.1 23.8 11.2 23.8 11.2 23.8 11.2 23.9 11.2 23.9 11.2 23.9 11.2 24 11.3 24 11.3 24 11.3 24 11.3 24"/><polygon class="cls-1" points="45.9 11.5 45.9 11.5 45.8 11.5 45.8 11.6 45.8 11.6 45.8 11.6 45.8 11.7 45.8 11.7 45.8 11.7 45.8 11.8 45.7 11.8 45.7 11.8 45.7 11.8 45.7 11.9 45.6 11.9 45.6 11.9 45.6 12 45.5 12 45.5 12 45.5 12 45.5 12.1 45.4 12.1 45.4 12.1 45.4 12.1 45.3 12.2 45.3 12.2 45.3 12.2 45.3 12.2 45.3 12.3 45.3 12.3 45.2 12.3 45.2 12.4 45.2 12.4 45.2 12.4 45.2 12.4 45.1 12.5 45.1 12.4 45 12.5 45 12.5 44.9 12.5 44.9 12.5 44.8 12.5 44.8 12.5 44.8 12.5 44.7 12.4 44.7 12.4 44.6 12.4 44.6 12.4 44.5 12.4 44.5 12.4 44.5 12.4 44.4 12.4 44.4 12.4 44.3 12.4 44.3 12.3 44.3 12.3 44.2 12.3 44.2 12.3 44.2 12.2 44.1 12.2 44.1 12.2 44 12.2 44 12.2 44 12.2 44 12.1 43.9 12.1 43.9 12.1 44 12.1 44 12.1 44 12 44.1 12 44.1 12 44.2 12 44.2 12 44.3 12 44.3 12 44.4 11.9 44.4 11.9 44.5 11.9 44.5 11.9 44.6 11.9 44.6 11.8 44.7 11.8 44.7 11.8 44.8 11.8 44.8 11.8 44.8 11.7 44.9 11.7 45 11.7 45 11.7 45 11.7 45.1 11.6 45.2 11.6 45.2 11.6 45.2 11.6 45.3 11.6 45.3 11.5 45.4 11.5 45.4 11.5 45.4 11.5 45.4 11.5 45.5 11.5 45.5 11.5 45.5 11.5 45.5 11.5 45.5 11.4 45.5 11.4 45.5 11.4 45.5 11.4 45.5 11.4 45.6 11.4 45.6 11.4 45.6 11.4 45.6 11.4 45.6 11.4 45.6 11.4 45.7 11.4 45.7 11.4 45.7 11.5 45.7 11.4 45.7 11.4 45.7 11.5 45.7 11.5 45.7 11.5 45.8 11.5 45.8 11.5 45.8 11.5 45.8 11.5 45.8 11.5 45.8 11.5 45.8 11.5 45.9 11.5"/><polygon class="cls-1" points="39.6 16.4 39.6 16.5 39.6 16.5 39.7 16.6 39.7 16.7 39.7 16.7 39.8 16.8 39.8 16.9 39.8 16.9 39.9 17 39.9 17.1 40 17.1 40 17.2 40 17.3 40.1 17.3 40.1 17.4 40.1 17.5 40.1 17.5 40.2 17.6 40.2 17.7 40.2 17.8 40.2 17.8 40.2 17.9 40.2 17.9 40.2 18 40.2 18.1 40.2 18.1 40.2 18.2 40.1 18.2 40.1 18.3 40 18.4 40 18.4 40 18.5 40 18.5 39.9 18.5 39.9 18.5 39.8 18.5 39.8 18.5 39.7 18.5 39.7 18.5 39.7 18.4 39.7 18.4 39.6 18.4 39.6 18.3 39.6 18.3 39.6 18.3 39.6 18.2 39.5 18.2 39.5 18.1 39.5 18.1 39.5 18.1 39.5 18 39.5 18 39.5 17.9 39.5 17.9 39.5 17.8 39.5 17.8 39.5 17.7 39.4 17.7 39.4 17.7 39.4 17.6 39.4 17.6 39.4 17.5 39.3 17.5 39.3 17.5 39.3 17.4 39.3 17.4 39.2 17.3 39.2 17.3 39.2 17.2 39.1 17.1 39 17.1 39 17 38.9 17 38.9 16.9 38.8 16.8 38.7 16.8 38.7 16.7 38.6 16.7 38.5 16.7 38.5 16.6 38.4 16.6 38.3 16.6 38.2 16.5 38.2 16.5 38.1 16.5 38 16.5 37.9 16.4 37.8 16.4 37.7 16.4 37.7 16.4 37.6 16.4 37.5 16.4 37.4 16.4 37.3 16.4 37.2 16.4 37.2 16.4 37.1 16.4 37 16.4 37 16.4 36.9 16.4 36.8 16.4 36.8 16.4 36.7 16.4 36.6 16.5 36.6 16.5 36.5 16.5 36.5 16.5 36.4 16.5 36.3 16.6 36.2 16.6 36.2 16.6 36.1 16.6 36 16.7 36 16.7 36 16.7 35.9 16.8 35.8 16.8 35.8 16.8 35.7 16.9 35.7 16.9 35.6 16.9 35.6 17 35.5 17 35.5 17.1 35.4 17.1 35.4 17.1 35.3 17.2 35.3 17.2 35.2 17.3 35.2 17.3 35.1 17.4 35.1 17.4 35.1 17.4 35.1 17.4 35.1 17.4 35 17.4 35 17.4 35 17.4 35 17.4 35 17.4 34.9 17.4 34.9 17.5 34.9 17.5 34.9 17.5 34.8 17.5 34.8 17.5 34.8 17.5 34.8 17.5 34.7 17.5 34.7 17.5 34.7 17.5 34.7 17.5 34.6 17.5 34.6 17.5 34.6 17.5 34.6 17.5 34.6 17.5 34.5 17.5 34.5 17.5 34.5 17.5 34.5 17.5 34.5 17.5 34.5 17.5 34.5 17.4 34.5 17.4 34.5 17.3 34.5 17.2 34.6 17.1 34.6 17 34.7 16.9 34.7 16.8 34.8 16.8 34.9 16.7 34.9 16.6 35 16.5 35.1 16.4 35.2 16.3 35.2 16.2 35.3 16.2 35.4 16.1 35.5 16 35.6 16 35.7 15.9 35.8 15.8 35.9 15.8 36 15.7 36.1 15.7 36.2 15.6 36.4 15.6 36.5 15.5 36.6 15.5 36.7 15.5 36.8 15.4 37 15.4 37.1 15.4 37.2 15.4 37.3 15.4 37.3 15.4 37.4 15.4 37.5 15.4 37.6 15.4 37.7 15.4 37.7 15.4 37.8 15.4 37.9 15.4 38 15.5 38 15.5 38.1 15.5 38.2 15.5 38.2 15.6 38.3 15.6 38.4 15.6 38.5 15.7 38.6 15.7 38.6 15.7 38.7 15.8 38.8 15.8 38.8 15.8 38.9 15.9 39 15.9 39 16 39.1 16 39.2 16.1 39.2 16.1 39.3 16.2 39.3 16.2 39.4 16.3 39.5 16.3 39.5 16.4 39.6 16.4"/><polygon class="cls-1" points="34.1 18.2 34.1 18.2 34.1 18.2 34.2 18.3 34.2 18.3 34.2 18.3 34.2 18.3 34.2 18.4 34.2 18.4 34.3 18.5 34.3 18.5 34.3 18.5 34.3 18.5 34.3 18.6 34.3 18.6 34.4 18.6 34.4 18.7 34.4 18.7 34.4 18.8 34.4 18.8 34.4 18.8 34.4 18.9 34.4 18.9 34.5 18.9 34.4 19 34.5 19 34.4 19.1 34.5 19.1 34.4 19.1 34.5 19.2 34.5 19.2 34.4 19.2 34.4 19.2 34.4 19.2 34.6 19.2 34.7 19.2 34.8 19.2 35 19.2 35.1 19.2 35.2 19.2 35.4 19.2 35.5 19.2 35.6 19.2 35.7 19.2 35.9 19.2 36 19.3 36.1 19.3 36.2 19.4 36.3 19.4 36.4 19.5 36.6 19.5 36.7 19.6 36.8 19.6 36.9 19.7 37 19.8 37.1 19.8 37.2 19.9 37.3 20 37.4 20.1 37.5 20.2 37.6 20.2 37.7 20.3 37.8 20.4 37.9 20.5 38 20.6 38.1 20.7 38.1 20.7 38.1 20.8 38.1 20.8 38.2 20.9 38.2 21 38.2 21.1 38.3 21.2 38.3 21.2 38.3 21.3 38.3 21.4 38.3 21.5 38.3 21.6 38.4 21.7 38.4 21.7 38.4 21.8 38.4 21.9 38.4 22 38.4 22.1 38.4 22.2 38.4 22.2 38.4 22.3 38.4 22.4 38.4 22.5 38.3 22.6 38.3 22.7 38.3 22.7 38.3 22.8 38.2 22.9 38.2 23 38.2 23.1 38.2 23.2 38.1 23.2 38.1 23.3 38.1 23.3 38.1 23.4 38 23.5 38 23.5 37.9 23.6 37.9 23.7 37.8 23.7 37.8 23.8 37.8 23.8 37.7 23.9 37.6 24 37.6 24 37.5 24.1 37.4 24.1 37.4 24.2 37.3 24.2 37.2 24.3 37.2 24.3 37.1 24.4 37 24.4 36.9 24.4 36.9 24.5 36.8 24.5 36.7 24.5 36.6 24.6 36.5 24.6 36.5 24.6 36.4 24.7 36.3 24.7 36.2 24.7 36.1 24.7 36 24.7 36 24.7 36 24.7 35.9 24.7 35.9 24.7 35.9 24.6 35.9 24.6 35.9 24.6 35.9 24.6 35.9 24.5 36 24.5 36 24.5 36 24.5 36 24.5 36 24.5 36 24.5 36 24.5 36 24.5 36.1 24.4 36.1 24.4 36.1 24.4 36.1 24.4 36.2 24.4 36.2 24.4 36.2 24.4 36.2 24.4 36.2 24.4 36.3 24.4 36.3 24.4 36.3 24.3 36.3 24.3 36.3 24.3 36.3 24.3 36.4 24.3 36.4 24.3 36.4 24.3 36.4 24.2 36.5 24.1 36.6 24.1 36.6 24 36.7 23.9 36.7 23.9 36.8 23.8 36.8 23.7 36.9 23.6 37 23.5 37 23.5 37.1 23.4 37.1 23.3 37.2 23.2 37.2 23.1 37.2 23 37.3 23 37.3 22.9 37.3 22.8 37.3 22.7 37.4 22.6 37.4 22.5 37.4 22.4 37.4 22.3 37.4 22.2 37.4 22.2 37.4 22 37.4 22 37.4 21.8 37.4 21.8 37.4 21.7 37.3 21.5 37.3 21.5 37.3 21.5 37.3 21.4 37.3 21.3 37.3 21.3 37.2 21.2 37.2 21.2 37.2 21.1 37.1 21 37.1 21 37.1 21 37 20.9 37 20.8 36.9 20.8 36.9 20.8 36.8 20.7 36.8 20.7 36.7 20.7 36.7 20.6 36.6 20.6 36.6 20.6 36.5 20.5 36.5 20.5 36.4 20.5 36.3 20.5 36.3 20.5 36.2 20.4 36.2 20.4 36.1 20.4 36 20.4 36 20.4 35.9 20.3 35.9 20.3 35.9 20.3 35.8 20.3 35.7 20.3 35.6 20.3 35.5 20.3 35.4 20.3 35.3 20.3 35.2 20.3 35.2 20.3 35.1 20.3 35 20.3 34.9 20.3 34.8 20.4 34.8 20.4 34.7 20.4 34.6 20.5 34.5 20.5 34.4 20.5 34.4 20.6 34.3 20.6 34.2 20.7 34.1 20.7 34 20.7 34 20.8 33.9 20.8 33.8 20.9 33.7 20.9 33.6 20.9 33.6 20.9 33.5 21 33.4 21 33.3 21 33.2 21 33.2 21 33.2 21 33.2 21 33.2 21 33.2 21 33.2 21 33.2 21 33.1 21.1 33.1 21.1 33.1 21.1 33.1 21.1 33.1 21.1 33.1 21.1 33.1 21.1 33.1 21.1 33.1 21.1 33.1 21.1 33.1 21.1 33.1 21.1 33 21.1 33 21.1 33 21.1 33 21.1 33 21.1 33 21.1 33 21.2 33 21.2 33 21.2 33 21.2 33 21.1 32.9 21.2 32.9 21.2 32.9 21.1 32.9 21.1 32.9 21.1 32.9 21 32.9 20.9 32.9 20.9 32.9 20.8 32.9 20.7 32.9 20.7 33 20.6 33 20.6 33 20.5 33 20.4 33.1 20.4 33.1 20.3 33.2 20.3 33.2 20.2 33.2 20.2 33.3 20.1 33.4 20 33.4 20 33.5 20 33.5 19.9 33.6 19.8 33.6 19.8 33.7 19.8 33.8 19.7 33.8 19.7 33.9 19.6 33.9 19.6 34 19.5 34 19.5 34.1 19.5 34.1 19.4 34.1 19.4 34.1 19.4 34.1 19.3 34.1 19.2 34 19.2 34 19.2 34 19.1 34 19 33.9 19 33.9 18.9 33.9 18.9 33.8 18.8 33.8 18.8 33.7 18.7 33.7 18.7 33.6 18.6 33.6 18.6 33.6 18.5 33.5 18.5 33.5 18.5 33.4 18.4 33.4 18.4 33.3 18.3 33.3 18.3 33.2 18.3 33.2 18.2 33.1 18.2 33.1 18.2 33 18.2 32.9 18.2 32.9 18.1 32.8 18.1 32.8 18.1 32.8 18.1 32.7 18.1 32.7 18.1 32.6 18.1 32.6 18.1 32.5 18.1 32.5 18.1 32.4 18.1 32.4 18.1 32.4 18.1 32.3 18.1 32.3 18.1 32.2 18.1 32.2 18.1 32.1 18 32.1 18 32 18 32 18 32 18 32 18 31.9 18 31.9 18 31.8 18 31.8 18 31.7 17.9 31.7 17.9 31.6 17.9 31.6 17.9 31.6 17.9 31.5 17.9 31.5 17.8 31.5 17.8 31.4 17.8 31.4 17.8 31.4 17.8 31.4 17.8 31.4 17.8 31.4 17.8 31.5 17.8 31.5 17.8 31.5 17.8 31.5 17.8 31.5 17.8 31.5 17.8 31.5 17.8 31.5 17.8 31.5 17.7 31.5 17.7 31.5 17.7 31.5 17.7 31.5 17.7 31.5 17.7 31.5 17.7 31.5 17.7 31.5 17.7 31.5 17.7 31.5 17.7 31.5 17.7 31.5 17.7 31.5 17.7 31.5 17.7 31.5 17.7 31.5 17.7 31.5 17.7 31.5 17.7 31.5 17.6 31.5 17.6 31.6 17.6 31.7 17.6 31.8 17.6 31.9 17.5 32 17.5 32.1 17.5 32.2 17.5 32.2 17.5 32.3 17.5 32.4 17.5 32.5 17.5 32.6 17.5 32.7 17.5 32.8 17.5 32.9 17.5 33 17.5 33 17.6 33.1 17.6 33.2 17.6 33.3 17.6 33.3 17.7 33.4 17.7 33.5 17.7 33.6 17.8 33.6 17.8 33.7 17.9 33.8 17.9 33.9 18 33.9 18 34 18.1 34 18.1 34.1 18.2"/><polygon class="cls-1" points="29.9 19 29.9 19.1 29.9 19.2 29.9 19.3 29.9 19.4 29.8 19.5 29.8 19.5 29.8 19.6 29.8 19.7 29.8 19.8 29.7 19.9 29.7 20 29.7 20 29.6 20.1 29.6 20.2 29.6 20.3 29.6 20.4 29.6 20.5 29.5 20.6 29.5 20.6 29.5 20.7 29.5 20.8 29.5 20.9 29.5 21 29.5 21.1 29.5 21.2 29.5 21.2 29.5 21.3 29.5 21.4 29.5 21.5 29.5 21.6 29.6 21.7 29.6 21.8 29.6 21.8 29.6 21.8 29.6 21.9 29.6 21.9 29.6 22 29.6 22 29.6 22 29.7 22.1 29.7 22.1 29.7 22.1 29.7 22.2 29.7 22.2 29.8 22.2 29.8 22.2 29.8 22.3 29.8 22.3 29.8 22.3 29.9 22.4 29.9 22.4 29.9 22.4 29.9 22.5 29.9 22.5 30 22.5 30 22.5 30 22.5 30 22.6 30.1 22.6 30.1 22.6 30.1 22.7 30.1 22.7 30.2 22.7 30.2 22.7 30.2 22.8 30.2 22.8 30.3 22.8 30.3 22.8 30.4 22.8 30.4 22.8 30.5 22.8 30.5 22.8 30.6 22.9 30.6 22.9 30.7 22.9 30.7 22.9 30.8 22.9 30.8 23 30.9 23 31 23 31 23 31.1 23 31.1 23 31.2 23 31.2 23 31.3 23 31.3 23 31.4 23 31.4 23 31.5 23 31.5 23 31.6 23 31.7 23 31.7 23 31.8 22.9 31.8 22.9 31.9 22.9 31.9 22.9 31.9 22.9 31.9 22.9 31.9 22.9 32 22.9 32 22.9 32 23 32 23 32 23 32 23 32 23 32 23 32 23 32.1 23.1 32.1 23.1 32.1 23.1 32.1 23.1 32.1 23.1 32.1 23.1 32.1 23.2 32.2 23.2 32.2 23.2 32.2 23.2 32.2 23.2 32.2 23.2 32.2 23.3 32.2 23.3 32.2 23.3 32.2 23.3 32.2 23.3 32.2 23.4 32.1 23.4 32.1 23.4 32.1 23.4 32.1 23.4 32.1 23.5 32.1 23.5 32 23.5 32 23.5 32 23.5 32 23.5 31.9 23.6 31.9 23.6 31.9 23.6 31.8 23.6 31.8 23.6 31.7 23.6 31.7 23.6 31.7 23.6 31.6 23.7 31.6 23.7 31.5 23.7 31.5 23.7 31.5 23.7 31.4 23.7 31.4 23.7 31.4 23.7 31.3 23.7 31.3 23.7 31.2 23.7 31.2 23.7 31.2 23.7 31.1 23.7 31.1 23.7 31 23.7 31 23.7 31 23.7 31 23.7 30.9 23.7 30.8 23.7 30.7 23.7 30.6 23.7 30.5 23.7 30.4 23.7 30.3 23.6 30.2 23.6 30.2 23.5 30.1 23.5 30 23.5 29.9 23.4 29.9 23.3 29.8 23.3 29.7 23.2 29.7 23.2 29.6 23.1 29.5 23 29.5 23 29.4 22.9 29.4 22.8 29.3 22.7 29.3 22.7 29.2 22.6 29.2 22.5 29.1 22.4 29.1 22.3 29 22.3 29 22.2 29 22.1 28.9 22 28.9 21.9 28.9 21.9 28.8 21.8 28.8 21.8 28.8 21.6 28.8 21.5 28.7 21.4 28.7 21.3 28.7 21.2 28.7 21.1 28.7 21 28.7 20.9 28.7 20.8 28.7 20.7 28.7 20.6 28.7 20.4 28.7 20.3 28.8 20.2 28.8 20.1 28.8 20 28.8 19.9 28.9 19.8 28.9 19.7 29 19.6 29 19.5 29 19.4 29.1 19.3 29.1 19.2 29.2 19.1 29.3 19.1 29.4 19 29.4 18.9 29.5 18.8 29.6 18.8 29.6 18.8 29.6 18.7 29.6 18.7 29.7 18.7 29.7 18.7 29.7 18.7 29.7 18.7 29.7 18.7 29.8 18.7 29.8 18.7 29.8 18.7 29.8 18.7 29.8 18.7 29.8 18.7 29.8 18.7 29.8 18.8 29.8 18.8 29.8 18.8 29.9 18.8 29.8 18.8 29.8 18.8 29.9 18.9 29.9 18.9 29.9 18.9 29.9 18.9 29.9 18.9 29.9 19 29.9 19 29.9 19 29.9 19 29.9 19 29.9 19 29.9 19"/><polygon class="cls-1" points="55.6 11.8 55.6 12 55.7 12 55.7 12.2 55.8 12.3 55.8 12.4 55.8 12.5 55.9 12.6 55.9 12.7 55.9 12.8 56 13 56 13.1 56 13.2 56 13.3 56.1 13.5 56.1 13.6 56.1 13.7 56.1 13.8 56.1 13.9 56.1 14.1 56.1 14.2 56.1 14.3 56.1 14.4 56.1 14.5 56.1 14.6 56.1 14.8 56 14.9 56 15 56 15.1 56 15.2 55.9 15.3 55.9 15.5 55.8 15.6 55.8 15.6 55.8 15.6 55.8 15.7 55.7 15.7 55.7 15.8 55.7 15.8 55.7 15.8 55.6 15.9 55.6 15.9 55.6 16 55.5 16 55.5 16 55.5 16 55.4 16.1 55.4 16.1 55.3 16.1 55.3 16.2 55.3 16.2 55.2 16.2 55.2 16.2 55.2 16.3 55.1 16.3 55.1 16.3 55 16.3 55 16.3 55 16.4 54.9 16.4 54.9 16.4 54.8 16.4 54.8 16.4 54.7 16.4 54.7 16.4 54.6 16.4 54.6 16.4 54.6 16.4 54.6 16.4 54.6 16.4 54.5 16.4 54.5 16.4 54.5 16.4 54.5 16.4 54.5 16.4 54.5 16.4 54.5 16.4 54.4 16.4 54.4 16.4 54.4 16.4 54.4 16.4 54.3 16.4 54.3 16.4 54.3 16.4 54.3 16.4 54.3 16.4 54.3 16.4 54.2 16.4 54.2 16.4 54.2 16.4 54.2 16.4 54.2 16.4 54.2 16.4 54.2 16.4 54.1 16.4 54.1 16.4 54.1 16.3 54.1 16.3 54.1 16.3 54.1 16.3 54.2 16.2 54.3 16 54.4 15.9 54.5 15.7 54.6 15.6 54.6 15.4 54.7 15.2 54.8 15 54.8 14.9 54.9 14.7 54.9 14.5 54.9 14.3 55 14.2 55 14 55 13.8 55 13.6 55 13.4 55 13.2 55 13 54.9 12.9 54.9 12.7 54.9 12.5 54.8 12.3 54.8 12.1 54.7 11.9 54.7 11.8 54.6 11.6 54.5 11.4 54.5 11.2 54.4 11 54.3 10.9 54.2 10.7 54.2 10.7 54.2 10.7 54.3 10.8 54.3 10.8 54.4 10.8 54.5 10.8 54.5 10.9 54.5 10.9 54.6 10.9 54.6 11 54.7 11 54.7 11 54.8 11 54.8 11.1 54.9 11.1 54.9 11.1 55 11.2 55 11.2 55 11.2 55.1 11.3 55.1 11.3 55.2 11.3 55.2 11.4 55.3 11.4 55.3 11.4 55.3 11.5 55.4 11.5 55.4 11.6 55.4 11.6 55.5 11.7 55.5 11.7 55.5 11.8 55.6 11.8"/><polygon class="cls-1" points="31.7 22.2 31.7 22.3 31.7 22.3 31.7 22.3 31.7 22.3 31.7 22.3 31.6 22.3 31.6 22.3 31.7 22.3 31.6 22.3 31.6 22.3 31.6 22.4 31.6 22.4 31.6 22.4 31.6 22.4 31.6 22.4 31.6 22.4 31.6 22.4 31.6 22.4 31.6 22.4 31.6 22.4 31.6 22.4 31.5 22.4 31.5 22.4 31.5 22.4 31.5 22.4 31.5 22.5 31.5 22.4 31.5 22.4 31.5 22.4 31.5 22.4 31.5 22.4 31.5 22.4 31.5 22.4 31.4 22.4 31.4 22.4 31.3 22.4 31.2 22.3 31.2 22.3 31.2 22.3 31.1 22.3 31.1 22.2 31 22.2 31 22.2 30.9 22.1 30.9 22.1 30.9 22 30.8 22 30.8 22 30.7 21.9 30.7 21.9 30.7 21.8 30.6 21.8 30.6 21.7 30.6 21.7 30.5 21.6 30.5 21.6 30.5 21.5 30.5 21.5 30.4 21.4 30.4 21.3 30.4 21.3 30.4 21.2 30.4 21.2 30.4 21.1 30.4 21 30.4 21 30.3 21 30.3 20.9 30.3 20.9 30.3 20.9 30.3 20.8 30.3 20.8 30.4 20.8 30.4 20.8 30.4 20.8 30.4 20.8 30.4 20.8 30.4 20.8 30.4 20.8 30.4 20.8 30.5 20.8 30.5 20.8 30.5 20.9 30.5 20.9 30.6 20.9 30.6 20.9 30.6 21 30.6 21 30.7 21 30.7 21.1 30.7 21.1 30.7 21.1 30.7 21.1 30.8 21.2 30.8 21.2 30.8 21.2 30.8 21.2 30.8 21.2 30.8 21.2 30.8 21.2 30.8 21.3 30.9 21.3 30.9 21.4 30.9 21.4 30.9 21.4 31 21.5 31 21.5 31 21.5 31 21.6 31.1 21.6 31.1 21.7 31.1 21.7 31.1 21.7 31.2 21.8 31.2 21.8 31.2 21.8 31.2 21.9 31.3 21.9 31.3 21.9 31.3 22 31.4 22 31.4 22 31.4 22 31.5 22.1 31.5 22.1 31.5 22.1 31.5 22.2 31.6 22.2 31.6 22.2 31.6 22.2 31.7 22.2"/><polygon class="cls-1" points="53.7 15.3 53.7 15.4 53.6 15.5 53.6 15.5 53.6 15.6 53.6 15.7 53.6 15.7 53.6 15.8 53.5 15.9 53.5 16 53.5 16 53.5 16.1 53.5 16.2 53.5 16.2 53.4 16.3 53.4 16.4 53.4 16.4 53.4 16.5 53.3 16.5 53.3 16.6 53.3 16.7 53.2 16.7 53.2 16.8 53.1 16.8 53.1 16.8 53 16.9 53 16.9 52.9 17 52.8 17 52.8 17 52.7 17 52.6 17.1 52.5 17.1 52.5 17.1 52.5 17.1 52.5 17.1 52.5 17.1 52.5 17.1 52.5 17.1 52.5 17.1 52.5 17 52.5 17 52.4 17 52.4 17 52.4 17 52.4 17 52.4 17 52.4 17 52.4 17 52.4 17 52.3 17 52.3 17 52.3 17 52.3 16.9 52.3 16.9 52.3 16.9 52.3 16.9 52.3 16.9 52.3 16.9 52.3 16.9 52.3 16.9 52.3 16.8 52.2 16.8 52.2 16.8 52.2 16.8 52.3 16.8 52.3 16.8 52.3 16.7 52.4 16.7 52.4 16.6 52.5 16.5 52.5 16.5 52.6 16.4 52.6 16.3 52.7 16.2 52.7 16.2 52.8 16 52.8 16 52.8 15.9 52.9 15.8 52.9 15.7 52.9 15.6 53 15.5 53 15.5 53 15.4 53 15.3 53 15.2 53 15.1 53 15 53 14.9 53 14.8 53 14.8 53 14.7 53 14.6 53 14.5 53 14.4 53 14.3 53 14.2 53 14.1 53 14.1 53 14.2 53 14.2 53 14.2 53.1 14.2 53.1 14.3 53.2 14.3 53.2 14.3 53.2 14.4 53.2 14.4 53.2 14.4 53.3 14.5 53.3 14.5 53.3 14.5 53.3 14.6 53.4 14.6 53.4 14.6 53.4 14.7 53.4 14.7 53.5 14.8 53.5 14.8 53.5 14.8 53.5 14.9 53.5 14.9 53.5 15 53.6 15 53.6 15 53.6 15.1 53.6 15.2 53.6 15.2 53.6 15.2 53.7 15.3 53.7 15.3"/><polygon class="cls-1" points="42.4 19.7 42.4 19.8 42.5 19.9 42.5 19.9 42.6 20 42.6 20.1 42.6 20.1 42.7 20.2 42.7 20.3 42.7 20.4 42.7 20.4 42.7 20.5 42.8 20.6 42.8 20.7 42.8 20.7 42.8 20.8 42.8 20.9 42.8 21 42.9 21 42.9 21.1 42.9 21.2 42.9 21.3 42.9 21.3 42.9 21.4 42.9 21.5 42.8 21.6 42.8 21.7 42.8 21.7 42.8 21.8 42.8 21.9 42.8 22 42.8 22 42.8 22.1 42.8 22.1 42.8 22.1 42.7 22.2 42.7 22.2 42.7 22.2 42.7 22.3 42.7 22.3 42.6 22.3 42.6 22.4 42.6 22.4 42.6 22.5 42.6 22.5 42.5 22.5 42.5 22.6 42.5 22.6 42.5 22.7 42.5 22.7 42.4 22.7 42.4 22.8 42.4 22.8 42.4 22.8 42.3 22.9 42.3 22.9 42.3 22.9 42.2 23 42.2 23 42.2 23 42.1 23 42.1 23 42.1 23 42 23 42 23 41.9 23 41.9 23 41.9 23 41.9 23 41.9 23 41.9 23 41.9 23 41.9 23 41.9 23 41.9 23 41.9 23 41.9 23 41.8 23 41.8 23 41.8 23 41.8 23 41.8 23 41.8 23 41.8 23 41.8 23 41.8 23 41.8 23 41.8 23 41.8 23 41.8 23 41.8 23 41.8 23 41.8 23 41.8 23 41.8 23 41.8 23 41.8 23 41.8 23 41.8 23 41.8 23 41.8 22.9 41.9 22.8 41.9 22.7 42 22.7 42 22.6 42 22.5 42.1 22.4 42.1 22.3 42.1 22.2 42.2 22.2 42.2 22.1 42.2 22 42.2 21.9 42.3 21.8 42.3 21.7 42.3 21.6 42.3 21.5 42.3 21.5 42.3 21.3 42.3 21.3 42.3 21.2 42.3 21.1 42.3 21 42.3 20.9 42.2 20.8 42.2 20.7 42.2 20.6 42.2 20.5 42.2 20.5 42.1 20.4 42.1 20.3 42 20.2 42 20.2 42 20.2 41.9 20.1 41.9 20 41.8 20 41.7 20 41.7 19.9 41.6 19.9 41.5 19.8 41.4 19.8 41.4 19.8 41.3 19.8 41.2 19.8 41.2 19.7 41.1 19.7 41 19.7 40.9 19.7 40.8 19.7 40.7 19.7 40.7 19.7 40.6 19.7 40.5 19.7 40.4 19.7 40.3 19.7 40.3 19.7 40.2 19.7 40.1 19.7 40 19.7 39.9 19.7 39.9 19.7 39.8 19.7 39.7 19.7 39.6 19.7 39.6 19.7 39.6 19.7 39.5 19.7 39.5 19.7 39.4 19.7 39.4 19.7 39.3 19.7 39.3 19.7 39.2 19.7 39.2 19.8 39.2 19.8 39.1 19.8 39.1 19.8 39 19.8 39 19.8 38.9 19.8 38.9 19.8 38.9 19.8 38.8 19.9 38.8 19.9 38.7 19.9 38.7 19.9 38.6 19.9 38.6 19.9 38.6 19.9 38.5 19.9 38.5 19.9 38.4 19.9 38.4 19.9 38.3 19.9 38.3 19.9 38.2 19.9 38.2 19.8 38.2 19.8 38.2 19.8 38.2 19.7 38.2 19.7 38.2 19.6 38.2 19.6 38.2 19.5 38.2 19.5 38.3 19.5 38.3 19.4 38.3 19.4 38.3 19.4 38.4 19.3 38.4 19.3 38.4 19.3 38.5 19.2 38.5 19.2 38.5 19.2 38.6 19.2 38.6 19.1 38.7 19.1 38.7 19.1 38.8 19 38.8 19 38.8 19 38.9 19 38.9 19 39 18.9 39 18.9 39.1 18.9 39.1 18.8 39.1 18.8 39.2 18.8 39.2 18.8 39.3 18.8 39.4 18.7 39.5 18.7 39.7 18.6 39.8 18.6 39.9 18.6 40 18.6 40.1 18.6 40.2 18.6 40.3 18.6 40.4 18.6 40.5 18.6 40.7 18.7 40.7 18.7 40.8 18.7 41 18.7 41.1 18.8 41.2 18.8 41.2 18.9 41.3 18.9 41.4 19 41.5 19 41.7 19.1 41.7 19.2 41.8 19.2 41.9 19.3 42 19.3 42.1 19.4 42.2 19.5 42.2 19.6 42.3 19.6 42.4 19.7"/><polygon class="cls-1" points="47.2 19.7 47.2 19.8 47.3 19.9 47.3 19.9 47.4 20 47.4 20.1 47.5 20.1 47.5 20.2 47.5 20.3 47.6 20.3 47.6 20.4 47.6 20.5 47.7 20.6 47.7 20.7 47.7 20.7 47.8 20.8 47.8 20.9 47.8 21 47.8 21.1 47.8 21.2 47.8 21.2 47.8 21.3 47.9 21.4 47.9 21.5 47.9 21.6 47.9 21.6 47.9 21.7 47.9 21.8 47.8 21.9 47.9 22 47.8 22 47.8 22.1 47.8 22.2 47.8 22.2 47.8 22.2 47.8 22.2 47.7 22.3 47.7 22.3 47.7 22.4 47.7 22.4 47.6 22.5 47.6 22.5 47.5 22.6 47.5 22.6 47.5 22.6 47.5 22.7 47.4 22.7 47.4 22.8 47.4 22.8 47.3 22.8 47.3 22.9 47.2 22.9 47.2 22.9 47.2 23 47.1 23 47.1 23 47 23 47 23 46.9 23.1 46.9 23.1 46.8 23.1 46.8 23.1 46.8 23.1 46.7 23.1 46.6 23.1 46.6 23.1 46.6 23.1 46.5 23.1 46.5 23.1 46.5 23.1 46.5 23 46.5 23 46.5 23 46.5 23 46.5 23 46.5 23 46.5 22.9 46.5 22.9 46.5 22.9 46.5 22.9 46.5 22.9 46.5 22.8 46.5 22.8 46.6 22.8 46.6 22.8 46.6 22.8 46.6 22.8 46.6 22.7 46.6 22.7 46.7 22.7 46.7 22.7 46.7 22.6 46.7 22.6 46.7 22.6 46.7 22.6 46.7 22.6 46.8 22.5 46.7 22.5 46.8 22.5 46.8 22.5 46.8 22.5 46.8 22.4 46.8 22.3 46.9 22.3 46.9 22.2 46.9 22.2 47 22.1 47 22 47 22 47 21.9 47 21.8 47 21.8 47 21.7 47.1 21.7 47.1 21.6 47.1 21.5 47.1 21.5 47.1 21.4 47.1 21.3 47.1 21.3 47.1 21.2 47 21.1 47 21.1 47 21 47 20.9 47 20.9 47 20.8 47 20.7 46.9 20.7 46.9 20.6 46.8 20.6 46.8 20.5 46.8 20.5 46.7 20.4 46.7 20.3 46.6 20.3 46.5 20.2 46.5 20.2 46.4 20.1 46.3 20 46.2 20 46.1 19.9 46.1 19.9 46 19.8 45.9 19.8 45.8 19.8 45.7 19.7 45.6 19.7 45.5 19.6 45.4 19.6 45.3 19.6 45.2 19.5 45.1 19.5 45 19.5 44.9 19.5 44.8 19.5 44.7 19.4 44.6 19.4 44.5 19.4 44.4 19.4 44.3 19.4 44.2 19.4 44.1 19.4 44 19.4 43.9 19.4 43.9 19.4 43.9 19.4 43.9 19.4 43.8 19.4 43.8 19.4 43.8 19.4 43.8 19.4 43.8 19.4 43.7 19.4 43.7 19.4 43.7 19.4 43.7 19.4 43.6 19.4 43.6 19.4 43.6 19.4 43.5 19.4 43.5 19.4 43.5 19.4 43.5 19.4 43.5 19.4 43.4 19.4 43.4 19.4 43.4 19.4 43.3 19.4 43.3 19.4 43.3 19.4 43.3 19.4 43.3 19.3 43.3 19.3 43.2 19.3 43.2 19.3 43.2 19.2 43.2 19.2 43.2 19.2 43.3 19.2 43.3 19.1 43.4 19.1 43.5 19 43.5 19 43.6 19 43.7 18.9 43.8 18.9 43.9 18.8 43.9 18.8 44 18.8 44.1 18.8 44.2 18.8 44.3 18.8 44.4 18.7 44.4 18.7 44.5 18.7 44.6 18.7 44.7 18.7 44.8 18.7 44.9 18.7 45 18.7 45 18.7 45.1 18.7 45.2 18.7 45.3 18.8 45.4 18.8 45.5 18.8 45.5 18.8 45.6 18.8 45.7 18.8 45.8 18.9 45.8 18.9 45.8 18.9 45.9 18.9 45.9 18.9 46 19 46 19 46.1 19 46.1 19 46.2 19 46.2 19.1 46.3 19.1 46.3 19.2 46.4 19.2 46.4 19.2 46.5 19.2 46.5 19.2 46.5 19.3 46.6 19.3 46.6 19.3 46.7 19.3 46.7 19.4 46.8 19.4 46.8 19.4 46.8 19.5 46.9 19.5 46.9 19.5 47 19.6 47 19.6 47 19.6 47.1 19.7 47.1 19.7 47.1 19.7 47.2 19.7"/><polygon class="cls-1" points="36.6 22.7 36.6 22.7 36.6 22.7 36.6 22.7 36.6 22.8 36.7 22.8 36.7 22.8 36.6 22.8 36.7 22.8 36.6 22.9 36.7 22.9 36.7 22.9 36.6 23 36.6 23 36.6 23 36.6 23 36.6 23.1 36.6 23.1 36.6 23.1 36.6 23.1 36.6 23.2 36.6 23.2 36.6 23.2 36.5 23.2 36.5 23.3 36.5 23.3 36.5 23.3 36.5 23.3 36.5 23.3 36.5 23.4 36.5 23.4 36.4 23.4 36.4 23.4 36.4 23.4 36.4 23.4 36.4 23.4 36.4 23.4 36.3 23.4 36.3 23.5 36.3 23.5 36.3 23.5 36.3 23.5 36.3 23.5 36.3 23.5 36.2 23.5 36.2 23.5 36.2 23.5 36.2 23.5 36.2 23.5 36.2 23.5 36.2 23.5 36.1 23.5 36.1 23.5 36.1 23.4 36.1 23.5 36.1 23.4 36.1 23.4 36.1 23.4 36 23.4 36 23.4 36 23.4 36 23.4 36 23.4 36 23.4 36 23.4 36 23.3 36 23.3 36 23.3 36 23.3 36 23.3 36 23.3 36 23.2 36 23.2 36 23.2 36 23.2 36 23.2 36 23.2 36 23.1 36 23.1 36 23.1 36 23 36 23 36.1 23 36.1 23 36.1 23 36.1 23 36.1 22.9 36.1 22.9 36.1 22.9 36.1 22.9 36.2 22.8 36.2 22.8 36.2 22.8 36.2 22.8 36.2 22.8 36.2 22.7 36.2 22.7 36.2 22.7 36.2 22.7 36.2 22.7 36.2 22.7 36.2 22.7 36.2 22.6 36.2 22.6 36.2 22.6 36.2 22.6 36.2 22.5 36.2 22.5 36.2 22.5 36.2 22.5 36.2 22.5 36.2 22.4 36.2 22.4 36.2 22.4 36.2 22.4 36.2 22.4 36.2 22.3 36.2 22.3 36.2 22.3 36.2 22.3 36.2 22.3 36.2 22.2 36.2 22.2 36.2 22.2 36.2 22.2 36.2 22.2 36.2 22.1 36.2 22.1 36.2 22.1 36.2 22.1 36.2 22.1 36.2 22 36.2 22 36.2 22.1 36.2 22.1 36.2 22.1 36.3 22.1 36.3 22.1 36.3 22.1 36.3 22.2 36.3 22.2 36.4 22.2 36.4 22.2 36.4 22.2 36.4 22.2 36.4 22.3 36.5 22.3 36.5 22.3 36.5 22.3 36.5 22.3 36.5 22.3 36.5 22.3 36.5 22.4 36.5 22.4 36.6 22.4 36.6 22.4 36.6 22.5 36.6 22.5 36.6 22.5 36.6 22.5 36.6 22.6 36.6 22.6 36.6 22.6 36.6 22.6 36.6 22.7"/><polygon class="cls-1" points="41.6 21.4 41.6 21.5 41.6 21.5 41.6 21.5 41.6 21.5 41.6 21.6 41.6 21.6 41.6 21.6 41.6 21.6 41.6 21.7 41.6 21.7 41.5 21.7 41.6 21.7 41.5 21.8 41.5 21.8 41.5 21.8 41.5 21.8 41.5 21.9 41.5 21.9 41.5 21.9 41.5 21.9 41.5 22 41.5 22 41.5 22 41.5 22 41.5 22 41.5 22.1 41.4 22.1 41.4 22.1 41.4 22.1 41.4 22.1 41.4 22.2 41.4 22.2 41.4 22.2 41.4 22.2 41.3 22.2 41.3 22.2 41.3 22.2 41.3 22.2 41.3 22.2 41.3 22.2 41.3 22.2 41.3 22.2 41.2 22.2 41.2 22.2 41.2 22.2 41.2 22.2 41.2 22.2 41.2 22.2 41.2 22.2 41.2 22.2 41.2 22.2 41.2 22.2 41.1 22.2 41.1 22.2 41.1 22.2 41.1 22.2 41.1 22.2 41.1 22.2 41.1 22.1 41.1 22.1 41.1 22.1 41.1 22.1 41.1 22.1 41.1 22.1 41.1 22 41.1 22 41 22 41 22 41.1 21.9 41 21.9 41 21.8 41.1 21.8 41.1 21.8 41.1 21.7 41.1 21.7 41.1 21.6 41.1 21.6 41.1 21.5 41.1 21.5 41.1 21.5 41.1 21.4 41.1 21.4 41.1 21.3 41.2 21.3 41.2 21.2 41.2 21.2 41.2 21.1 41.2 21.1 41.2 21 41.2 21 41.2 20.9 41.2 20.9 41.2 20.8 41.2 20.8 41.1 20.8 41.1 20.7 41.1 20.6 41.1 20.6 41.1 20.6 41.1 20.6 41.1 20.6 41.2 20.7 41.2 20.7 41.2 20.7 41.2 20.7 41.2 20.7 41.3 20.8 41.3 20.8 41.3 20.8 41.3 20.8 41.4 20.9 41.4 20.9 41.4 20.9 41.4 20.9 41.4 21 41.4 21 41.5 21 41.5 21.1 41.5 21.1 41.5 21.1 41.5 21.2 41.5 21.2 41.5 21.2 41.5 21.2 41.5 21.3 41.6 21.3 41.6 21.3 41.6 21.4 41.6 21.4 41.6 21.4 41.6 21.4"/><polygon class="cls-1" points="35.4 25.3 35.4 25.4 35.5 25.5 35.5 25.6 35.6 25.7 35.6 25.8 35.7 25.9 35.7 26 35.7 26.1 35.8 26.2 35.8 26.3 35.8 26.4 35.9 26.5 35.9 26.6 35.9 26.7 35.9 26.8 35.9 26.9 35.9 27 35.9 27.1 35.9 27.2 35.9 27.3 35.9 27.4 35.9 27.5 35.9 27.6 35.9 27.7 35.8 27.8 35.8 27.9 35.8 28 35.7 28 35.7 28.2 35.6 28.2 35.6 28.3 35.5 28.4 35.5 28.4 35.5 28.4 35.5 28.4 35.5 28.4 35.4 28.4 35.4 28.4 35.4 28.4 35.4 28.4 35.4 28.4 35.4 28.4 35.3 28.4 35.3 28.4 35.3 28.4 35.3 28.4 35.3 28.4 35.2 28.4 35.2 28.4 35.2 28.4 35.2 28.4 35.2 28.4 35.1 28.4 35.1 28.4 35.1 28.4 35.1 28.4 35.1 28.4 35.1 28.3 35.1 28.4 35 28.3 35 28.3 35 28.3 35 28.3 35 28.3 35 28.3 35 28.3 35 28.3 35 28.2 35 28.2 35 28.2 35 28.2 35 28.2 35 28.2 35 28.2 35 28.2 35 28.2 35 28.2 35 28.2 35 28.2 35 28.2 35 28.2 35 28.2 35 28.2 35 28.2 35 28.2 35 28.2 35 28.2 35 28.1 35 28.1 35 28.1 35 28.1 35 28.1 35 28.1 35.1 28.1 35.1 28.1 35.1 28.1 35.1 28.1 35.1 28.1 35.1 28.1 35.1 28 35.1 28 35.1 27.9 35.1 27.8 35.2 27.7 35.2 27.7 35.2 27.6 35.2 27.5 35.2 27.4 35.2 27.3 35.2 27.3 35.2 27.2 35.2 27.1 35.3 27 35.2 27 35.2 26.9 35.2 26.8 35.2 26.8 35.2 26.7 35.2 26.6 35.2 26.5 35.2 26.4 35.2 26.4 35.1 26.3 35.1 26.2 35.1 26.2 35.1 26.1 35.1 26 35 25.9 35 25.9 35 25.8 34.9 25.7 34.9 25.7 34.8 25.6 34.8 25.5 34.7 25.5 34.6 25.4 34.6 25.3 34.5 25.2 34.4 25.2 34.3 25.1 34.3 25 34.2 25 34.1 25 34 24.9 34 24.8 33.9 24.8 33.8 24.7 33.7 24.7 33.6 24.6 33.5 24.6 33.5 24.5 33.4 24.5 33.3 24.5 33.2 24.4 33.1 24.4 33 24.4 32.9 24.3 32.8 24.3 32.7 24.3 32.7 24.2 32.6 24.2 32.5 24.2 32.4 24.2 32.3 24.1 32.3 24.1 32.3 24.1 32.3 24.1 32.3 24.1 32.3 24.1 32.3 24 32.3 24 32.3 24 32.3 24 32.4 24 32.4 24 32.4 24 32.4 24 32.4 24 32.4 24 32.4 24 32.5 24 32.5 24 32.5 24 32.5 24 32.5 24 32.5 24 32.6 24 32.6 24 32.6 24 32.6 24 32.6 24 32.7 24 32.7 24 32.7 24 32.7 23.9 32.7 23.9 32.8 23.9 32.8 23.9 32.9 23.9 32.9 24 33 24 33.1 24 33.2 24 33.3 24 33.4 24 33.5 24 33.6 24 33.7 24.1 33.8 24.1 33.9 24.2 34 24.2 34.1 24.2 34.1 24.2 34.2 24.3 34.3 24.3 34.4 24.4 34.5 24.5 34.5 24.5 34.6 24.6 34.7 24.6 34.8 24.7 34.8 24.7 34.9 24.8 35 24.9 35 24.9 35.1 25 35.2 25.1 35.3 25.1 35.3 25.2 35.4 25.3"/><polygon class="cls-1" points="42.2 23.6 42.2 23.7 42.3 23.7 42.3 23.8 42.4 23.9 42.5 24 42.5 24 42.6 24.1 42.6 24.2 42.7 24.3 42.7 24.4 42.8 24.5 42.8 24.5 42.8 24.6 42.9 24.7 42.9 24.8 42.9 24.9 43 25 43 25.1 43 25.2 43 25.3 43 25.4 43.1 25.5 43.1 25.6 43.1 25.7 43.1 25.8 43.1 25.9 43.1 26 43.1 26.1 43.1 26.2 43 26.3 43 26.3 43 26.4 43 26.4 43 26.5 42.9 26.5 42.9 26.5 42.9 26.5 42.9 26.6 42.8 26.6 42.8 26.7 42.8 26.7 42.8 26.7 42.7 26.8 42.7 26.8 42.7 26.8 42.7 26.8 42.6 26.9 42.6 26.9 42.6 27 42.6 27 42.5 27 42.5 27 42.5 27.1 42.5 27.1 42.4 27.1 42.4 27.2 42.4 27.2 42.3 27.2 42.3 27.2 42.3 27.2 42.3 27.3 42.2 27.3 42.2 27.3 42.2 27.3 42.1 27.3 42.1 27.3 42.1 27.3 42.1 27.3 42.1 27.3 42 27.3 42 27.3 42 27.3 42 27.3 42 27.3 42 27.3 41.9 27.3 41.9 27.3 41.9 27.3 41.9 27.3 41.8 27.3 41.8 27.3 41.8 27.3 41.8 27.3 41.8 27.3 41.7 27.3 41.7 27.3 41.7 27.3 41.7 27.3 41.7 27.3 41.7 27.2 41.7 27.2 41.6 27.2 41.6 27.2 41.6 27.2 41.6 27.2 41.6 27.2 41.6 27.2 41.6 27.1 41.6 27.1 41.6 27.1 41.7 27.1 41.7 27 41.8 27 41.8 26.9 41.8 26.9 41.9 26.8 41.9 26.8 41.9 26.8 42 26.7 42 26.7 42 26.6 42 26.5 42 26.5 42.1 26.5 42.1 26.4 42.1 26.3 42.1 26.3 42.2 26.2 42.2 26.2 42.2 26.1 42.2 26 42.2 26 42.2 25.9 42.2 25.9 42.2 25.8 42.2 25.8 42.3 25.7 42.3 25.7 42.3 25.6 42.3 25.5 42.3 25.5 42.3 25.5 42.3 25.4 42.3 25.4 42.3 25.3 42.2 25.2 42.2 25.1 42.2 25.1 42.2 25 42.2 24.9 42.2 24.9 42.1 24.8 42.1 24.8 42.1 24.7 42 24.6 42 24.6 42 24.5 42 24.4 41.9 24.4 41.9 24.3 41.8 24.3 41.8 24.2 41.8 24.2 41.7 24.1 41.7 24.1 41.6 24 41.6 24 41.5 23.9 41.5 23.9 41.4 23.8 41.4 23.8 41.3 23.8 41.3 23.7 41.2 23.7 41.2 23.7 41.2 23.6 41.1 23.6 41 23.6 41 23.6 40.9 23.6 40.8 23.5 40.8 23.5 40.7 23.5 40.6 23.5 40.6 23.5 40.5 23.5 40.4 23.5 40.4 23.4 40.3 23.4 40.2 23.4 40.1 23.4 40.1 23.4 40 23.4 39.9 23.4 39.9 23.4 39.8 23.3 39.7 23.3 39.7 23.3 39.6 23.3 39.5 23.3 39.5 23.3 39.4 23.3 39.3 23.2 39.3 23.2 39.2 23.2 39.1 23.2 39.1 23.1 39.1 23.1 39.1 23.1 39.1 23.1 39.1 23.1 39.1 23.1 39.1 23.1 39.1 23.1 39.2 23 39.2 23 39.2 23 39.2 23 39.2 23 39.2 23 39.2 23 39.2 23 39.3 23 39.3 23 39.3 23 39.3 23 39.3 23 39.4 22.9 39.4 22.9 39.4 22.9 39.4 22.9 39.4 22.9 39.5 22.9 39.5 22.9 39.5 22.9 39.5 22.9 39.5 22.9 39.5 22.9 39.5 22.8 39.6 22.8 39.6 22.8 39.6 22.8 39.7 22.8 39.8 22.8 39.9 22.8 40 22.8 40.1 22.8 40.2 22.8 40.3 22.8 40.4 22.8 40.5 22.8 40.5 22.8 40.6 22.8 40.7 22.8 40.8 22.8 40.9 22.9 41 22.9 41 22.9 41.2 22.9 41.2 23 41.3 23 41.4 23 41.5 23.1 41.5 23.1 41.6 23.2 41.7 23.2 41.8 23.3 41.8 23.3 41.9 23.4 42 23.4 42 23.5 42.1 23.5 42.2 23.6"/><polygon class="cls-1" points="46.3 23.4 46.3 23.5 46.3 23.5 46.3 23.6 46.3 23.7 46.3 23.7 46.4 23.8 46.4 23.9 46.4 23.9 46.4 24 46.5 24 46.5 24.1 46.5 24.2 46.5 24.2 46.5 24.3 46.5 24.4 46.6 24.4 46.6 24.5 46.6 24.6 46.6 24.6 46.6 24.7 46.6 24.8 46.6 24.8 46.6 24.9 46.6 25 46.6 25 46.5 25.1 46.5 25.1 46.5 25.2 46.5 25.3 46.5 25.3 46.4 25.4 46.4 25.4 46.4 25.4 46.4 25.5 46.3 25.6 46.3 25.6 46.2 25.7 46.2 25.8 46.2 25.8 46.1 25.9 46.1 26 46 26 45.9 26.1 45.9 26.1 45.8 26.2 45.8 26.2 45.7 26.3 45.6 26.3 45.6 26.3 45.5 26.4 45.4 26.4 45.4 26.5 45.3 26.5 45.2 26.5 45.1 26.6 45 26.6 45 26.6 44.9 26.7 44.8 26.7 44.7 26.7 44.7 26.7 44.6 26.7 44.5 26.7 44.4 26.7 44.3 26.7 44.3 26.7 44.3 26.7 44.3 26.7 44.3 26.7 44.3 26.7 44.3 26.7 44.3 26.7 44.2 26.7 44.2 26.7 44.2 26.7 44.2 26.7 44.2 26.7 44.2 26.7 44.2 26.7 44.1 26.7 44.1 26.7 44.1 26.7 44.1 26.7 44.1 26.7 44.1 26.7 44.1 26.7 44.1 26.7 44 26.6 44 26.7 44 26.6 44 26.6 44 26.6 44 26.6 44 26.6 44 26.6 44 26.6 44 26.6 43.9 26.6 43.9 26.6 43.9 26.6 43.9 26.6 43.9 26.6 43.9 26.5 43.9 26.5 43.9 26.5 43.9 26.5 43.9 26.5 43.9 26.5 43.9 26.5 43.9 26.5 43.9 26.5 43.9 26.5 43.9 26.5 43.9 26.5 43.9 26.5 43.9 26.5 43.9 26.5 43.9 26.5 43.9 26.5 43.9 26.5 43.9 26.5 43.9 26.4 43.9 26.4 43.9 26.4 43.9 26.4 43.9 26.4 43.9 26.4 43.9 26.4 43.9 26.4 43.9 26.4 43.9 26.4 43.9 26.4 44 26.3 44.1 26.3 44.2 26.2 44.3 26.2 44.3 26.1 44.4 26.1 44.5 26 44.6 26 44.7 25.9 44.7 25.8 44.8 25.8 44.9 25.7 45 25.7 45 25.6 45.1 25.5 45.1 25.4 45.2 25.3 45.2 25.3 45.3 25.2 45.3 25.1 45.4 25 45.4 25 45.5 24.9 45.5 24.8 45.5 24.7 45.5 24.6 45.6 24.5 45.6 24.4 45.6 24.3 45.6 24.2 45.6 24.1 45.6 24 45.6 24 45.5 24 45.5 23.9 45.5 23.8 45.5 23.8 45.4 23.7 45.4 23.6 45.3 23.6 45.3 23.5 45.3 23.5 45.2 23.4 45.2 23.4 45.1 23.3 45.1 23.3 45 23.3 45 23.2 44.9 23.2 44.9 23.1 44.8 23.1 44.7 23 44.7 23 44.6 23 44.6 22.9 44.5 22.9 44.5 22.8 44.4 22.8 44.3 22.7 44.3 22.7 44.2 22.7 44.2 22.6 44.2 22.5 44.1 22.5 44 22.4 44 22.4 44 22.4 44 22.4 44 22.4 44 22.4 44 22.4 44 22.3 43.9 22.3 43.9 22.3 43.9 22.3 43.9 22.3 43.8 22.3 43.8 22.2 43.8 22.2 43.8 22.2 43.8 22.2 43.7 22.2 43.7 22.2 43.7 22.2 43.7 22.2 43.7 22.2 43.7 22.1 43.6 22.1 43.6 22.1 43.6 22.1 43.6 22.1 43.6 22 43.6 22 43.6 22 43.5 22 43.5 22 43.5 21.9 43.6 21.9 43.6 21.9 43.7 21.9 43.8 21.9 43.9 21.9 44 21.8 44.1 21.9 44.2 21.9 44.3 21.9 44.4 21.9 44.5 21.9 44.6 22 44.7 22 44.8 22 44.8 22.1 44.9 22.1 45 22.2 45.1 22.2 45.2 22.3 45.3 22.3 45.4 22.4 45.5 22.4 45.5 22.5 45.6 22.6 45.7 22.7 45.8 22.7 45.8 22.8 45.9 22.9 46 23 46 23 46.1 23.1 46.1 23.2 46.2 23.3 46.3 23.4"/><polygon class="cls-1" points="32.2 28 32.2 28 32.3 28 32.3 28 32.4 28 32.4 28 32.4 28.1 32.5 28.1 32.5 28.1 32.5 28.1 32.6 28.2 32.6 28.2 32.6 28.2 32.7 28.2 32.7 28.2 32.8 28.3 32.8 28.3 32.8 28.3 32.9 28.3 32.9 28.3 32.9 28.4 33 28.4 33 28.4 33 28.4 33.1 28.4 33.1 28.4 33.1 28.4 33.2 28.4 33.2 28.4 33.3 28.4 33.3 28.4 33.3 28.4 33.4 28.4 33.4 28.4 33.4 28.4 33.4 28.4 33.4 28.5 33.4 28.5 33.4 28.5 33.4 28.5 33.4 28.5 33.5 28.5 33.5 28.5 33.5 28.5 33.5 28.6 33.5 28.6 33.5 28.6 33.5 28.6 33.5 28.6 33.5 28.6 33.5 28.6 33.5 28.6 33.5 28.6 33.5 28.7 33.5 28.7 33.5 28.7 33.5 28.7 33.5 28.7 33.5 28.7 33.5 28.7 33.5 28.7 33.5 28.8 33.5 28.8 33.5 28.8 33.5 28.8 33.5 28.8 33.5 28.8 33.5 28.8 33.4 28.8 33.4 28.9 33.3 28.9 33.2 28.9 33.2 28.9 33.1 28.9 33.1 28.9 33 28.9 33 28.8 32.9 28.8 32.9 28.8 32.8 28.8 32.8 28.8 32.7 28.8 32.7 28.8 32.6 28.8 32.6 28.7 32.5 28.7 32.5 28.7 32.4 28.7 32.4 28.7 32.3 28.6 32.3 28.6 32.2 28.5 32.2 28.5 32.1 28.5 32.1 28.5 32.1 28.4 32 28.4 32 28.3 32 28.3 32 28.3 31.9 28.3 31.9 28.2 31.9 28.2 31.9 28.2 31.9 28.2 31.9 28.1 31.8 28.1 31.8 28.1 31.8 28 31.8 28 31.8 28 31.7 28 31.7 27.9 31.7 27.9 31.7 27.9 31.7 27.8 31.6 27.8 31.6 27.8 31.6 27.8 31.6 27.7 31.6 27.7 31.5 27.7 31.5 27.7 31.5 27.6 31.5 27.6 31.5 27.5 31.5 27.5 31.5 27.5 31.4 27.4 31.4 27.4 31.4 27.4 31.4 27.3 31.4 27.3 31.4 27.3 31.5 27.4 31.5 27.4 31.5 27.4 31.5 27.4 31.6 27.4 31.6 27.4 31.6 27.5 31.7 27.5 31.7 27.5 31.7 27.5 31.8 27.5 31.8 27.5 31.8 27.5 31.8 27.6 31.9 27.6 31.9 27.6 31.9 27.6 31.9 27.6 32 27.7 32 27.7 32 27.7 32 27.7 32.1 27.7 32.1 27.8 32.1 27.8 32.1 27.8 32.1 27.8 32.2 27.9 32.2 27.9 32.2 27.9 32.2 28"/><polygon class="cls-1" points="44.7 24.4 44.7 24.5 44.7 24.5 44.6 24.5 44.7 24.5 44.6 24.5 44.6 24.5 44.6 24.5 44.6 24.5 44.6 24.6 44.6 24.6 44.6 24.6 44.6 24.6 44.6 24.6 44.6 24.6 44.6 24.7 44.6 24.7 44.6 24.7 44.6 24.7 44.6 24.7 44.6 24.7 44.6 24.7 44.5 24.8 44.5 24.8 44.5 24.8 44.5 24.8 44.5 24.8 44.5 24.8 44.5 24.8 44.5 24.8 44.5 24.8 44.4 24.8 44.4 24.8 44.4 24.8 44.4 24.8 44.4 24.8 44.4 24.8 44.4 24.8 44.4 24.8 44.4 24.8 44.3 24.9 44.3 24.9 44.3 24.9 44.3 24.8 44.3 24.8 44.3 24.8 44.3 24.9 44.3 24.9 44.2 24.8 44.2 24.8 44.2 24.8 44.2 24.8 44.2 24.8 44.2 24.8 44.2 24.8 44.2 24.8 44.2 24.8 44.2 24.8 44.2 24.8 44.2 24.8 44.1 24.8 44.1 24.8 44.1 24.8 44.1 24.8 44.1 24.8 44.1 24.8 44.1 24.8 44.1 24.8 44.1 24.8 44.1 24.7 44.1 24.7 44.1 24.7 44.1 24.7 44.1 24.7 44.1 24.7 44.1 24.7 44.1 24.7 44.1 24.7 44.1 24.7 44.1 24.7 44.1 24.7 44.1 24.7 44.1 24.6 44.1 24.6 44.1 24.6 44.1 24.6 44.2 24.6 44.2 24.6 44.2 24.6 44.2 24.6 44.2 24.6 44.2 24.6 44.2 24.6 44.2 24.6 44.2 24.6 44.3 24.6 44.3 24.6 44.3 24.5 44.3 24.5 44.3 24.5 44.3 24.5 44.3 24.5 44.3 24.5 44.3 24.5 44.3 24.5 44.3 24.4 44.3 24.4 44.3 24.4 44.3 24.4 44.3 24.4 44.3 24.3 44.3 24.3 44.4 24.3 44.3 24.3 44.4 24.3 44.4 24.2 44.4 24.2 44.4 24.2 44.4 24.2 44.4 24.2 44.4 24.1 44.4 24.1 44.4 24.1 44.4 24.1 44.4 24 44.4 24 44.4 24 44.4 24 44.4 24 44.4 23.9 44.4 23.9 44.4 23.9 44.4 23.9 44.4 23.9 44.4 23.9 44.5 24 44.5 24 44.5 24 44.5 24 44.5 24 44.5 24 44.5 24 44.5 24 44.5 24.1 44.5 24.1 44.6 24.1 44.6 24.1 44.6 24.1 44.6 24.2 44.6 24.2 44.6 24.2 44.6 24.2 44.6 24.2 44.6 24.2 44.7 24.2 44.6 24.3 44.6 24.3 44.7 24.3 44.7 24.3 44.7 24.3 44.7 24.4 44.7 24.4 44.7 24.4 44.7 24.4 44.7 24.4"/><polygon class="cls-1" points="40.3 26.8 40.3 26.9 40.3 26.9 40.3 26.9 40.3 26.9 40.4 26.9 40.4 26.9 40.4 26.9 40.4 26.9 40.4 26.9 40.4 26.9 40.4 26.9 40.5 27 40.5 27 40.5 27 40.5 27 40.5 27 40.5 27 40.5 27 40.5 27 40.5 27 40.5 27 40.5 27 40.5 27.1 40.5 27.1 40.5 27.1 40.6 27.1 40.6 27.1 40.6 27.1 40.6 27.1 40.6 27.1 40.6 27.2 40.6 27.2 40.6 27.2 40.5 27.2 40.5 27.2 40.5 27.2 40.5 27.3 40.4 27.3 40.4 27.3 40.4 27.3 40.3 27.3 40.3 27.3 40.3 27.3 40.2 27.4 40.2 27.4 40.2 27.4 40.1 27.4 40.1 27.4 40.1 27.4 40 27.4 40 27.4 39.9 27.4 39.9 27.4 39.8 27.3 39.8 27.3 39.8 27.3 39.7 27.3 39.7 27.3 39.7 27.3 39.6 27.3 39.6 27.3 39.5 27.3 39.5 27.3 39.5 27.3 39.4 27.3 39.4 27.3 39.4 27.3 39.4 27.2 39.3 27.2 39.3 27.2 39.3 27.2 39.3 27.2 39.2 27.2 39.2 27.1 39.2 27.1 39.2 27.1 39.1 27.1 39.1 27 39.1 27 39 27 39 27 39 26.9 39 26.9 39 26.9 38.9 26.9 38.9 26.8 38.9 26.8 38.8 26.8 38.8 26.8 38.8 26.7 38.8 26.7 38.8 26.7 38.8 26.6 38.8 26.6 38.7 26.6 38.7 26.5 38.7 26.5 38.7 26.4 38.7 26.4 38.8 26.5 38.8 26.5 38.8 26.5 38.9 26.6 38.9 26.6 39 26.6 39 26.7 39.1 26.7 39.1 26.7 39.2 26.8 39.2 26.8 39.3 26.8 39.3 26.8 39.4 26.8 39.4 26.9 39.5 26.9 39.5 26.9 39.6 26.9 39.6 26.9 39.7 26.9 39.7 26.9 39.8 26.9 39.8 27 39.9 27 39.9 26.9 40 26.9 40 26.9 40.1 26.9 40.2 26.9 40.2 26.9 40.3 26.9 40.3 26.8"/><polygon class="cls-1" points="16.9 37.2 17 37.2 17 37.2 17 37.2 17.1 37.2 17.1 37.2 17.1 37.2 17.2 37.1 17.2 37.1 17.2 37.1 17.3 37.1 17.3 37.1 17.4 37.1 17.4 37.1 17.4 37.1 17.4 37.1 17.5 37 17.5 37 17.6 37 17.6 37 17.6 37 17.6 37 17.7 37 17.7 37 17.7 36.9 17.8 36.9 17.8 36.9 17.8 36.9 17.8 36.9 17.9 36.9 17.9 36.8 17.9 36.8 17.9 36.8 17.9 36.8 18 36.9 17.9 36.9 17.9 37 17.9 37 17.9 37.1 17.9 37.2 17.9 37.2 17.8 37.2 17.8 37.3 17.8 37.3 17.7 37.4 17.7 37.4 17.6 37.4 17.6 37.5 17.6 37.5 17.5 37.5 17.4 37.6 17.4 37.6 17.4 37.6 17.3 37.7 17.2 37.7 17.2 37.7 17.1 37.7 17.1 37.8 17 37.8 17 37.8 17 37.9 16.9 37.9 16.9 37.9 16.8 37.9 16.8 38 16.7 38 16.7 38 16.6 38.1 16.4 38.2 16.3 38.2 16.1 38.3 16 38.3 15.8 38.4 15.7 38.4 15.5 38.5 15.4 38.5 15.2 38.5 15.1 38.6 14.9 38.6 14.8 38.6 14.6 38.6 14.5 38.6 14.3 38.6 14.2 38.6 14 38.6 13.9 38.6 13.7 38.6 13.6 38.6 13.4 38.5 13.3 38.5 13.1 38.5 13 38.4 12.9 38.4 12.7 38.3 12.6 38.3 12.4 38.2 12.3 38.2 12.1 38.1 12 38.1 12 38.1 12 38.1 12 38 11.9 38 11.9 38 11.9 37.9 11.9 37.9 11.8 37.9 11.8 37.9 11.8 37.9 11.7 37.8 11.7 37.8 11.7 37.8 11.6 37.8 11.6 37.7 11.6 37.7 11.6 37.7 11.5 37.7 11.5 37.6 11.5 37.6 11.5 37.6 11.4 37.6 11.4 37.5 11.4 37.5 11.4 37.4 11.3 37.4 11.3 37.4 11.3 37.4 11.3 37.3 11.3 37.3 11.2 37.3 11.2 37.2 11.2 37.2 11.2 37.2 11.2 37.2 11.2 37.2 11.2 37.2 11.2 37.2 11.2 37.2 11.2 37.2 11.2 37.2 11.2 37.2 11.2 37.2 11.2 37.2 11.2 37.1 11.2 37.1 11.2 37.1 11.2 37.1 11.2 37.1 11.2 37.1 11.2 37.1 11.2 37.1 11.2 37.1 11.2 37.1 11.3 37.1 11.3 37.1 11.3 37.1 11.3 37.1 11.3 37.1 11.3 37.1 11.3 37.1 11.3 37.1 11.3 37.1 11.3 37.1 11.3 37.1 11.3 37.1 11.3 37.1 11.5 37.1 11.6 37.1 11.8 37.1 12 37.2 12.1 37.2 12.3 37.2 12.5 37.2 12.7 37.3 12.9 37.3 13 37.3 13.2 37.3 13.4 37.3 13.6 37.3 13.7 37.4 13.9 37.4 14.1 37.4 14.3 37.4 14.4 37.4 14.6 37.4 14.8 37.4 15 37.4 15.1 37.4 15.3 37.4 15.5 37.4 15.7 37.4 15.9 37.4 16 37.3 16.2 37.3 16.4 37.3 16.6 37.3 16.8 37.3 16.9 37.2"/><polygon class="cls-1" points="21.4 37.3 21.5 37.3 21.6 37.3 21.7 37.3 21.8 37.3 21.9 37.3 22 37.2 22.1 37.2 22.2 37.2 22.3 37.2 22.4 37.2 22.5 37.2 22.6 37.2 22.7 37.2 22.8 37.2 22.9 37.2 23 37.2 23.1 37.2 23.2 37.1 23.4 37.1 23.5 37.1 23.6 37.1 23.7 37.1 23.8 37.1 23.9 37.1 24 37.1 24.1 37.1 24.2 37.1 24.3 37.1 24.4 37.1 24.5 37.1 24.6 37 24.7 37 24.7 37 24.7 37 24.7 37.1 24.8 37.1 24.8 37.1 24.8 37.1 24.8 37.1 24.8 37.1 24.8 37.1 24.8 37.1 24.8 37.1 24.8 37.1 24.8 37.2 24.8 37.2 24.9 37.2 24.9 37.2 24.9 37.2 24.9 37.2 24.9 37.2 24.9 37.2 24.8 37.3 24.8 37.3 24.8 37.3 24.8 37.3 24.8 37.3 24.8 37.3 24.8 37.3 24.8 37.4 24.8 37.4 24.8 37.4 24.8 37.4 24.8 37.4 24.8 37.4 24.8 37.4 24.6 37.5 24.5 37.6 24.4 37.6 24.3 37.7 24.2 37.7 24.1 37.8 24 37.9 23.9 37.9 23.7 38 23.6 38 23.5 38.1 23.4 38.1 23.2 38.1 23.1 38.2 23 38.2 22.9 38.2 22.7 38.3 22.6 38.3 22.5 38.3 22.4 38.3 22.2 38.3 22.1 38.3 22 38.3 21.8 38.3 21.7 38.3 21.6 38.3 21.5 38.3 21.4 38.2 21.3 38.2 21.1 38.2 21 38.2 20.9 38.1 20.9 38.1 20.9 38.1 20.9 38.1 20.9 38.1 20.8 38.1 20.8 38.1 20.8 38.1 20.8 38.1 20.8 38.1 20.7 38.1 20.7 38.1 20.7 38 20.6 38 20.6 38 20.6 38 20.6 38 20.6 38 20.6 38 20.5 38 20.5 37.9 20.5 37.9 20.5 37.9 20.5 37.9 20.5 37.9 20.4 37.9 20.4 37.9 20.4 37.9 20.4 37.9 20.4 37.9 20.3 37.8 20.3 37.8 20.3 37.8 20.3 37.8 20.3 37.8 20.2 37.8 20.2 37.8 20.2 37.8 20.2 37.8 20.1 37.8 20.1 37.8 20.1 37.7 20.1 37.7 20.1 37.7 20 37.7 20 37.7 20 37.7 20 37.6 20 37.6 20 37.6 19.9 37.6 19.9 37.6 19.9 37.5 19.9 37.5 19.9 37.5 19.9 37.5 19.9 37.4 19.9 37.4 19.8 37.4 19.8 37.4 19.8 37.4 19.8 37.3 19.8 37.3 19.8 37.3 19.8 37.3 19.8 37.2 19.7 37.2 19.7 37.2 19.8 37.2 19.8 37.2 19.9 37.2 19.9 37.2 20 37.2 20 37.2 20.1 37.2 20.1 37.2 20.2 37.2 20.2 37.2 20.3 37.2 20.4 37.2 20.4 37.3 20.5 37.3 20.5 37.3 20.5 37.3 20.6 37.3 20.6 37.3 20.7 37.3 20.8 37.3 20.8 37.3 20.9 37.3 20.9 37.3 21 37.3 21 37.3 21.1 37.3 21.1 37.3 21.2 37.3 21.2 37.3 21.2 37.3 21.3 37.3 21.4 37.3"/><polygon class="cls-1" points="18.5 40.4 18.5 40.4 18.6 40.5 18.6 40.5 18.6 40.5 18.6 40.5 18.6 40.6 18.6 40.6 18.6 40.6 18.6 40.6 18.6 40.6 18.6 40.6 18.6 40.7 18.5 40.7 18.5 40.7 18.5 40.7 18.5 40.7 18.5 40.7 18.5 40.8 18.4 40.8 18.4 40.8 18.4 40.8 18.4 40.8 18.4 40.8 18.3 40.8 18.3 40.8 18.3 40.8 18.3 40.9 18.2 40.9 18.2 40.9 18.2 40.9 18.2 40.9 18.2 40.9 18.2 40.9 18.1 41 17.9 41.1 17.8 41.2 17.6 41.3 17.4 41.4 17.3 41.4 17.1 41.5 17 41.6 16.8 41.6 16.7 41.6 16.5 41.7 16.3 41.7 16.2 41.7 16 41.8 15.9 41.8 15.7 41.8 15.5 41.8 15.4 41.8 15.2 41.8 15 41.8 14.9 41.8 14.7 41.8 14.6 41.7 14.4 41.7 14.2 41.7 14.1 41.7 13.9 41.6 13.8 41.6 13.6 41.5 13.5 41.5 13.4 41.4 13.2 41.3 13.2 41.3 13.1 41.3 13.1 41.3 13 41.3 13 41.3 12.9 41.2 12.8 41.2 12.8 41.2 12.7 41.1 12.7 41.1 12.6 41.1 12.6 41.1 12.5 41 12.5 41 12.4 40.9 12.4 40.9 12.4 40.8 12.3 40.8 12.3 40.8 12.2 40.7 12.2 40.7 12.1 40.7 12.1 40.6 12.1 40.6 12 40.5 12 40.5 11.9 40.4 11.9 40.4 11.9 40.3 11.8 40.3 11.8 40.3 11.7 40.2 11.7 40.2 11.7 40.2 11.7 40.2 11.7 40.1 11.6 40.1 11.6 40.1 11.6 40.1 11.6 40.1 11.6 40.1 11.6 40 11.6 40 11.6 40 11.6 40 11.7 40 11.7 40 11.7 40.1 11.7 40.1 11.7 40.1 11.7 40.1 11.8 40.1 11.8 40.1 11.8 40.1 11.8 40.1 11.8 40.1 11.8 40.1 11.9 40.1 11.9 40.1 11.9 40.2 11.9 40.2 11.9 40.2 12 40.2 12 40.2 12 40.2 12 40.2 12 40.2 12.2 40.2 12.4 40.2 12.6 40.3 12.8 40.3 13 40.3 13.2 40.4 13.4 40.4 13.6 40.4 13.8 40.4 14 40.4 14.2 40.4 14.4 40.4 14.6 40.5 14.8 40.5 15 40.5 15.2 40.5 15.4 40.5 15.6 40.5 15.9 40.5 16.1 40.5 16.3 40.5 16.5 40.5 16.7 40.5 16.9 40.5 17.1 40.5 17.3 40.5 17.5 40.4 17.7 40.4 17.9 40.4 18.1 40.4 18.3 40.4 18.5 40.4"/><polygon class="cls-1" points="31.8 35.4 31.8 35.4 31.8 35.5 31.8 35.5 31.8 35.5 31.8 35.5 31.8 35.5 31.8 35.5 31.8 35.5 31.8 35.5 31.8 35.5 31.8 35.5 31.8 35.5 31.8 35.5 31.8 35.5 31.8 35.5 31.8 35.5 31.8 35.5 31.8 35.5 31.8 35.6 31.8 35.6 31.8 35.6 31.8 35.6 31.8 35.6 31.8 35.6 31.8 35.6 31.8 35.6 31.8 35.6 31.8 35.6 31.8 35.6 31.8 35.6 31.8 35.7 31.8 35.7 31.8 35.7 31.8 35.7 31.8 35.7 31.7 35.8 31.7 35.8 31.7 35.8 31.7 35.8 31.6 35.8 31.6 35.9 31.6 35.9 31.5 35.9 31.5 35.9 31.5 36 31.4 36 31.4 36 31.4 36 31.3 36 31.3 36.1 31.3 36.1 31.2 36.1 31.2 36.2 31.2 36.2 31.2 36.2 31.1 36.2 31.1 36.2 31.1 36.2 31 36.3 31 36.3 31 36.3 30.9 36.3 30.9 36.3 30.9 36.3 30.8 36.4 30.8 36.4 30.8 36.4 30.7 36.4 30.6 36.4 30.6 36.5 30.5 36.5 30.5 36.5 30.4 36.6 30.3 36.6 30.3 36.6 30.2 36.6 30.2 36.7 30.1 36.7 30 36.7 30 36.7 29.9 36.8 29.9 36.8 29.8 36.8 29.7 36.8 29.7 36.8 29.6 36.9 29.5 36.9 29.5 36.9 29.4 36.9 29.4 37 29.3 37 29.2 37 29.2 37 29.1 37 29 37 29 37.1 28.9 37.1 28.9 37.1 28.9 37.1 28.8 37 28.7 37 28.7 37 28.6 36.9 28.5 36.9 28.5 36.9 28.4 36.9 28.4 36.8 28.3 36.8 28.2 36.8 28.2 36.8 28.1 36.8 28 36.8 28 36.7 27.9 36.7 27.9 36.7 27.8 36.7 27.7 36.7 27.7 36.6 27.6 36.6 27.6 36.6 27.5 36.5 27.5 36.5 27.5 36.5 27.4 36.4 27.4 36.4 27.4 36.3 27.3 36.2 27.3 36.2 27.3 36.1 27.3 36 27.2 36 27.2 36 27.4 36 27.5 36 27.7 36 27.8 36 27.9 36.1 28.1 36.1 28.2 36 28.4 36 28.5 36 28.6 36 28.8 36 28.9 36 29.1 36 29.2 36 29.4 35.9 29.5 35.9 29.6 35.9 29.8 35.8 29.9 35.8 30.1 35.8 30.2 35.7 30.4 35.7 30.5 35.7 30.6 35.6 30.8 35.6 30.9 35.6 31.1 35.5 31.2 35.5 31.4 35.5 31.5 35.5 31.6 35.5 31.8 35.4"/><polygon class="cls-1" points="21.1 40.3 21.2 40.3 21.3 40.2 21.5 40.2 21.6 40.2 21.7 40.2 21.9 40.2 22 40.2 22.1 40.2 22.3 40.1 22.4 40.1 22.5 40.1 22.7 40.1 22.8 40.1 23 40 23.1 40 23.2 40 23.4 40 23.5 40 23.7 39.9 23.8 39.9 23.9 39.9 24.1 39.9 24.2 39.8 24.3 39.8 24.5 39.8 24.6 39.8 24.7 39.8 24.9 39.8 25 39.7 25.1 39.7 25.3 39.7 25.4 39.7 25.4 39.7 25.4 39.7 25.4 39.7 25.4 39.7 25.4 39.7 25.4 39.7 25.4 39.7 25.4 39.7 25.4 39.7 25.4 39.7 25.4 39.7 25.4 39.7 25.4 39.7 25.5 39.8 25.5 39.8 25.5 39.8 25.5 39.8 25.5 39.8 25.5 39.8 25.5 39.8 25.5 39.8 25.5 39.8 25.5 39.8 25.5 39.8 25.5 39.8 25.5 39.8 25.5 39.8 25.5 39.8 25.5 39.8 25.5 39.8 25.5 39.8 25.5 39.8 25.5 39.8 25.5 39.8 25.4 39.9 25.3 40 25.3 40.1 25.2 40.1 25.1 40.2 25 40.2 24.9 40.3 24.8 40.4 24.8 40.4 24.6 40.5 24.6 40.5 24.5 40.6 24.4 40.6 24.3 40.7 24.2 40.7 24.1 40.8 24 40.8 23.9 40.8 23.8 40.9 23.7 40.9 23.5 41 23.5 41 23.3 41 23.2 41.1 23.1 41.1 23 41.1 22.9 41.1 22.8 41.1 22.7 41.2 22.6 41.2 22.5 41.2 22.4 41.2 22.4 41.2 22.3 41.2 22.3 41.2 22.2 41.2 22.2 41.2 22.1 41.2 22.1 41.2 22 41.2 22 41.2 21.9 41.1 21.9 41.1 21.8 41.1 21.8 41.1 21.7 41.1 21.7 41.1 21.6 41.1 21.6 41.1 21.5 41.1 21.5 41.1 21.4 41.1 21.4 41 21.4 41 21.3 41 21.3 41 21.2 41 21.2 40.9 21.1 40.9 21.1 40.9 21 40.9 21 40.9 20.9 40.9 20.9 40.8 20.9 40.8 20.9 40.8 20.8 40.8 20.8 40.8 20.8 40.8 20.8 40.8 20.8 40.7 20.8 40.7 20.7 40.7 20.7 40.7 20.7 40.7 20.7 40.6 20.7 40.6 20.6 40.6 20.6 40.6 20.6 40.6 20.6 40.6 20.6 40.5 20.6 40.5 20.6 40.5 20.6 40.5 20.5 40.4 20.5 40.4 20.5 40.4 20.5 40.4 20.5 40.3 20.5 40.3 20.5 40.3 20.5 40.3 20.5 40.3 20.5 40.2 20.5 40.2 20.5 40.2 20.5 40.2 20.5 40.2 20.5 40.2 20.5 40.2 20.5 40.2 20.6 40.2 20.6 40.2 20.6 40.2 20.6 40.2 20.6 40.2 20.6 40.2 20.7 40.2 20.7 40.2 20.7 40.2 20.7 40.2 20.7 40.2 20.7 40.2 20.8 40.2 20.8 40.2 20.8 40.2 20.8 40.2 20.8 40.2 20.9 40.2 20.9 40.2 20.9 40.2 20.9 40.3 20.9 40.2 21 40.3 21 40.3 21 40.3 21 40.3 21 40.3 21 40.3 21.1 40.3"/><path class="cls-1" d="M48.7,22c-3.2-5.5,8.7,0,4.9.2-1.1.1-2.3,3-4.3.1C49.3,22.3,48.8,22.3,48.7,22Z"/><path class="cls-1" d="M31.6,21.4c-2.8-1.7,1.9-3.9,1.1-1.6-.2.6.4.5.1,2.1-.1,1-1,.8-1,0C31.8,21.7,31.7,21.6,31.6,21.4Z"/><path class="cls-1" d="M39.4,26c-1.4-.3-1.8-3.5,2-2.1.4.1-.4.8.6,1.5S39.9,26.2,39.4,26Z"/><path class="cls-1" d="M43.1,20c3.8-.9,3.7,4.4.1.8A2.2,2.2,0,0,1,43.1,20Z"/><path class="cls-1" d="M31.41,46.5V43.07l-2.55-4.65H30l1.14,2.23c.31.61.55,1.1.8,1.67h0c.23-.53.5-1.06.82-1.67L34,38.42h1.19l-2.71,4.64V46.5Z"/><path class="cls-1" d="M38.44,46.5l-.08-.73h0a2.16,2.16,0,0,1-1.77.86A1.65,1.65,0,0,1,34.77,45c0-1.4,1.25-2.17,3.49-2.16v-.12a1.2,1.2,0,0,0-1.32-1.34,2.89,2.89,0,0,0-1.51.43l-.24-.7a3.61,3.61,0,0,1,1.91-.52c1.77,0,2.21,1.21,2.21,2.37v2.17a8.14,8.14,0,0,0,.1,1.39Zm-.16-3c-1.15,0-2.46.18-2.46,1.31a.93.93,0,0,0,1,1,1.44,1.44,0,0,0,1.4-1,1.11,1.11,0,0,0,.06-.34Z"/><path class="cls-1" d="M41,42.51c0-.68,0-1.27,0-1.81h.92l0,1.14h0a1.74,1.74,0,0,1,1.61-1.27,1.13,1.13,0,0,1,.3,0v1a1.57,1.57,0,0,0-.36,0,1.48,1.48,0,0,0-1.42,1.36,3,3,0,0,0,0,.49V46.5H41Z"/><path class="cls-1" d="M50.07,43.55a2.84,2.84,0,0,1-2.89,3.08,2.76,2.76,0,0,1-2.78-3,2.83,2.83,0,0,1,2.88-3.08A2.75,2.75,0,0,1,50.07,43.55Zm-4.61.06c0,1.27.73,2.23,1.76,2.23S49,44.89,49,43.59c0-1-.49-2.23-1.74-2.23S45.46,42.51,45.46,43.61Z"/><path class="cls-1" d="M51.73,40.7,52.87,44a15,15,0,0,1,.47,1.49h0c.13-.48.3-1,.49-1.49L55,40.7h1.1l-2.28,5.8h-1L50.6,40.7Z"/><path class="cls-1" d="M58.27,39.06a.65.65,0,0,1-1.31,0,.64.64,0,0,1,.66-.66A.63.63,0,0,1,58.27,39.06ZM57.09,46.5V40.7h1.05v5.8Z"/><path class="cls-1" d="M61.17,39V40.7h1.51v.8H61.17v3.13c0,.72.2,1.13.79,1.13a2.34,2.34,0,0,0,.61-.07l0,.79a2.58,2.58,0,0,1-.94.14,1.46,1.46,0,0,1-1.14-.44,2.15,2.15,0,0,1-.41-1.51V41.5h-.9v-.8h.9V39.3Z"/><path class="cls-1" d="M72.6,46.14a7.53,7.53,0,0,1-2.48.44A3.8,3.8,0,0,1,66,42.51a4.05,4.05,0,0,1,4.38-4.17,5,5,0,0,1,2,.37l-.25.85a4.2,4.2,0,0,0-1.79-.35,3,3,0,0,0-3.25,3.25,3,3,0,0,0,3.12,3.26,3.42,3.42,0,0,0,1.39-.22V43.09H69.94v-.84H72.6Z"/><path class="cls-1" d="M74.17,42.51c0-.68,0-1.27,0-1.81H75l0,1.14h0a1.74,1.74,0,0,1,1.61-1.27,1.13,1.13,0,0,1,.3,0v1a1.56,1.56,0,0,0-.36,0,1.48,1.48,0,0,0-1.42,1.36,3,3,0,0,0,0,.49V46.5h-1Z"/><path class="cls-1" d="M83.22,43.55a2.84,2.84,0,0,1-2.89,3.08,2.76,2.76,0,0,1-2.78-3,2.83,2.83,0,0,1,2.88-3.08A2.75,2.75,0,0,1,83.22,43.55Zm-4.61.06c0,1.27.73,2.23,1.76,2.23s1.76-.95,1.76-2.25c0-1-.49-2.23-1.74-2.23S78.62,42.51,78.62,43.61Z"/><path class="cls-1" d="M89.42,44.92c0,.6,0,1.13,0,1.58h-.94l-.06-.95h0a2.18,2.18,0,0,1-1.92,1.08c-.91,0-2-.5-2-2.54V40.7h1.05v3.21c0,1.1.34,1.85,1.3,1.85a1.49,1.49,0,0,0,1.49-1.5V40.7h1.05Z"/><path class="cls-1" d="M91.17,42.59c0-.74,0-1.34,0-1.89h.95l0,1h0a2.28,2.28,0,0,1,2.06-1.13c1.4,0,2.46,1.19,2.46,3,0,2.09-1.27,3.12-2.64,3.12a2,2,0,0,1-1.79-.91h0v3.15h-1Zm1,1.55a2.43,2.43,0,0,0,0,.43,1.63,1.63,0,0,0,1.58,1.24c1.12,0,1.76-.91,1.76-2.24,0-1.16-.61-2.16-1.73-2.16a1.68,1.68,0,0,0-1.59,1.31,1.71,1.71,0,0,0-.07.43Z"/></svg>