<svg id="Слой_1" data-name="Слой 1" xmlns="http://www.w3.org/2000/svg" viewBox="0 0 100 50"><defs><style>.cls-1,.cls-2{fill:#fff;}.cls-2{stroke:#fff;stroke-miterlimit:10;stroke-width:0.25px;}</style></defs><title>Монтажная область 1</title><path class="cls-1" d="M34.9,20.9c-.7-3,6.8.8,1.7,1.5C35.9,22.5,35.1,21.7,34.9,20.9Z"/><path class="cls-1" d="M31.3,18.6c.3-3.7,6.3-1.3,1.6.5C32.7,19.2,31.3,19.2,31.3,18.6Z"/><path class="cls-1" d="M29.2,22.3c-.7-.9.8-1.8,2.3-1.5,4.1.8-.3,4.9-1.3,2.1C30.1,22.6,29.4,22.5,29.2,22.3Z"/><path class="cls-1" d="M29.3,29c-3.6.3-3.3-5.7.3-2.7C29.7,26.4,31.4,28.9,29.3,29Z"/><path class="cls-1" d="M39.9,17.5c-3.1-3.2.6-7.3,2.7-7.8,4.9-1.1,9.7-.2,9.7,5.6,0,3.8-7.7-.8-10.6,2.3A1.27,1.27,0,0,1,39.9,17.5Z"/><path class="cls-1" d="M22.4,18.9c-.5-.2-5.1-6.6-.6-8.5,1.6-.7-1.9-1,4-1.4,0,0,7-5.5,7.9,1.9.2,1.3,1.7.2.6,2.2-.3.5,1.8,2.5-2.8,1-2.6-.7-1,2.9-5.5,2.9C24.8,17,25.9,20.5,22.4,18.9Z"/><path class="cls-1" d="M10.7,33.2C8.5,33,9,28.4,7.3,27.8c-.8-.2-2.5-3.9-2.5-5.7,0-3.7-2.4-9.7,4.4-6.8a56.82,56.82,0,0,1,7.7,4.1c1.3.7,3.4,5,5.4,7.1,1.4,1.5,1.6,4.2-1.3,5.2-1.4.5-2.1,0-3,1.4C16.6,33.3,12.5,34.7,10.7,33.2Z"/><polygon class="cls-1" points="2.8 8.8 3 8.9 3.1 9 3.3 9 3.4 9.1 3.6 9.2 3.7 9.2 3.9 9.3 4 9.4 4.2 9.5 4.3 9.6 4.4 9.6 4.6 9.7 4.7 9.8 4.9 9.9 5 10 5.1 10.1 5.3 10.2 5.4 10.3 5.5 10.5 5.6 10.6 5.8 10.7 5.9 10.8 6 10.9 6.1 11 6.2 11.2 6.3 11.3 6.5 11.4 6.6 11.5 6.7 11.7 6.8 11.8 6.9 12 7 12.1 7 12.1 7 12.1 7 12.1 7.1 12.1 7.1 12.1 7.1 12.1 7.2 12.1 7.2 12.1 7.3 12 7.3 12 7.3 12 7.4 12 7.4 12 7.5 12 7.5 12 7.5 12 7.6 12 7.6 12 7.7 12 7.7 11.9 7.8 11.9 7.8 11.9 7.8 11.9 7.9 11.9 7.9 11.9 8 11.9 8 11.9 8 11.9 8.1 11.9 8.1 11.8 8.1 11.9 8.2 11.8 8.2 11.8 8.2 11.8 8.5 11.8 8.7 11.8 8.9 11.8 9.2 11.8 9.4 11.9 9.6 11.9 9.9 11.9 10.1 12 10.3 12 10.6 12.1 10.8 12.2 11 12.3 11.2 12.3 11.4 12.4 11.7 12.5 11.9 12.6 12.1 12.8 12.3 12.9 12.5 13 12.7 13.1 12.9 13.3 13.1 13.4 13.3 13.5 13.5 13.7 13.7 13.8 13.8 14 14 14.2 14.2 14.3 14.4 14.5 14.5 14.7 14.7 14.8 14.8 15 14.8 15 14.9 15.1 15 15.2 15.1 15.3 15.1 15.4 15.2 15.5 15.3 15.7 15.4 15.8 15.5 15.8 15.5 15.9 15.6 16 15.7 16.1 15.8 16.2 15.9 16.3 16 16.4 16.1 16.5 16.1 16.6 16.2 16.7 16.4 16.8 16.4 16.8 16.5 16.9 16.6 17 16.7 17.1 16.8 17.2 16.9 17.2 17 17.3 17.1 17.4 17.2 17.5 17.3 17.6 17.5 17.6 17.5 17.7 17.7 17.8 17.8 17.8 17.8 17.8 18.1 18 18.3 18.2 18.6 18.3 18.9 18.5 19.2 18.6 19.5 18.8 19.7 19 20 19.1 20.3 19.3 20.5 19.5 20.8 19.7 21.1 19.8 21.3 20 21.6 20.2 21.8 20.4 22.1 20.6 22.3 20.9 22.5 21.1 22.8 21.3 23 21.5 23.2 21.8 23.4 22 23.6 22.3 23.8 22.5 24 22.8 24.1 23 24.3 23.3 24.4 23.6 24.6 23.9 24.7 24.2 24.8 24.5 25 24.8 25 24.8 25 24.9 25 25 25 25 25.1 25.1 25.1 25.2 25.1 25.2 25.1 25.3 25.2 25.4 25.2 25.5 25.2 25.5 25.2 25.6 25.3 25.7 25.3 25.7 25.3 25.8 25.3 25.9 25.3 26 25.4 26 25.4 26.1 25.4 26.2 25.4 26.2 25.4 26.3 25.5 26.4 25.5 26.5 25.5 26.5 25.5 26.6 25.5 26.7 25.5 26.7 25.5 26.8 25.6 26.8 25.6 26.9 25.6 27 25.6 27 25.6 27 25.6 27 25.6 27 25.6 27 25.6 27 25.6 27 25.6 27 25.6 27 25.6 26.9 25.6 26.9 25.7 26.9 25.6 26.9 25.7 26.9 25.7 26.8 25.7 26.8 25.7 26.8 25.7 26.8 25.7 26.7 25.7 26.7 25.7 26.7 25.7 26.7 25.7 26.7 25.7 26.6 25.8 26.6 25.8 26.6 25.8 26.6 25.8 26.5 25.8 26.5 25.8 26.5 25.8 26.5 25.8 26.4 25.8 26.4 25.8 26.4 25.8 26.4 25.8 26.3 25.9 26.3 25.9 26.2 25.9 26.2 25.9 26.1 26 26 26 26 26 25.9 26 25.9 26.1 25.8 26.1 25.8 26.1 25.7 26.2 25.7 26.2 25.6 26.2 25.5 26.2 25.5 26.3 25.4 26.3 25.4 26.3 25.3 26.4 25.3 26.4 25.2 26.5 25.2 26.5 25.1 26.5 25.1 26.5 25 26.6 25 26.6 24.9 26.7 24.9 26.7 24.8 26.8 24.8 26.8 24.7 26.8 24.7 26.8 24.7 26.9 24.7 26.9 24.7 26.9 24.8 26.9 24.8 26.9 24.8 26.9 24.8 26.9 24.9 26.9 24.9 26.9 24.9 26.9 24.9 26.8 25 26.8 25 26.8 25 26.8 25.1 26.8 25.1 26.8 25.1 26.8 25.2 26.8 25.2 26.8 25.2 26.8 25.2 26.8 25.3 26.8 25.3 26.7 25.4 26.7 25.4 26.7 25.4 26.7 25.5 26.7 25.5 26.7 25.5 26.7 25.5 26.7 25.6 26.7 25.6 26.8 25.6 26.8 25.6 26.7 25.7 26.7 25.8 26.7 25.9 26.6 25.9 26.6 26 26.6 26.1 26.5 26.2 26.5 26.2 26.5 26.3 26.5 26.4 26.5 26.5 26.5 26.6 26.4 26.7 26.4 26.8 26.4 26.8 26.4 26.9 26.4 27 26.4 27.1 26.4 27.2 26.4 27.3 26.4 27.3 26.4 27.4 26.4 27.5 26.4 27.6 26.4 27.7 26.4 27.8 26.4 27.8 26.4 27.9 26.5 28 26.5 28.1 26.5 28.2 26.6 28.2 26.6 28.2 26.6 28.3 26.7 28.4 26.8 28.5 26.8 28.5 26.9 28.6 27 28.7 27 28.8 27.1 28.8 27.2 28.9 27.3 29 27.4 29 27.4 29.1 27.5 29.1 27.6 29.2 27.7 29.2 27.8 29.3 27.9 29.3 28 29.4 28 29.4 28.1 29.4 28.2 29.5 28.3 29.5 28.4 29.5 28.5 29.5 28.6 29.5 28.7 29.5 28.8 29.6 28.9 29.6 29 29.5 29.1 29.6 29.2 29.5 29.3 29.5 29.3 29.5 29.4 29.5 29.5 29.5 29.5 29.5 29.6 29.5 29.6 29.5 29.7 29.4 29.7 29.4 29.8 29.3 29.8 29.3 29.9 29.3 29.9 29.2 30 29.2 30 29.2 30 29.1 30.1 29.1 30.1 29 30.2 29 30.2 29 30.2 28.9 30.3 28.9 30.3 28.9 30.4 28.9 30.4 28.9 30.4 28.9 30.5 28.9 30.5 28.9 30.5 28.9 30.5 29 30.6 29 30.6 29.1 30.6 29.2 30.7 29.3 30.7 29.3 30.7 29.3 30.7 29.4 30.7 29.4 30.6 29.5 30.6 29.5 30.6 29.6 30.6 29.6 30.6 29.7 30.6 29.7 30.6 29.7 30.5 29.8 30.5 29.8 30.5 29.9 30.5 29.9 30.5 30 30.4 30 30.4 30 30.4 30.1 30.4 30.1 30.3 30.1 30.3 30.2 30.2 30.2 30.2 30.2 30.2 30.3 30.1 30.3 30.1 30.3 30.1 30.3 30 30.4 30 30.4 29.9 30.4 29.9 30.5 29.9 30.5 29.9 30.5 29.8 30.5 29.6 30.5 29.5 30.6 29.4 30.6 29.3 30.6 29.2 30.6 29.1 30.7 29 30.6 28.9 30.6 28.8 30.6 28.7 30.6 28.6 30.6 28.5 30.6 28.4 30.6 28.2 30.5 28.1 30.5 28 30.5 27.9 30.4 27.8 30.4 27.7 30.4 27.6 30.3 27.5 30.3 27.4 30.2 27.4 30.2 27.3 30.1 27.2 30.1 27.1 30 27 29.9 26.9 29.9 26.8 29.8 26.8 29.7 26.7 29.7 26.7 29.7 26.6 29.6 26.6 29.6 26.6 29.5 26.5 29.5 26.5 29.5 26.4 29.4 26.4 29.4 26.4 29.3 26.3 29.3 26.3 29.2 26.3 29.2 26.2 29.1 26.2 29.1 26.1 29 26.1 29 26.1 28.9 26.1 28.9 26 28.8 26 28.8 26 28.7 25.9 28.7 25.9 28.6 25.9 28.6 25.8 28.5 25.8 28.5 25.8 28.4 25.8 28.3 25.7 28.3 25.7 28.2 25.6 28.2 25.6 28.1 25.6 28.1 25.6 28.1 25.6 28.2 25.6 28.3 25.6 28.5 25.5 28.6 25.5 28.7 25.5 28.8 25.5 29 25.5 29.1 25.5 29.2 25.4 29.3 25.4 29.4 25.4 29.5 25.4 29.7 25.3 29.8 25.3 29.9 25.3 30 25.2 30.1 25.2 30.2 25.1 30.3 25.1 30.4 25 30.5 25 30.7 25 30.8 24.9 30.8 24.8 31 24.8 31.1 24.7 31.2 24.6 31.3 24.5 31.4 24.5 31.5 24.4 31.6 24.3 31.7 24.3 31.7 24.3 31.7 24.3 31.8 24.2 31.8 24.2 31.8 24.2 31.9 24.1 31.9 24.1 31.9 24.1 32 24.1 32 24 32 24 32.1 24 32.1 24 32.1 24 32.2 23.9 32.2 23.9 32.2 23.9 32.3 23.8 32.3 23.8 32.3 23.8 32.4 23.7 32.4 23.7 32.4 23.7 32.4 23.7 32.5 23.6 32.5 23.6 32.5 23.5 32.5 23.5 32.5 23.5 32.5 23.4 32.5 23.4 32.5 23.4 32.5 23.4 32.5 23.5 32.3 23.6 32 23.7 31.8 23.8 31.5 23.9 31.3 23.9 31 24 30.7 24 30.5 24.1 30.2 24.1 29.9 24.1 29.6 24.1 29.3 24.1 29.1 24.1 28.8 24.1 28.5 24.1 28.2 24 27.9 24 27.7 23.9 27.4 23.9 27.1 23.8 26.8 23.7 26.5 23.7 26.3 23.6 26 23.5 25.7 23.4 25.4 23.3 25.1 23.2 24.9 23.1 24.6 23 24.3 22.9 24.1 22.8 23.8 22.8 23.8 22.6 23.5 22.4 23.2 22.2 22.9 22 22.6 21.8 22.3 21.6 22 21.3 21.8 21.1 21.5 20.8 21.3 20.6 21 20.3 20.8 20 20.6 19.8 20.4 19.5 20.1 19.2 19.9 18.9 19.7 18.6 19.5 18.3 19.3 18 19.1 17.8 18.9 17.5 18.7 17.2 18.5 16.9 18.3 16.6 18.1 16.3 17.9 16 17.7 15.8 17.5 15.5 17.2 15.2 17 14.9 16.8 14.7 16.6 14.4 16.3 14.4 16.3 14.3 16.1 14.1 16 13.9 15.8 13.8 15.6 13.6 15.5 13.4 15.3 13.2 15.1 13 15 12.8 14.8 12.6 14.7 12.4 14.5 12.2 14.3 12.1 14.2 11.9 14.1 11.6 13.9 11.4 13.8 11.2 13.7 11 13.6 10.8 13.5 10.6 13.4 10.3 13.4 10.1 13.3 9.9 13.2 9.6 13.2 9.4 13.2 9.2 13.2 8.9 13.2 8.7 13.2 8.4 13.2 8.2 13.2 7.9 13.3 7.7 13.4 7.7 13.4 7.7 13.4 7.7 13.4 7.7 13.4 7.7 13.4 7.7 13.4 7.6 13.4 7.6 13.4 7.6 13.4 7.6 13.4 7.6 13.4 7.6 13.4 7.6 13.4 7.6 13.4 7.6 13.4 7.6 13.4 7.6 13.4 7.6 13.4 7.6 13.4 7.6 13.4 7.6 13.4 7.6 13.4 7.6 13.4 7.6 13.4 7.6 13.4 7.6 13.4 7.6 13.4 7.6 13.4 7.6 13.4 7.6 13.4 7.6 13.4 7.6 13.4 7.6 13.4 7.6 13.4 7.6 13.5 7.6 13.6 7.6 13.7 7.6 13.7 7.7 13.8 7.7 13.9 7.7 14 7.7 14 7.7 14.1 7.8 14.2 7.8 14.2 7.8 14.3 7.8 14.4 7.8 14.5 7.8 14.5 7.8 14.6 7.9 14.7 7.9 14.8 7.9 14.8 7.9 14.9 7.9 15 7.9 15 7.9 15.1 7.9 15.2 7.9 15.2 7.9 15.3 7.8 15.4 7.8 15.4 7.8 15.5 7.8 15.6 7.8 15.7 7.7 15.7 7.7 15.7 7.7 15.7 7.7 15.7 7.7 15.7 7.7 15.7 7.7 15.7 7.7 15.7 7.6 15.7 7.6 15.7 7.6 15.7 7.6 15.7 7.6 15.7 7.6 15.7 7.6 15.8 7.6 15.8 7.5 15.8 7.5 15.8 7.5 15.8 7.5 15.8 7.5 15.8 7.5 15.8 7.5 15.8 7.5 15.8 7.5 15.8 7.4 15.8 7.4 15.8 7.4 15.8 7.4 15.8 7.4 15.8 7.4 15.7 7.4 15.8 7.4 15.8 7.4 15.7 7.4 15.7 7.3 15.7 7.3 15.6 7.3 15.6 7.2 15.5 7.2 15.4 7.2 15.4 7.2 15.3 7.1 15.2 7.1 15.2 7.1 15.1 7.1 15.1 7 15 7 14.9 7 14.9 7 14.8 6.9 14.7 6.9 14.7 6.9 14.6 6.9 14.5 6.8 14.5 6.8 14.4 6.8 14.3 6.8 14.3 6.7 14.2 6.7 14.2 6.7 14.1 6.6 14.1 6.6 14 6.6 14 6.5 13.9 6.5 13.8 6.4 13.8 6.4 13.8 6.3 13.9 6.2 13.9 6.1 14 6 14 5.9 14.1 5.8 14.1 5.8 14.2 5.7 14.2 5.6 14.3 5.5 14.3 5.4 14.4 5.3 14.5 5.2 14.5 5.1 14.6 5 14.7 5 14.7 4.9 14.8 4.8 14.8 4.7 14.9 4.6 15 4.5 15 4.4 15.1 4.3 15.1 4.3 15.2 4.2 15.3 4.1 15.3 4 15.4 3.9 15.5 3.9 15.5 3.8 15.6 3.7 15.7 3.6 15.7 3.6 15.7 3.6 15.6 3.6 15.5 3.7 15.4 3.7 15.2 3.7 15.1 3.8 15 3.8 14.9 3.8 14.8 3.9 14.7 4 14.6 4 14.5 4.1 14.3 4.2 14.3 4.2 14.2 4.3 14.1 4.4 14 4.5 13.9 4.5 13.8 4.6 13.7 4.7 13.6 4.8 13.5 4.9 13.4 5 13.3 5.1 13.2 5.2 13.2 5.3 13.1 5.4 13 5.5 12.9 5.6 12.8 5.7 12.8 5.8 12.7 5.9 12.6 5.9 12.6 5.8 12.5 5.7 12.3 5.6 12.2 5.5 12 5.4 11.9 5.2 11.8 5.1 11.6 5 11.5 4.9 11.3 4.8 11.2 4.7 11.1 4.6 11 4.4 10.8 4.3 10.7 4.2 10.6 4.1 10.5 4 10.3 3.8 10.2 3.7 10.1 3.6 10 3.4 9.9 3.3 9.8 3.2 9.7 3 9.6 2.9 9.5 2.8 9.4 2.6 9.3 2.5 9.2 2.3 9 2.2 9 2.1 8.9 1.9 8.8 1.9 8.8 1.9 8.7 1.9 8.7 1.8 8.7 1.8 8.6 1.8 8.6 1.8 8.6 1.8 8.6 1.8 8.6 1.8 8.5 1.8 8.5 1.8 8.5 1.8 8.5 1.9 8.6 1.9 8.6 1.9 8.6 1.9 8.6 1.9 8.6 2 8.6 2 8.6 2 8.6 2.1 8.7 2.1 8.7 2.1 8.7 2.1 8.7 2.2 8.7 2.2 8.8 2.2 8.8 2.3 8.8 2.3 8.8 2.3 8.8 2.3 8.8 2.3 8.8 2.3 8.8 2.3 8.8 2.4 8.8 2.4 8.8 2.4 8.8 2.4 8.8 2.4 8.8 2.5 8.8 2.5 8.8 2.5 8.8 2.5 8.8 2.5 8.8 2.5 8.8 2.5 8.8 2.5 8.8 2.6 8.8 2.6 8.8 2.6 8.8 2.6 8.8 2.6 8.8 2.7 8.8 2.7 8.8 2.7 8.8 2.7 8.8 2.7 8.8 2.7 8.8 2.8 8.8 2.8 8.8 2.8 8.8 2.8 8.8 2.8 8.9 2.8 8.8 2.8 8.8"/><polygon class="cls-1" points="25.3 1.5 25.3 1.7 25.3 1.9 25.3 2.1 25.4 2.2 25.4 2.4 25.4 2.6 25.4 2.7 25.4 2.9 25.5 3.1 25.5 3.3 25.5 3.4 25.5 3.6 25.5 3.8 25.5 3.9 25.6 4.1 25.6 4.3 25.6 4.5 25.7 4.6 25.7 4.8 25.7 5 25.8 5.2 25.8 5.3 25.8 5.5 25.8 5.7 25.9 5.8 25.9 6 25.9 6.2 26 6.4 26 6.5 26 6.7 26.1 6.9 26.1 7 26.1 7 26.1 7.1 26.1 7.1 26.1 7.2 26.1 7.2 26.1 7.2 26.2 7.3 26.2 7.3 26.2 7.4 26.2 7.4 26.2 7.4 26.2 7.5 26.3 7.5 26.3 7.5 26.3 7.6 26.3 7.6 26.3 7.7 26.3 7.7 26.4 7.7 26.4 7.8 26.4 7.8 26.4 7.8 26.4 7.9 26.5 7.9 26.5 8 26.5 8 26.5 8 26.5 8 26.6 8.1 26.6 8.1 26.6 8.1 26.6 8.2 26.7 8.2 26.7 8.2 26.7 8.2 26.8 8.1 26.8 8.1 26.8 8.1 26.9 8 26.9 8 26.9 8 27 7.9 27 7.9 27 7.8 27 7.8 27.1 7.8 27.1 7.7 27.1 7.7 27.1 7.6 27.2 7.6 27.2 7.5 27.2 7.5 27.3 7.5 27.3 7.5 27.3 7.4 27.3 7.4 27.4 7.4 27.4 7.4 27.5 7.4 27.5 7.4 27.5 7.4 27.6 7.4 27.6 7.4 27.6 7.5 27.7 7.5 27.8 7.5 27.8 7.5 27.8 7.6 27.8 7.7 27.8 7.8 27.8 7.8 27.7 7.9 27.7 7.9 27.7 8 27.7 8.1 27.7 8.1 27.7 8.2 27.6 8.3 27.6 8.3 27.6 8.4 27.6 8.5 27.5 8.5 27.5 8.5 27.5 8.6 27.4 8.7 27.4 8.7 27.3 8.8 27.3 8.8 27.2 8.9 27.2 8.9 27.1 9 27.1 9 27 9 27 9.1 26.9 9.1 26.9 9.1 26.8 9.2 26.8 9.2 26.7 9.2 26.7 9.2 26.6 9.3 26.5 9.4 26.3 9.4 26.2 9.5 26.1 9.5 26 9.6 25.8 9.6 25.7 9.6 25.6 9.7 25.5 9.7 25.3 9.7 25.2 9.7 25.1 9.7 24.9 9.7 24.8 9.7 24.7 9.7 24.5 9.7 24.4 9.7 24.3 9.7 24.2 9.7 24 9.7 23.9 9.6 23.8 9.6 23.7 9.6 23.5 9.5 23.4 9.5 23.3 9.5 23.2 9.5 23 9.4 22.9 9.4 22.8 9.3 22.7 9.3 22.7 9.3 22.8 9.2 22.9 9.2 23 9.1 23.1 9.1 23.2 9 23.3 9 23.5 9 23.6 9 23.7 9 23.8 8.9 23.9 8.9 24 8.9 24.1 8.9 24.2 8.9 24.3 8.9 24.5 8.9 24.6 8.9 24.7 8.9 24.8 8.9 24.9 8.9 25 8.9 25.1 8.9 25.2 8.9 25.3 8.8 25.5 8.8 25.5 8.8 25.7 8.8 25.8 8.8 25.9 8.7 26 8.7 26.1 8.6 26.2 8.5 26.2 8.5 26.2 8.5 26.2 8.5 26.2 8.5 26.1 8.4 26.1 8.4 26.1 8.4 26.1 8.3 26.1 8.3 26.1 8.3 26.1 8.2 26 8.2 26 8.2 26 8.2 26 8.2 26 8.1 26 8.1 26 8.1 25.9 8 25.9 8 25.9 8 25.9 8 25.9 7.9 25.8 7.9 25.8 7.9 25.8 7.9 25.8 7.8 25.8 7.8 25.7 7.8 25.7 7.8 25.7 7.7 25.7 7.7 25.6 7.7 25.6 7.7 25.5 7.7 25.4 7.8 25.3 7.8 25.1 7.8 25 7.8 24.9 7.8 24.8 7.8 24.6 7.8 24.5 7.8 24.4 7.8 24.3 7.8 24.1 7.8 24 7.8 23.9 7.8 23.8 7.7 23.6 7.7 23.5 7.7 23.4 7.7 23.3 7.7 23.1 7.7 23 7.8 22.9 7.8 22.8 7.8 22.6 7.8 22.5 7.8 22.4 7.9 22.3 7.9 22.2 8 22 8 21.9 8.1 21.8 8.2 21.7 8.3 21.7 8.3 21.6 8.3 21.5 8.4 21.4 8.5 21.4 8.5 21.3 8.6 21.2 8.7 21.1 8.7 21 8.8 21 8.9 20.9 8.9 20.8 9 20.8 9.1 20.7 9.1 20.6 9.2 20.5 9.3 20.5 9.3 20.4 9.4 20.3 9.5 20.3 9.6 20.2 9.6 20.1 9.7 20.1 9.8 20 9.8 19.9 9.9 19.9 10 19.8 10.1 19.8 10.2 19.7 10.3 19.6 10.3 19.6 10.4 19.5 10.5 19.5 10.6 19.5 10.6 19.4 10.6 19.4 10.6 19.4 10.6 19.4 10.6 19.3 10.7 19.3 10.7 19.3 10.7 19.2 10.7 19.2 10.7 19.2 10.7 19.2 10.7 19.1 10.7 19.1 10.8 19.1 10.8 19.1 10.8 19 10.8 19 10.8 19 10.8 19 10.8 19 10.8 18.9 10.9 18.9 10.9 18.9 10.9 18.9 10.9 18.8 10.9 18.8 10.9 18.8 10.9 18.8 11 18.7 11 18.7 11 18.7 11 18.7 11 18.7 11 18.7 10.9 18.7 10.7 18.7 10.6 18.7 10.4 18.7 10.3 18.8 10.1 18.8 10 18.8 9.9 18.9 9.7 19 9.6 19 9.5 19.1 9.3 19.2 9.2 19.3 9.1 19.4 8.9 19.5 8.8 19.6 8.7 19.7 8.6 19.8 8.5 19.9 8.4 20 8.2 20.1 8.1 20.2 8 20.4 7.9 20.5 7.8 20.6 7.8 20.8 7.7 20.9 7.6 21 7.5 21.2 7.4 21.3 7.4 21.4 7.3 21.4 7.3 21.5 7.2 21.7 7.2 21.8 7.1 21.9 7.1 22 7 22.2 7 22.3 7 22.4 7 22.5 6.9 22.7 6.9 22.8 6.9 22.9 6.9 23 6.9 23.1 6.9 23.3 6.9 23.4 6.9 23.5 6.9 23.7 6.9 23.8 6.9 23.9 6.9 24 6.9 24.1 6.9 24.3 7 24.4 7 24.5 7 24.6 7 24.8 7 24.9 7 25 7 25.1 7 25.2 7.1 25.4 7.1 25.4 7.1 25.4 7 25.4 7 25.4 7 25.3 6.9 25.4 6.9 25.3 6.9 25.3 6.8 25.3 6.8 25.3 6.8 25.3 6.7 25.3 6.7 25.3 6.7 25.3 6.6 25.2 6.6 25.2 6.6 25.2 6.5 25.2 6.5 25.2 6.5 25.2 6.4 25.2 6.4 25.2 6.4 25.1 6.3 25.1 6.3 25.1 6.3 25.1 6.2 25.1 6.2 25.1 6.2 25.1 6.1 25.1 6.1 25.1 6 25 6 25 5.9 25 5.9 25 5.8 25 5.6 24.9 5.5 24.9 5.3 24.9 5.2 24.9 5 24.8 4.9 24.8 4.7 24.8 4.6 24.8 4.4 24.7 4.3 24.7 4.1 24.7 4 24.7 3.8 24.7 3.7 24.7 3.5 24.6 3.3 24.6 3.2 24.6 3 24.6 2.9 24.6 2.7 24.6 2.6 24.6 2.5 24.6 2.3 24.6 2.1 24.6 2 24.7 1.9 24.7 1.7 24.7 1.6 24.7 1.4 24.7 1.3 24.8 1.1 24.8 1.1 24.8 1.1 24.8 1.1 24.8 1.1 24.8 1.1 24.8 1.1 24.8 1.1 24.8 1.1 24.9 1.1 24.9 1.1 24.9 1.1 24.9 1.1 24.9 1.1 24.9 1.1 24.9 1.1 24.9 1.1 24.9 1.1 24.9 1.1 24.9 1 24.9 1 24.9 1 24.9 1 24.9 1 24.9 1 24.9 1 24.9 1 24.9 1 24.9 1 24.9 1 24.9 1 24.9 1 24.9 0.9 24.9 0.9 24.9 0.9 24.9 1 24.9 1 25 1 25 1 25 1 25 1.1 25 1.1 25 1.1 25 1.1 25 1.1 25 1.2 25 1.2 25.1 1.2 25.1 1.2 25.1 1.2 25.1 1.3 25.1 1.3 25.1 1.3 25.1 1.3 25.1 1.3 25.1 1.4 25.2 1.4 25.2 1.4 25.2 1.4 25.2 1.4 25.2 1.5 25.2 1.5 25.2 1.5 25.3 1.5 25.3 1.5 25.3 1.5 25.3 1.5"/><polygon class="cls-1" points="34.7 5.8 35 6.1 35.2 6.3 35.4 6.6 35.6 6.8 35.8 7.1 35.9 7.3 36.1 7.6 36.2 7.9 36.3 8.2 36.4 8.5 36.4 8.8 36.5 9.1 36.5 9.4 36.6 9.7 36.6 10 36.6 10.3 36.6 10.6 36.6 10.9 36.6 11.3 36.6 11.6 36.5 11.9 36.5 12.2 36.5 12.5 36.4 12.8 36.4 13.2 36.4 13.5 36.3 13.8 36.3 14.1 36.3 14.4 36.2 14.7 36.2 15 36.2 15.2 36.2 15.2 36.2 15.2 36.2 15.3 36.1 15.3 36.1 15.3 36.1 15.3 36.1 15.3 36.1 15.4 36.1 15.4 36.1 15.4 36.1 15.4 36.1 15.4 36.1 15.5 36.1 15.5 36.1 15.5 36.1 15.5 36 15.5 36.1 15.5 36 15.6 36 15.6 36 15.6 36 15.6 36 15.6 36 15.7 36 15.7 36 15.7 36 15.7 36 15.7 36 15.7 35.9 15.7 35.9 15.8 35.9 15.8 35.9 15.8 35.9 15.8 35.9 15.8 35.8 15.8 35.8 15.8 35.8 15.8 35.8 15.8 35.7 15.8 35.7 15.8 35.7 15.7 35.7 15.7 35.6 15.7 35.6 15.7 35.6 15.7 35.6 15.6 35.6 15.6 35.6 15.6 35.6 15.6 35.5 15.6 35.5 15.5 35.5 15.5 35.5 15.5 35.5 15.5 35.5 15.4 35.5 15.4 35.5 15.4 35.5 15.3 35.5 15.3 35.5 15.3 35.5 15.3 35.5 15.2 35.5 15.2 35.5 15.2 35.5 15.1 35.5 15.1 35.5 15.1 35.5 15.1 35.5 15 35.5 15 35.5 15 35.5 14.9 35.4 14.9 35.5 14.9 35.4 14.8 35.4 14.8 35.4 14.7 35.4 14.7 35.4 14.7 35.4 14.6 35.4 14.6 35.4 14.6 35.4 14.5 35.4 14.5 35.4 14.4 35.4 14.4 35.4 14.4 35.4 14.3 35.4 14.3 35.4 14.3 35.4 14.2 35.4 14.2 35.4 14.2 35.4 14.1 35.4 14.1 35.4 14 35.4 14 35.4 14 35.4 14 35.3 13.8 35.3 13.6 35.3 13.3 35.3 13.2 35.3 13 35.3 12.7 35.3 12.5 35.3 12.3 35.3 12.1 35.3 11.9 35.3 11.7 35.3 11.5 35.3 11.3 35.3 11 35.3 10.8 35.3 10.6 35.3 10.4 35.3 10.2 35.2 10 35.2 9.8 35.2 9.6 35.1 9.4 35.1 9.2 35 9 35 8.8 34.9 8.5 34.8 8.3 34.8 8.2 34.7 7.9 34.5 7.8 34.4 7.5 34.3 7.3 34.3 7.3 34.2 7.2 34.1 7.1 33.9 6.9 33.8 6.8 33.7 6.7 33.5 6.6 33.4 6.5 33.3 6.3 33.1 6.2 33 6.2 32.8 6.1 32.6 6 32.5 5.9 32.3 5.8 32.1 5.8 32 5.7 31.8 5.7 31.6 5.7 31.4 5.6 31.2 5.6 31 5.6 30.9 5.6 30.7 5.5 30.5 5.5 30.3 5.6 30.1 5.6 29.9 5.6 29.8 5.6 29.6 5.7 29.4 5.7 29.2 5.8 29 5.8 29 5.8 28.9 5.8 28.8 5.8 28.8 5.9 28.7 5.9 28.6 5.9 28.5 6 28.4 6 28.4 6 28.3 6.1 28.2 6.1 28.1 6.2 28 6.2 28 6.2 27.9 6.3 27.8 6.3 27.8 6.4 27.7 6.4 27.6 6.5 27.5 6.5 27.4 6.5 27.4 6.6 27.3 6.6 27.2 6.6 27.1 6.6 27 6.6 27 6.7 26.9 6.7 26.8 6.7 26.7 6.7 26.6 6.6 26.5 6.6 26.5 6.5 26.5 6.5 26.6 6.4 26.8 6.3 26.9 6.2 27 6 27.2 5.9 27.4 5.8 27.5 5.6 27.7 5.5 27.9 5.4 28.1 5.3 28.3 5.2 28.5 5.1 28.6 5 28.9 4.9 29 4.9 29.2 4.8 29.5 4.7 29.6 4.6 29.9 4.6 30.1 4.5 30.3 4.5 30.5 4.5 30.7 4.5 30.9 4.4 31.1 4.4 31.3 4.4 31.5 4.4 31.7 4.4 31.9 4.5 32.1 4.5 32.3 4.5 32.5 4.6 32.5 4.6 32.6 4.6 32.7 4.7 32.7 4.7 32.8 4.7 32.9 4.7 33 4.8 33 4.8 33.1 4.8 33.2 4.9 33.2 4.9 33.3 5 33.4 5 33.5 5 33.5 5.1 33.6 5.1 33.7 5.1 33.8 5.2 33.8 5.2 33.9 5.2 34 5.3 34 5.3 34.1 5.4 34.2 5.4 34.2 5.5 34.3 5.5 34.3 5.5 34.4 5.6 34.5 5.7 34.5 5.7 34.6 5.8 34.6 5.8 34.7 5.8"/><polygon class="cls-1" points="4.1 18.1 4.1 18.3 4.1 18.5 4.1 18.6 4.2 18.8 4.2 19 4.2 19.2 4.2 19.3 4.3 19.5 4.3 19.7 4.3 19.8 4.3 20 4.3 20.2 4.3 20.4 4.4 20.6 4.4 20.7 4.4 20.9 4.4 21.1 4.4 21.3 4.4 21.4 4.4 21.6 4.4 21.8 4.4 22 4.4 22.1 4.4 22.3 4.4 22.5 4.4 22.7 4.4 22.8 4.4 23 4.4 23.2 4.4 23.4 4.4 23.5 4.4 23.7 4.4 23.7 4.3 23.8 4.3 24 4.3 24.1 4.3 24.2 4.3 24.3 4.3 24.5 4.3 24.6 4.3 24.7 4.3 24.8 4.3 25 4.3 25.1 4.3 25.2 4.3 25.4 4.3 25.5 4.3 25.6 4.3 25.8 4.3 25.9 4.3 26 4.3 26.1 4.4 26.3 4.4 26.4 4.4 26.5 4.4 26.7 4.4 26.8 4.4 26.9 4.4 27.1 4.4 27.2 4.5 27.3 4.5 27.5 4.5 27.6 4.5 27.7 4.5 27.8 4.5 27.8 4.6 28 4.6 28.2 4.7 28.5 4.7 28.6 4.8 28.8 4.8 29 4.9 29.2 5 29.4 5.1 29.6 5.1 29.8 5.2 29.9 5.3 30.1 5.4 30.3 5.5 30.4 5.6 30.6 5.7 30.8 5.8 30.9 5.9 31.1 6 31.2 6.1 31.4 6.3 31.5 6.4 31.7 6.5 31.8 6.6 32 6.8 32.1 6.9 32.2 7 32.4 7.2 32.5 7.3 32.6 7.4 32.8 7.6 32.9 7.7 33 7.7 33 7.7 33 7.7 33 7.8 33 7.8 33.1 7.8 33.1 7.8 33.1 7.8 33.1 7.9 33.1 7.9 33.1 7.9 33.1 7.9 33.2 7.9 33.2 8 33.2 8 33.2 8 33.2 8 33.2 8.1 33.3 8.1 33.3 8.1 33.3 8.1 33.3 8.1 33.3 8.2 33.3 8.2 33.3 8.2 33.4 8.2 33.4 8.3 33.4 8.3 33.4 8.3 33.4 8.3 33.5 8.4 33.5 8.4 33.5 8.4 33.5 8.4 33.5 8.3 33.5 8.1 33.5 8 33.6 7.9 33.6 7.8 33.6 7.7 33.6 7.5 33.6 7.4 33.6 7.3 33.6 7.2 33.6 7 33.6 6.9 33.6 6.8 33.5 6.7 33.5 6.6 33.5 6.4 33.5 6.3 33.4 6.2 33.4 6.1 33.3 6 33.3 5.8 33.2 5.7 33.2 5.6 33.1 5.5 33.1 5.4 33 5.3 33 5.2 32.9 5.1 32.9 5 32.8 4.9 32.8 4.8 32.7 4.7 32.6 4.7 32.6 4.4 32.3 4.1 32 3.8 31.7 3.6 31.3 3.4 31 3.2 30.6 3 30.2 2.8 29.9 2.7 29.5 2.6 29.1 2.5 28.7 2.4 28.3 2.3 27.9 2.3 27.5 2.2 27.1 2.2 26.7 2.2 26.2 2.2 25.8 2.2 25.4 2.2 25 2.3 24.5 2.3 24.1 2.3 23.7 2.4 23.3 2.4 22.9 2.5 22.5 2.6 22.1 2.7 21.7 2.7 21.2 2.8 20.9 2.8 20.5 2.9 20.1 2.9 20.1 2.9 20 3 19.9 3 19.8 3 19.7 3 19.6 3 19.5 3 19.4 3 19.3 3 19.2 3 19.1 3 19 3 18.9 3.1 18.8 3.1 18.7 3.1 18.6 3.1 18.5 3.1 18.4 3.1 18.3 3.1 18.2 3.1 18.1 3.1 18 3.1 17.9 3.1 17.8 3 17.7 3 17.6 3 17.5 3 17.4 3 17.3 2.9 17.2 2.9 17.1 2.9 17 2.9 16.9 2.9 16.9 2.9 16.9 3 16.9 3 16.9 3.1 16.9 3.2 16.9 3.2 16.9 3.2 17 3.3 17 3.3 17 3.4 17.1 3.4 17.1 3.5 17.1 3.5 17.2 3.5 17.2 3.6 17.2 3.6 17.3 3.7 17.3 3.7 17.4 3.7 17.4 3.8 17.5 3.8 17.5 3.8 17.6 3.8 17.6 3.9 17.7 3.9 17.8 3.9 17.8 3.9 17.8 4 17.9 4 18 4 18 4 18.1 4.1 18.1"/><polygon class="cls-1" points="9.2 15.7 9.2 15.7 9.1 15.8 9.1 15.8 9.1 15.9 9 15.9 8.9 16 8.9 16 8.8 16.1 8.8 16.1 8.7 16.1 8.7 16.2 8.6 16.2 8.6 16.3 8.5 16.3 8.4 16.4 8.4 16.4 8.3 16.4 8.3 16.4 8.2 16.5 8.1 16.5 8.1 16.5 8 16.5 7.9 16.6 7.9 16.6 7.8 16.6 7.7 16.6 7.6 16.6 7.6 16.6 7.5 16.6 7.4 16.6 7.3 16.6 7.3 16.6 7.3 16.6 7.2 16.6 7.2 16.6 7.2 16.6 7.1 16.6 7.1 16.6 7 16.6 7 16.5 6.9 16.5 6.9 16.5 6.9 16.5 6.8 16.5 6.8 16.5 6.8 16.5 6.7 16.5 6.7 16.4 6.7 16.4 6.6 16.4 6.6 16.4 6.6 16.3 6.6 16.3 6.5 16.3 6.5 16.3 6.4 16.3 6.4 16.2 6.4 16.2 6.3 16.2 6.3 16.2 6.3 16.2 6.2 16.2 6.2 16.2 6.2 16.1 6.2 16.1 6.2 16.1 6.2 16.1 6.3 16.1 6.3 16.1 6.4 16.1 6.5 16.1 6.5 16.1 6.6 16.1 6.7 16.1 6.7 16.1 6.8 16.1 6.8 16.1 6.9 16.1 7 16.1 7 16.1 7.1 16.1 7.2 16.1 7.2 16.1 7.3 16.1 7.3 16.1 7.4 16.1 7.5 16.1 7.5 16 7.6 16 7.7 16 7.7 16 7.8 16 7.8 15.9 7.9 15.9 8 15.9 8 15.8 8.1 15.8 8.1 15.8 8.1 15.8 8.2 15.8 8.2 15.7 8.3 15.7 8.3 15.7 8.4 15.6 8.4 15.6 8.4 15.6 8.5 15.6 8.5 15.5 8.6 15.5 8.6 15.5 8.6 15.5 8.7 15.4 8.7 15.4 8.8 15.4 8.8 15.4 8.9 15.3 8.9 15.3 8.9 15.3 9 15.2 9 15.2 9 15.2 9.1 15.2 9.1 15.1 9.1 15.1 9.2 15.1 9.2 15 9.2 15 9.3 15 9.3 15 9.3 14.9 9.4 14.9 9.4 14.9 9.4 14.9 9.4 15 9.4 15 9.4 15 9.4 15 9.4 15.1 9.5 15.1 9.5 15.1 9.5 15.2 9.5 15.2 9.5 15.2 9.5 15.2 9.5 15.2 9.5 15.3 9.4 15.3 9.4 15.3 9.4 15.3 9.4 15.4 9.4 15.4 9.4 15.4 9.4 15.4 9.4 15.5 9.4 15.5 9.4 15.5 9.3 15.5 9.3 15.5 9.3 15.6 9.3 15.6 9.3 15.6 9.3 15.6 9.2 15.6 9.2 15.7"/><polygon class="cls-1" points="18.1 12 18.2 12.2 18.2 12.3 18.3 12.4 18.4 12.5 18.5 12.6 18.5 12.8 18.6 12.9 18.6 13 18.7 13.1 18.7 13.2 18.8 13.4 18.8 13.5 18.8 13.7 18.9 13.8 18.9 13.9 19 14 19 14.2 19 14.3 19 14.4 19.1 14.6 19.1 14.7 19.1 14.9 19.1 15 19.2 15.1 19.2 15.2 19.2 15.4 19.3 15.5 19.3 15.6 19.4 15.8 19.4 15.9 19.5 16 19.6 16.1 19.6 16.1 19.6 16.2 19.7 16.3 19.7 16.4 19.7 16.4 19.8 16.5 19.8 16.6 19.9 16.7 19.9 16.7 20 16.8 20 16.9 20 17 20 17 20.1 17.1 20.1 17.2 20.2 17.3 20.2 17.4 20.2 17.5 20.3 17.5 20.3 17.6 20.4 17.7 20.4 17.8 20.5 17.8 20.5 17.9 20.5 18 20.6 18.1 20.6 18.1 20.7 18.2 20.7 18.3 20.8 18.3 20.8 18.4 20.9 18.5 20.9 18.5 20.9 18.5 20.9 18.6 20.9 18.6 20.9 18.6 20.9 18.6 20.9 18.6 20.9 18.7 20.9 18.7 20.9 18.7 20.9 18.7 20.9 18.7 20.9 18.7 20.9 18.7 20.9 18.8 20.8 18.8 20.8 18.8 20.8 18.8 20.8 18.8 20.8 18.8 20.8 18.8 20.8 18.8 20.7 18.8 20.7 18.8 20.7 18.8 20.7 18.8 20.7 18.8 20.6 18.8 20.6 18.9 20.6 18.9 20.6 18.9 20.6 18.9 20.5 18.9 20.5 18.9 20.5 18.9 20.4 18.8 20.3 18.8 20.2 18.7 20 18.6 19.9 18.5 19.8 18.5 19.7 18.4 19.6 18.3 19.5 18.2 19.4 18.1 19.3 18 19.2 17.9 19.1 17.8 19.1 17.7 19 17.6 18.9 17.5 18.8 17.3 18.8 17.2 18.7 17.1 18.6 17 18.6 16.9 18.5 16.7 18.5 16.6 18.4 16.5 18.3 16.4 18.3 16.2 18.2 16.1 18.2 16 18.1 15.8 18.1 15.7 18 15.6 18 15.5 18 15.5 17.9 15.3 17.9 15.2 17.9 15.1 17.9 15 17.8 14.9 17.8 14.8 17.8 14.7 17.8 14.6 17.8 14.5 17.8 14.3 17.8 14.2 17.7 14.1 17.8 14 17.7 13.9 17.7 13.8 17.7 13.7 17.8 13.6 17.8 13.5 17.8 13.4 17.8 13.3 17.8 13.2 17.8 13.1 17.8 13 17.8 12.8 17.9 12.7 17.9 12.6 17.9 12.5 17.9 12.5 18 12.3 18 12.2 18 12.2 18.1 12"/><polygon class="cls-1" points="54.7 6.5 54.7 6.6 54.8 6.7 54.9 6.8 54.9 6.8 55 7 55.1 7 55.1 7.1 55.2 7.2 55.2 7.3 55.3 7.4 55.4 7.5 55.4 7.7 55.5 7.8 55.5 7.9 55.6 8 55.6 8.1 55.7 8.2 55.7 8.3 55.7 8.4 55.8 8.5 55.8 8.6 55.8 8.7 55.8 8.9 55.8 9 55.8 9.1 55.8 9.2 55.8 9.3 55.8 9.4 55.7 9.5 55.7 9.6 55.7 9.7 55.6 9.8 55.6 9.8 55.6 9.8 55.6 9.8 55.6 9.8 55.6 9.8 55.6 9.8 55.6 9.8 55.5 9.8 55.5 9.8 55.5 9.8 55.5 9.8 55.5 9.8 55.5 9.8 55.5 9.8 55.5 9.8 55.5 9.8 55.5 9.8 55.5 9.8 55.5 9.8 55.5 9.8 55.5 9.8 55.5 9.8 55.5 9.8 55.5 9.8 55.5 9.8 55.5 9.8 55.5 9.8 55.5 9.8 55.5 9.8 55.5 9.8 55.5 9.8 55.5 9.8 55.5 9.7 55.5 9.7 55.5 9.5 55.5 9.3 55.4 9 55.3 8.8 55.3 8.6 55.2 8.4 55.1 8.2 55 8 54.9 7.9 54.8 7.7 54.6 7.5 54.5 7.4 54.3 7.2 54.2 7 54 6.9 53.9 6.8 53.7 6.6 53.5 6.5 53.3 6.4 53.2 6.3 53 6.2 52.8 6.1 52.6 6 52.4 5.9 52.2 5.8 52 5.7 51.8 5.6 51.6 5.5 51.4 5.5 51.2 5.4 51 5.3 50.8 5.3 50.8 5.3 50.6 5.2 50.4 5.2 50.2 5.1 49.9 5.1 49.7 5.1 49.5 5 49.2 5 49 5 48.8 5 48.5 4.9 48.3 4.9 48.1 4.9 47.8 4.9 47.6 4.8 47.4 4.8 47.1 4.8 46.9 4.8 46.7 4.8 46.4 4.8 46.2 4.8 46 4.8 45.7 4.8 45.5 4.8 45.3 4.8 45 4.8 44.8 4.8 44.5 4.8 44.3 4.9 44.1 4.9 43.8 5 43.6 5 43.4 5 43.4 5 43.3 5 43.2 5 43.2 5 43.1 5.1 43.1 5.1 43 5.1 42.9 5.1 42.9 5.1 42.8 5.1 42.7 5.1 42.7 5.1 42.6 5.2 42.5 5.2 42.5 5.2 42.4 5.2 42.4 5.2 42.3 5.2 42.2 5.2 42.2 5.3 42.1 5.3 42.1 5.3 42 5.3 41.9 5.3 41.9 5.3 41.8 5.3 41.7 5.3 41.7 5.3 41.6 5.3 41.6 5.3 41.5 5.3 41.4 5.2 41.4 5.2 41.4 5.2 41.6 5.2 41.8 5.1 41.9 5 42.1 4.9 42.3 4.9 42.5 4.8 42.7 4.7 42.9 4.6 43 4.5 43.2 4.5 43.5 4.4 43.7 4.3 43.8 4.2 44 4.2 44.2 4.1 44.4 4 44.6 4 44.8 3.9 45 3.9 45.2 3.8 45.4 3.7 45.6 3.7 45.8 3.6 46 3.6 46.2 3.6 46.4 3.5 46.6 3.5 46.8 3.5 47 3.5 47.2 3.5 47.4 3.5 47.6 3.5 47.6 3.5 47.8 3.5 48.1 3.5 48.4 3.5 48.6 3.5 48.9 3.5 49.1 3.5 49.4 3.6 49.6 3.6 49.9 3.7 50.1 3.8 50.3 3.8 50.6 3.9 50.8 4 51.1 4.1 51.3 4.2 51.5 4.3 51.8 4.4 52 4.5 52.2 4.6 52.4 4.8 52.6 4.9 52.8 5 53 5.1 53.2 5.3 53.4 5.4 53.6 5.6 53.8 5.7 54 5.9 54.2 6 54.3 6.2 54.5 6.3 54.7 6.5"/><polygon class="cls-1" points="22.5 17.2 22.5 17.2 22.6 17.3 22.6 17.3 22.6 17.4 22.7 17.5 22.7 17.5 22.7 17.6 22.8 17.7 22.8 17.7 22.8 17.8 22.9 17.9 22.9 17.9 22.9 18 22.9 18.1 23 18.1 23 18.2 23 18.2 23.1 18.3 23.1 18.4 23.1 18.4 23.2 18.5 23.2 18.6 23.2 18.6 23.3 18.7 23.3 18.8 23.3 18.8 23.4 18.9 23.4 18.9 23.4 19 23.5 19.1 23.5 19.1 23.6 19.2 23.6 19.2 23.5 19.2 23.5 19.2 23.5 19.2 23.5 19.2 23.5 19.2 23.5 19.3 23.5 19.3 23.5 19.3 23.5 19.3 23.4 19.3 23.4 19.3 23.4 19.3 23.4 19.3 23.4 19.3 23.4 19.3 23.4 19.3 23.4 19.3 23.3 19.3 23.3 19.3 23.3 19.3 23.3 19.2 23.3 19.2 23.3 19.2 23.2 19.2 23.2 19.2 23.2 19.2 23.2 19.2 23.2 19.2 23.2 19.2 23.2 19.2 23.2 19.2 23.1 19.2 23.1 19.2 23 19.1 22.8 19 22.6 18.9 22.5 18.8 22.3 18.6 22.2 18.5 22 18.3 21.9 18.1 21.7 18 21.6 17.8 21.5 17.6 21.4 17.4 21.3 17.2 21.2 17 21 16.8 21 16.7 20.9 16.4 20.8 16.2 20.7 16 20.7 15.8 20.6 15.6 20.6 15.4 20.5 15.2 20.5 14.9 20.5 14.7 20.5 14.5 20.4 14.3 20.4 14.1 20.4 13.9 20.4 13.7 20.5 13.5 20.5 13.2 20.5 13.2 20.5 13.2 20.5 13.2 20.5 13.2 20.5 13.2 20.5 13.2 20.5 13.2 20.5 13.2 20.6 13.2 20.6 13.3 20.6 13.3 20.6 13.3 20.6 13.3 20.6 13.3 20.6 13.3 20.6 13.3 20.6 13.3 20.7 13.4 20.7 13.4 20.7 13.4 20.7 13.4 20.7 13.4 20.7 13.4 20.7 13.4 20.7 13.5 20.7 13.5 20.8 13.5 20.8 13.5 20.8 13.5 20.8 13.5 20.8 13.5 20.8 13.5 20.8 13.5 20.8 13.5 20.9 13.6 21 13.8 21 13.8 21.1 14 21.1 14.1 21.2 14.2 21.2 14.3 21.3 14.4 21.3 14.5 21.4 14.6 21.4 14.8 21.5 14.9 21.5 15 21.6 15.1 21.6 15.2 21.7 15.3 21.7 15.5 21.8 15.6 21.8 15.7 21.9 15.8 21.9 15.9 22 16 22 16.2 22.1 16.3 22.1 16.4 22.2 16.5 22.2 16.6 22.3 16.7 22.3 16.8 22.4 17 22.4 17.1 22.5 17.2"/><polygon class="cls-1" points="1.5 22.3 1.6 22.5 1.6 22.7 1.6 22.8 1.6 23 1.7 23.2 1.7 23.3 1.7 23.5 1.7 23.7 1.6 23.8 1.6 24 1.6 24.1 1.6 24.3 1.6 24.4 1.5 24.6 1.5 24.7 1.5 24.9 1.5 25.1 1.4 25.2 1.4 25.4 1.3 25.5 1.3 25.7 1.3 25.8 1.2 26 1.2 26.2 1.2 26.3 1.2 26.5 1.2 26.6 1.2 26.8 1.2 26.9 1.1 27.1 1.2 27.2 1.2 27.4 1.2 27.4 1.1 27.5 1.1 27.5 1.1 27.6 1.1 27.7 1.1 27.7 1.1 27.8 1.1 27.8 1.1 27.9 1.1 28 1.1 28 1.1 28.1 1.1 28.2 1.1 28.2 1.1 28.3 1.1 28.3 1.1 28.4 1.1 28.5 1.1 28.5 1.1 28.6 1.1 28.7 1.1 28.7 1.1 28.8 1.2 28.8 1.2 28.9 1.2 29 1.2 29 1.2 29.1 1.2 29.2 1.2 29.2 1.2 29.3 1.3 29.3 1.3 29.4 1.3 29.4 1.3 29.4 1.3 29.4 1.3 29.4 1.3 29.4 1.3 29.4 1.2 29.4 1.2 29.4 1.2 29.4 1.2 29.4 1.2 29.4 1.2 29.4 1.2 29.4 1.2 29.4 1.2 29.4 1.2 29.4 1.2 29.4 1.2 29.4 1.2 29.4 1.2 29.4 1.2 29.4 1.2 29.4 1.2 29.4 1.2 29.4 1.2 29.4 1.2 29.4 1.2 29.4 1.2 29.4 1.2 29.4 1.2 29.4 1.2 29.4 1.2 29.4 1.2 29.4 1.2 29.4 1.1 29.3 0.9 29.2 0.8 29 0.7 28.9 0.6 28.8 0.5 28.6 0.4 28.4 0.3 28.3 0.3 28.1 0.2 27.9 0.2 27.8 0.1 27.6 0.1 27.4 0.1 27.2 0.1 27 0 26.8 0 26.7 0 26.5 0 26.3 0 26.1 0 25.9 0 25.7 0 25.5 0.1 25.3 0.1 25.1 0.1 24.9 0.1 24.8 0.1 24.6 0.2 24.4 0.2 24.2 0.2 24 0.2 23.9 0.2 23.9 0.3 23.8 0.3 23.7 0.3 23.5 0.3 23.4 0.3 23.3 0.4 23.2 0.4 23.1 0.4 23 0.4 22.9 0.4 22.8 0.4 22.7 0.4 22.5 0.4 22.4 0.5 22.3 0.5 22.2 0.5 22.1 0.5 22 0.5 21.9 0.5 21.8 0.5 21.7 0.5 21.5 0.5 21.5 0.5 21.3 0.5 21.2 0.5 21.1 0.5 21 0.5 20.9 0.5 20.8 0.5 20.7 0.5 20.5 0.5 20.5 0.5 20.3 0.5 20.3 0.6 20.4 0.6 20.4 0.7 20.4 0.8 20.5 0.8 20.5 0.9 20.6 0.9 20.6 1 20.7 1 20.8 1 20.8 1.1 20.9 1.1 20.9 1.1 21 1.2 21.1 1.2 21.1 1.2 21.2 1.2 21.3 1.3 21.3 1.3 21.4 1.3 21.5 1.3 21.6 1.3 21.6 1.3 21.7 1.4 21.8 1.4 21.8 1.4 21.9 1.4 22 1.5 22.1 1.5 22.2 1.5 22.2 1.5 22.3 1.5 22.3"/><polygon class="cls-1" points="52.8 9 52.9 9.2 53.1 9.5 53.2 9.7 53.4 9.9 53.5 10.2 53.7 10.4 53.8 10.7 53.9 11 54 11.2 54.1 11.5 54.2 11.7 54.2 12 54.3 12.3 54.3 12.5 54.4 12.8 54.4 13.1 54.5 13.4 54.5 13.7 54.5 13.9 54.5 14.2 54.5 14.5 54.5 14.8 54.5 15 54.4 15.3 54.4 15.6 54.3 15.8 54.2 16.1 54.2 16.4 54.1 16.6 54 16.9 53.9 17.1 53.8 17.3 53.8 17.3 53.8 17.5 53.8 17.5 53.7 17.6 53.7 17.7 53.7 17.8 53.6 17.8 53.6 17.9 53.5 18 53.5 18.1 53.5 18.1 53.4 18.2 53.4 18.3 53.3 18.3 53.3 18.4 53.2 18.5 53.2 18.5 53.1 18.6 53.1 18.7 53 18.7 53 18.8 52.9 18.8 52.8 18.9 52.8 19 52.7 19 52.7 19 52.6 19.1 52.5 19.2 52.4 19.2 52.4 19.2 52.3 19.3 52.2 19.3 52.2 19.3 52.2 19.3 52.2 19.4 52.2 19.5 52.3 19.5 52.3 19.6 52.4 19.6 52.4 19.7 52.4 19.7 52.5 19.8 52.5 19.8 52.5 19.9 52.6 20 52.6 20 52.7 20.1 52.7 20.2 52.7 20.2 52.8 20.3 52.8 20.3 52.8 20.4 52.8 20.4 52.9 20.5 52.9 20.6 52.9 20.6 53 20.7 53 20.8 53 20.8 53 20.9 53.1 21 53.1 21 53.1 21.1 53.1 21.2 53.1 21.2 53.2 21.3 53.2 21.3 53.2 21.2 53.3 21.2 53.4 21.2 53.5 21.1 53.6 21 53.7 21 53.7 20.9 53.8 20.9 53.9 20.8 54 20.8 54 20.7 54.1 20.6 54.2 20.5 54.3 20.5 54.4 20.4 54.5 20.3 54.5 20.3 54.6 20.2 54.7 20.2 54.8 20.1 54.8 20 54.9 20 55 19.9 55 19.8 55.1 19.7 55.2 19.7 55.3 19.6 55.3 19.5 55.4 19.5 55.5 19.4 55.5 19.3 55.6 19.2 55.6 19.2 55.6 19.2 55.7 19.1 55.7 19 55.7 18.9 55.7 18.9 55.7 18.8 55.8 18.7 55.8 18.6 55.8 18.5 55.8 18.5 55.8 18.4 55.8 18.3 55.8 18.2 55.8 18.1 55.7 18 55.7 18 55.7 17.9 55.7 17.8 55.7 17.7 55.6 17.6 55.6 17.6 55.6 17.5 55.5 17.4 55.5 17.3 55.5 17.3 55.4 17.2 55.4 17.1 55.3 17 55.3 17 55.3 16.9 55.2 16.8 55.2 16.8 55.2 16.8 55.2 16.8 55.2 16.7 55.1 16.7 55.1 16.7 55.1 16.7 55.1 16.6 55 16.6 55 16.6 55 16.5 55 16.5 55 16.5 54.9 16.5 54.9 16.5 54.9 16.4 54.9 16.4 54.8 16.4 54.8 16.4 54.8 16.3 54.8 16.3 54.8 16.3 54.7 16.2 54.7 16.2 54.7 16.2 54.7 16.2 54.7 16.1 54.7 16.1 54.6 16.1 54.6 16.1 54.6 16 54.6 16 54.6 16 54.6 15.9 54.6 15.9 54.6 16 54.7 16 54.7 16 54.7 16 54.7 16 54.7 16 54.8 16 54.8 16 54.8 16 54.8 16 54.9 16 54.9 16 54.9 16 55 16 55 16 55 16.1 55 16.1 55 16.1 55.1 16.1 55.1 16.1 55.1 16.1 55.1 16.1 55.2 16.1 55.2 16.1 55.2 16.1 55.2 16.1 55.3 16.1 55.3 16.1 55.3 16.1 55.3 16.1 55.4 16.1 55.4 16.1 55.4 16.1 55.5 16.2 55.5 16.2 55.6 16.3 55.6 16.3 55.7 16.4 55.7 16.4 55.8 16.5 55.8 16.5 55.8 16.6 55.9 16.6 56 16.7 56 16.8 56 16.8 56.1 16.9 56.1 16.9 56.1 17 56.2 17.1 56.2 17.1 56.2 17.2 56.3 17.3 56.3 17.3 56.3 17.4 56.4 17.5 56.4 17.5 56.4 17.6 56.4 17.7 56.5 17.8 56.5 17.8 56.5 17.9 56.5 18 56.6 18 56.6 18.1 56.6 18.1 56.6 18.1 56.6 18.1 56.6 18.1 56.7 18.1 56.7 18.1 56.7 18.1 56.7 18.1 56.7 18 56.7 18 56.8 18 56.8 18 56.8 18 56.8 18 56.8 18 56.8 18 56.8 17.9 56.9 17.9 56.9 17.9 56.9 17.9 56.9 17.9 56.9 17.8 56.9 17.8 57 17.8 56.9 17.8 57 17.8 57 17.8 57 17.7 57 17.7 57 17.7 57 17.7 57 17.7 57 17.6 57 17.6 57 17.7 57 17.7 57 17.6 57 17.6 57 17.6 57 17.6 57 17.6 57 17.6 57 17.6 57 17.6 57 17.6 57 17.6 57 17.6 57 17.6 57 17.6 57.1 17.5 57.1 17.5 57.1 17.5 57.1 17.5 57.1 17.5 57.1 17.5 57.1 17.5 57.1 17.5 57.1 17.5 57.1 17.5 57.1 17.5 57.1 17.5 57.1 17.5 57.2 17.5 57.2 17.5 57.2 17.5 57.2 17.5 57.2 17.5 57.2 17.4 57.2 17.4 57.2 17.4 57.2 17.4 57.2 17.3 57.2 17.3 57.2 17.3 57.3 17.3 57.3 17.2 57.3 17.2 57.3 17.2 57.3 17.2 57.3 17.1 57.3 17.1 57.3 17.1 57.3 17 57.4 17 57.4 17 57.4 17 57.4 16.9 57.4 16.9 57.4 16.9 57.4 16.9 57.4 16.8 57.4 16.8 57.4 16.8 57.4 16.8 57.4 16.7 57.4 16.7 57.4 16.7 57.4 16.6 57.4 16.6 57.4 16.6 57.4 16.6 57.4 16.6 57.5 16.6 57.5 16.6 57.5 16.6 57.5 16.5 57.5 16.5 57.5 16.5 57.5 16.5 57.5 16.5 57.5 16.5 57.5 16.5 57.5 16.5 57.5 16.4 57.4 16.4 57.4 16.4 57.4 16.4 57.4 16.4 57.4 16.4 57.4 16.3 57.4 16.3 57.4 16.3 57.4 16.3 57.4 16.3 57.4 16.2 57.4 16.2 57.4 16.2 57.4 16.2 57.4 16.2 57.4 16.2 57.4 16.2 57.4 16.1 57.4 16.1 57.4 16.1 57.4 16.1 57.4 16.1 57.3 16.1 57.3 16.1 57.3 16 57.3 16 57.3 16 57.3 16 57.3 16 57.3 16 57.2 16 57.2 15.9 57.2 15.9 57.2 15.9 57.2 15.9 57.2 15.9 57.2 15.9 57.1 15.9 57.1 15.8 57.1 15.8 57.1 15.8 57 15.8 57 15.8 57 15.8 57 15.8 57 15.8 57 15.8 56.9 15.7 56.9 15.7 56.9 15.7 56.9 15.7 56.9 15.7 57 15.7 57 15.7 57 15.7 57.1 15.7 57.1 15.8 57.2 15.8 57.2 15.8 57.2 15.8 57.3 15.8 57.3 15.8 57.3 15.8 57.4 15.8 57.4 15.9 57.4 15.9 57.5 15.9 57.5 15.9 57.5 16 57.6 16 57.6 16 57.6 16.1 57.7 16.1 57.7 16.1 57.7 16.2 57.8 16.2 57.8 16.2 57.8 16.3 57.8 16.3 57.8 16.4 57.9 16.4 57.9 16.4 57.9 16.5 58 16.5 58 16.5 58 16.5 58 16.6 58 16.6 58 16.7 58 16.7 58 16.7 58 16.7 58 16.8 58.1 16.8 58.1 16.8 58.1 16.9 58.1 16.9 58.1 16.9 58.1 17 58.1 17 58.1 17 58.1 17.1 58.1 17.1 58.1 17.1 58.1 17.1 58.1 17.2 58.1 17.2 58.1 17.2 58.1 17.3 58.1 17.3 58.1 17.3 58.1 17.4 58.1 17.4 58.1 17.4 58.1 17.4 58.1 17.5 58.1 17.5 58.1 17.5 58 17.7 57.9 17.8 57.8 18 57.7 18.2 57.6 18.3 57.5 18.5 57.4 18.7 57.3 18.8 57.2 19 57 19.1 56.9 19.3 56.8 19.4 56.7 19.5 56.6 19.7 56.4 19.8 56.3 20 56.2 20.1 56 20.3 55.9 20.4 55.8 20.6 55.6 20.7 55.5 20.8 55.4 21 55.2 21.1 55.1 21.2 54.9 21.3 54.8 21.5 54.6 21.6 54.5 21.7 54.3 21.8 54.2 21.9 54 22 54 22 53.9 22.1 53.9 22.2 53.8 22.3 53.7 22.4 53.7 22.4 53.6 22.5 53.5 22.6 53.4 22.6 53.4 22.7 53.3 22.7 53.2 22.8 53.1 22.8 53 22.9 53 23 52.9 23 52.8 23.1 52.7 23.1 52.6 23.2 52.5 23.2 52.4 23.3 52.3 23.3 52.2 23.4 52.2 23.4 52.1 23.5 52 23.5 51.9 23.6 51.8 23.6 51.7 23.7 51.7 23.7 51.5 23.8 51.5 23.8 51.4 23.9 51.4 23.9 51 24.1 50.5 24.4 50 24.6 49.6 24.8 49.2 25 48.7 25.3 48.3 25.5 47.8 25.7 47.3 26 46.9 26.2 46.4 26.4 46 26.6 45.5 26.9 45.1 27.1 44.6 27.3 44.2 27.5 43.7 27.7 43.2 28 42.8 28.2 42.3 28.4 41.8 28.6 41.4 28.8 40.9 29 40.4 29.2 39.9 29.4 39.5 29.6 39 29.8 38.5 30 38 30.1 37.5 30.3 37 30.5 36.5 30.6 36.5 30.6 36.1 30.8 35.7 30.9 35.3 31.1 34.9 31.2 34.5 31.4 34.1 31.5 33.7 31.7 33.2 31.8 32.8 31.9 32.4 32.1 32 32.2 31.6 32.3 31.2 32.4 30.8 32.6 30.4 32.7 29.9 32.8 29.5 32.9 29.1 33 28.7 33.2 28.3 33.3 27.9 33.4 27.5 33.5 27 33.6 26.6 33.7 26.2 33.8 25.8 33.9 25.4 34 25 34.1 24.5 34.2 24.1 34.3 23.7 34.4 23.3 34.5 23.3 34.5 22.8 34.6 22.2 34.7 21.8 34.8 21.2 34.9 20.7 35 20.2 35 19.7 35.1 19.2 35.2 18.7 35.2 18.2 35.3 17.6 35.4 17.1 35.4 16.6 35.5 16.1 35.5 15.6 35.6 15.1 35.6 14.6 35.7 14.1 35.7 13.6 35.7 13.1 35.8 12.6 35.8 12.1 35.8 11.6 35.8 11.1 35.8 10.6 35.8 10 35.8 9.6 35.8 9.1 35.8 8.5 35.7 8 35.7 7.5 35.6 7 35.6 7 35.6 6.8 35.5 6.6 35.5 6.3 35.5 6.1 35.4 5.9 35.3 5.7 35.3 5.4 35.2 5.2 35.2 5 35.1 4.8 35 4.6 34.9 4.4 34.8 4.2 34.7 4 34.6 3.8 34.5 3.6 34.4 3.4 34.2 3.2 34.1 3 34 2.9 33.8 2.7 33.6 2.5 33.5 2.4 33.3 2.2 33.1 2.1 32.9 2 32.7 1.8 32.5 1.7 32.3 1.6 32.1 1.5 31.9 1.4 31.6 1.3 31.4 1.3 31.4 1.3 31.4 1.4 31.4 1.4 31.4 1.4 31.4 1.4 31.4 1.5 31.4 1.5 31.5 1.5 31.5 1.5 31.5 1.5 31.5 1.5 31.5 1.6 31.5 1.6 31.5 1.6 31.5 1.6 31.5 1.7 31.5 1.7 31.6 1.7 31.6 1.7 31.6 1.7 31.6 1.8 31.6 1.8 31.7 1.8 31.7 1.8 31.7 1.9 31.7 1.9 31.7 1.9 31.7 1.9 31.7 1.9 31.8 2 31.8 2 31.8 2 31.8 2 31.8 2.1 31.8 2.1 31.9 2.2 32 2.2 32.1 2.3 32.2 2.3 32.2 2.4 32.3 2.5 32.4 2.6 32.5 2.6 32.5 2.7 32.6 2.8 32.7 2.9 32.7 2.9 32.8 3 32.9 3.1 32.9 3.2 33 3.2 33 3.3 33.1 3.4 33.2 3.5 33.2 3.6 33.3 3.7 33.3 3.8 33.4 3.8 33.4 3.9 33.5 4 33.5 4.1 33.6 4.2 33.6 4.3 33.7 4.4 33.7 4.5 33.7 4.5 33.7 4.7 33.8 4.9 33.9 5.1 34 5.3 34 5.5 34.1 5.7 34.2 5.9 34.2 6.1 34.2 6.3 34.3 6.5 34.3 6.8 34.3 7 34.4 7.2 34.4 7.4 34.4 7.6 34.4 7.8 34.5 8 34.5 8.2 34.5 8.4 34.5 8.7 34.5 8.9 34.5 9.1 34.5 9.3 34.5 9.5 34.5 9.7 34.5 9.9 34.5 10.1 34.5 10.4 34.5 10.6 34.5 10.8 34.5 11 34.5 11.2 34.5 11.2 34.5 12 34.4 12.7 34.4 13.4 34.3 14.2 34.3 14.9 34.2 15.7 34.1 16.4 34 17.2 34 18 33.8 18.7 33.7 19.5 33.6 20.2 33.5 21 33.4 21.7 33.2 22.5 33.1 23.2 32.9 24 32.8 24.7 32.6 25.5 32.4 26.2 32.2 27 32 27.8 31.8 28.5 31.6 29.3 31.4 30 31.2 30.8 31 31.5 30.7 32.3 30.5 33 30.2 33.7 30 34.5 29.7 35.2 29.4 35.2 29.4 35.2 29.4 35.2 29.4 35.2 29.4 35.2 29.4 35.2 29.4 35.2 29.4 35.2 29.4 35.2 29.4 35.2 29.4 35.3 29.4 35.3 29.4 35.3 29.4 35.3 29.4 35.3 29.4 35.3 29.4 35.3 29.4 35.3 29.4 35.3 29.4 35.3 29.4 35.3 29.4 35.3 29.3 35.3 29.3 35.3 29.3 35.3 29.3 35.3 29.3 35.3 29.3 35.3 29.3 35.3 29.3 35.3 29.3 35.3 29.3 35.3 29.3 35.3 29.3 35.3 29.3 35.2 29.2 35.1 29.2 35 29.2 34.9 29.1 34.8 29.1 34.7 29 34.6 29 34.5 28.9 34.3 28.8 34.2 28.8 34.2 28.7 34 28.7 33.9 28.6 33.8 28.5 33.7 28.5 33.7 28.4 33.6 28.3 33.5 28.2 33.4 28.1 33.3 28 33.2 28 33.2 27.9 33.1 27.8 33 27.7 33 27.6 32.9 27.5 32.9 27.3 32.8 27.2 32.8 27.1 32.8 27 32.7 26.8 32.7 26.7 32.7 26.7 32.7 26.6 32.7 26.6 32.7 26.5 32.7 26.4 32.7 26.3 32.7 26.3 32.7 26.2 32.7 26.1 32.7 26 32.7 26 32.8 25.9 32.8 25.8 32.8 25.8 32.8 25.7 32.8 25.6 32.8 25.5 32.9 25.5 32.9 25.4 32.9 25.3 33 25.3 33 25.2 33 25.2 33.1 25.1 33.1 25 33.2 25 33.2 24.9 33.3 24.9 33.3 24.8 33.4 24.8 33.4 24.7 33.5 24.7 33.5 24.6 33.5 24.6 33.5 24.7 33.6 24.7 33.6 24.8 33.6 24.8 33.6 24.9 33.6 24.9 33.6 25 33.6 25 33.6 25 33.6 25.1 33.6 25.2 33.6 25.2 33.5 25.2 33.5 25.3 33.5 25.3 33.5 25.4 33.5 25.4 33.5 25.5 33.5 25.5 33.5 25.5 33.5 25.6 33.5 25.7 33.4 25.7 33.4 25.8 33.4 25.8 33.4 25.8 33.4 25.9 33.4 25.9 33.4 26 33.4 26 33.4 26.1 33.4 26.1 33.4 26.1 33.4 26.2 33.4 26.3 33.4 26.4 33.5 26.5 33.5 26.6 33.5 26.7 33.6 26.7 33.6 26.8 33.6 26.9 33.7 27 33.7 27 33.8 27.1 33.8 27.2 33.9 27.2 33.9 27.3 34 27.4 34 27.4 34.1 27.5 34.2 27.6 34.2 27.6 34.3 27.7 34.3 27.7 34.4 27.8 34.5 27.8 34.5 27.9 34.6 27.9 34.7 28 34.8 28 34.8 28 34.9 28.1 35 28.1 35 28.1 35 28.1 35.1 28.2 35.1 28.2 35.2 28.2 35.2 28.2 35.3 28.2 35.3 28.2 35.3 28.2 35.4 28.2 35.4 28.3 35.5 28.3 35.5 28.3 35.6 28.3 35.6 28.3 35.7 28.3 35.7 28.3 35.8 28.3 35.8 28.3 35.8 28.3 35.9 28.3 35.9 28.3 36 28.3 36 28.3 36.1 28.2 36.1 28.2 36.1 28.2 36.2 28.2 36.2 28.2 36.3 28.2 36.3 28.2 36.3 28.1 36.4 28.1 36.4 28.1 36.4 28.1 36.4 28.1 36.5 28 36.5 28 36.5 28 36.5 28 36.5 28 36.5 28 36.5 27.9 36.5 27.9 36.5 27.9 36.6 27.9 36.6 27.9 36.6 27.9 36.6 27.8 36.6 27.8 36.6 27.8 36.7 27.8 36.7 27.8 36.7 27.8 36.7 27.8 36.7 27.8 36.8 27.8 36.8 27.8 36.8 27.8 36.8 27.8 36.8 27.8 36.9 27.8 36.9 27.8 36.9 27.8 36.9 27.8 37 27.8 37 27.8 37 27.8 37 27.9 37 27.9 37 27.9 37 27.9 37 27.9 37 28 37 28 37.1 28 37.1 28 37.1 28 37.1 28.1 37.1 28.1 37.1 28.1 37.1 28.1 37.1 28.1 37.1 28.2 37.1 28.2 37.1 28.2 37.1 28.2 37.1 28.2 37.2 28.3 37.2 28.3 37.2 28.3 37.2 28.3 37.2 28.3 37.2 28.4 37.2 28.4 37.2 28.4 37.1 28.4 37.2 28.5 37.1 28.5 37.1 28.5 37.1 28.5 37.1 28.5 37.1 28.5 37.1 28.5 37.1 28.5 37.1 28.5 37.1 28.5 37.1 28.5 37.1 28.5 37.1 28.5 37.1 28.6 37.1 28.6 37.1 28.6 37 28.6 37 28.6 37 28.6 37 28.6 37 28.6 37 28.6 37 28.6 37 28.6 37 28.6 37 28.7 37 28.7 37 28.7 37 28.7 37 28.7 37 28.7 37 28.7 37 28.7 37 28.7 37 28.7 37 28.7 37 28.7 37.2 28.7 37.5 28.6 37.8 28.5 38 28.4 38.2 28.3 38.5 28.2 38.8 28.2 39 28.1 39.3 28 39.5 27.9 39.8 27.8 40 27.8 40.2 27.7 40.5 27.6 40.7 27.5 41 27.4 41.2 27.3 41.5 27.2 41.7 27.1 41.9 27 42.2 26.9 42.4 26.8 42.6 26.7 42.9 26.6 43.1 26.5 43.3 26.4 43.6 26.3 43.8 26.2 44 26 44.3 25.9 44.5 25.8 44.7 25.7 44.7 25.7 44.7 25.7 44.7 25.7 44.7 25.7 44.7 25.7 44.7 25.7 44.7 25.7 44.7 25.7 44.7 25.7 44.7 25.7 44.7 25.7 44.7 25.7 44.7 25.7 44.7 25.7 44.7 25.7 44.7 25.7 44.8 25.7 44.8 25.7 44.8 25.7 44.8 25.7 44.8 25.7 44.8 25.7 44.8 25.7 44.8 25.7 44.8 25.7 44.8 25.7 44.8 25.7 44.8 25.7 44.8 25.7 44.8 25.7 44.8 25.7 44.8 25.7 44.8 25.6 44.8 25.6 44.8 25.6 44.9 25.6 44.9 25.6 45 25.6 45.1 25.5 45.1 25.5 45.2 25.5 45.2 25.5 45.3 25.5 45.4 25.4 45.4 25.4 45.5 25.4 45.5 25.4 45.6 25.3 45.7 25.3 45.7 25.3 45.8 25.2 45.9 25.2 45.9 25.2 46 25.2 46.1 25.1 46.1 25.1 46.2 25.1 46.2 25 46.3 25 46.4 25 46.5 25 46.5 24.9 46.6 24.9 46.6 24.8 46.7 24.8 46.8 24.8 46.8 24.8 46.7 24.8 46.7 24.7 46.7 24.7 46.6 24.7 46.6 24.7 46.5 24.7 46.5 24.7 46.4 24.6 46.4 24.6 46.3 24.6 46.3 24.6 46.3 24.6 46.2 24.6 46.2 24.6 46.1 24.6 46.1 24.6 46 24.6 46 24.6 46 24.6 45.9 24.6 45.8 24.6 45.8 24.6 45.7 24.6 45.7 24.6 45.7 24.6 45.6 24.6 45.5 24.6 45.5 24.7 45.5 24.6 45.4 24.7 45.3 24.7 45.3 24.7 45.3 24.7 45.2 24.7 45.1 24.7 45 24.8 45 24.8 44.9 24.8 44.8 24.9 44.7 24.9 44.6 24.9 44.5 25 44.4 25 44.3 25 44.2 25.1 44.2 25.1 44.1 25.2 44 25.2 43.9 25.3 43.8 25.3 43.7 25.4 43.7 25.5 43.6 25.5 43.5 25.6 43.4 25.7 43.3 25.7 43.3 25.8 43.2 25.9 43.2 26 43.1 26 43.1 26.1 43 26.2 43 26.3 42.9 26.4 42.9 26.5 42.9 26.5 42.9 26.5 42.9 26.5 42.9 26.5 42.8 26.5 42.8 26.5 42.8 26.5 42.8 26.5 42.8 26.5 42.8 26.5 42.8 26.5 42.8 26.5 42.8 26.5 42.8 26.5 42.8 26.4 42.8 26.5 42.7 26.4 42.7 26.4 42.7 26.4 42.7 26.4 42.7 26.4 42.7 26.4 42.7 26.4 42.7 26.3 42.7 26.3 42.7 26.3 42.7 26.3 42.7 26.3 42.7 26.3 42.7 26.3 42.7 26.3 42.7 26.3 42.7 26.2 42.7 26.2 42.7 26.2 42.8 26.2 42.8 26.1 42.8 26.1 42.8 26 42.8 26 42.8 26 42.8 25.9 42.8 25.8 42.9 25.8 42.9 25.8 42.9 25.7 42.9 25.7 42.9 25.6 42.9 25.5 42.9 25.5 42.9 25.5 43 25.4 43 25.4 43 25.3 43 25.3 43 25.2 43 25.2 43 25.1 43.1 25.1 43.1 25 43.1 25 43.1 24.9 43.2 24.9 43.2 24.9 43.2 24.8 43.3 24.8 43.3 24.8 43.3 24.7 43.4 24.7 43.4 24.6 43.5 24.5 43.5 24.5 43.6 24.5 43.7 24.4 43.8 24.3 43.8 24.3 43.9 24.2 44 24.2 44.1 24.2 44.1 24.1 44.2 24.1 44.3 24 44.4 24 44.5 24 44.5 23.9 44.6 23.9 44.7 23.9 44.8 23.9 44.9 23.8 45 23.8 45.1 23.8 45.2 23.8 45.2 23.8 45.3 23.8 45.4 23.8 45.5 23.8 45.6 23.8 45.7 23.8 45.8 23.8 45.8 23.8 45.8 23.8 45.9 23.8 45.9 23.8 46 23.8 46 23.9 46.1 23.9 46.2 23.9 46.2 23.9 46.3 23.9 46.3 23.9 46.4 23.9 46.4 24 46.5 24 46.5 24 46.6 24 46.6 24 46.7 24 46.7 24.1 46.8 24.1 46.8 24.1 46.8 24.1 46.9 24.2 46.9 24.2 47 24.2 47 24.2 47.1 24.2 47.1 24.3 47.2 24.3 47.2 24.3 47.2 24.4 47.3 24.4 47.3 24.4 47.3 24.4 47.3 24.4 47.3 24.4 47.3 24.4 47.3 24.4 47.3 24.4 47.3 24.4 47.3 24.4 47.3 24.4 47.3 24.4 47.4 24.4 47.4 24.4 47.4 24.4 47.4 24.4 47.4 24.4 47.4 24.4 47.4 24.5 47.4 24.5 47.4 24.5 47.4 24.5 47.4 24.5 47.4 24.5 47.4 24.5 47.4 24.5 47.4 24.5 47.4 24.5 47.4 24.5 47.4 24.5 47.4 24.5 47.4 24.5 47.4 24.5 47.4 24.5 47.4 24.5 47.4 24.5 47.6 24.4 47.7 24.3 47.9 24.2 48 24.2 48.2 24.1 48.3 24 48.5 23.9 48.7 23.9 48.8 23.8 49 23.7 49.1 23.6 49.3 23.6 49.4 23.5 49.6 23.4 49.7 23.3 49.9 23.3 50 23.2 50.2 23.1 50.3 23 50.5 23 50.7 22.9 50.8 22.8 51 22.8 51.1 22.7 51.3 22.6 51.4 22.5 51.5 22.4 51.7 22.3 51.8 22.3 52 22.2 52.1 22.1 52.3 22 52.3 22 52.2 21.8 52.2 21.7 52.1 21.5 52.1 21.3 52 21.2 52 21 51.9 20.9 51.8 20.8 51.7 20.7 51.6 20.5 51.5 20.4 51.4 20.3 51.3 20.2 51.2 20.1 51.1 20 51 19.9 50.9 19.8 50.8 19.7 50.6 19.6 50.5 19.5 50.4 19.5 50.2 19.4 50.1 19.3 50 19.3 49.8 19.2 49.7 19.2 49.5 19.1 49.4 19 49.2 19 49.1 19 48.9 18.9 48.8 18.9 48.8 18.9 48.6 18.9 48.5 18.8 48.3 18.8 48.2 18.8 48 18.8 47.8 18.8 47.7 18.8 47.5 18.8 47.3 18.8 47.2 18.8 47 18.7 46.9 18.7 46.7 18.7 46.5 18.7 46.3 18.7 46.2 18.7 46 18.7 45.9 18.7 45.7 18.7 45.5 18.8 45.4 18.8 45.2 18.8 45 18.8 44.9 18.8 44.7 18.8 44.5 18.9 44.4 18.9 44.2 19 44 19 43.9 19 43.7 19.1 43.5 19.1 43.5 19.1 43.5 19.1 43.5 19.1 43.5 19.1 43.5 19.1 43.5 19.1 43.5 19.1 43.5 19.1 43.5 19.1 43.4 19.1 43.4 19.1 43.4 19.1 43.4 19.1 43.4 19.1 43.4 19.1 43.4 19.1 43.4 19.1 43.3 19.1 43.3 19.1 43.3 19.1 43.3 19.1 43.3 19.1 43.3 19.1 43.3 19.1 43.3 19.1 43.3 19.1 43.3 19.1 43.2 19.1 43.2 19.1 43.2 19.1 43.2 19.1 43.2 19.1 43.2 19 43.2 19 43.2 19 43.2 19 43.2 19 43.2 19 43.2 19 43.2 19 43.2 19 43.2 19 43.2 19 43.2 19 43.2 19 43.2 19 43.2 19 43.2 19 43.2 19 43.2 19 43.2 18.9 43.2 18.9 43.3 18.9 43.3 18.9 43.3 18.9 43.3 18.9 43.3 18.9 43.3 18.9 43.3 18.9 43.3 18.9 43.3 18.9 43.3 18.9 43.3 18.9 43.3 18.9 43.3 18.9 43.3 18.8 43.3 18.8 43.6 18.7 43.8 18.6 44.1 18.5 44.3 18.4 44.6 18.3 44.8 18.2 45.1 18.1 45.3 18 45.6 17.9 45.9 17.8 46.1 17.8 46.4 17.7 46.7 17.7 46.9 17.7 47.2 17.6 47.5 17.6 47.7 17.6 48 17.6 48.3 17.6 48.5 17.6 48.8 17.7 49 17.7 49.3 17.8 49.5 17.8 49.8 17.9 50 18 50.3 18.1 50.5 18.2 50.7 18.3 51 18.4 51.2 18.6 51.4 18.7 51.4 18.7 51.6 18.6 51.7 18.5 51.8 18.4 51.9 18.3 52 18.2 52.1 18 52.2 17.9 52.3 17.8 52.4 17.6 52.5 17.5 52.5 17.3 52.6 17.2 52.7 17 52.7 16.9 52.8 16.8 52.8 16.6 52.8 16.4 52.9 16.3 52.9 16.1 53 16 53 15.8 53 15.7 53 15.5 53 15.3 53.1 15.2 53.1 15 53.1 14.8 53.1 14.7 53.1 14.5 53.1 14.3 53.1 14.2 53.1 14 53.1 14 53.1 13.8 53.1 13.6 53.1 13.3 53.1 13.1 53 12.9 53 12.6 53 12.4 52.9 12.2 52.8 12 52.8 11.7 52.7 11.5 52.6 11.3 52.5 11.1 52.4 10.9 52.3 10.7 52.2 10.5 52 10.2 51.9 10.1 51.8 9.9 51.6 9.7 51.5 9.5 51.3 9.3 51.2 9.2 51 9 50.8 8.9 50.6 8.7 50.4 8.6 50.3 8.5 50.1 8.3 49.9 8.2 49.7 8.1 49.5 8 49.5 8 49.2 7.9 48.9 7.8 48.6 7.7 48.3 7.6 48 7.6 47.7 7.5 47.3 7.5 47 7.5 46.7 7.4 46.4 7.4 46.1 7.5 45.8 7.5 45.4 7.5 45.1 7.6 44.8 7.6 44.4 7.7 44.1 7.8 43.8 7.9 43.5 8 43.2 8.1 42.9 8.2 42.5 8.4 42.2 8.5 42 8.7 41.7 8.8 41.4 9 41.1 9.1 40.8 9.3 40.6 9.5 40.3 9.7 40 9.9 39.8 10.1 39.8 10.1 39.7 10.2 39.6 10.3 39.5 10.4 39.4 10.5 39.3 10.6 39.2 10.7 39.2 10.8 39.1 11 39 11.1 38.9 11.2 38.8 11.3 38.8 11.4 38.7 11.5 38.6 11.7 38.6 11.8 38.5 11.9 38.4 12 38.4 12.2 38.3 12.3 38.2 12.4 38.2 12.5 38.1 12.7 38 12.8 38 12.9 37.9 13 37.8 13.2 37.8 13.3 37.7 13.4 37.6 13.5 37.6 13.6 37.5 13.8 37.4 13.9 37.4 13.9 37.4 13.9 37.4 13.9 37.4 13.9 37.4 14 37.4 14 37.4 14 37.4 14 37.4 14.1 37.4 14.1 37.4 14.1 37.4 14.2 37.4 14.2 37.3 14.2 37.3 14.3 37.3 14.3 37.3 14.3 37.3 14.3 37.3 14.3 37.3 14.4 37.3 14.4 37.3 14.4 37.3 14.4 37.2 14.4 37.2 14.4 37.2 14.4 37.2 14.4 37.2 14.3 37.2 14.3 37.2 14.3 37.2 14.2 37.2 14.2 37.2 14.1 37.2 14.1 37.2 14.1 37.2 14 37.2 14 37.2 13.9 37.2 13.9 37.2 13.8 37.2 13.8 37.2 13.8 37.2 13.7 37.1 13.7 37.2 13.6 37.2 13.6 37.2 13.5 37.1 13.5 37.2 13.4 37.2 13.4 37.2 13.3 37.2 13.3 37.2 13.3 37.2 13.2 37.2 13.2 37.2 13.1 37.2 13.1 37.2 13 37.2 13 37.2 12.9 37.2 12.9 37.2 12.8 37.2 12.8 37.2 12.8 37.2 12.7 37.3 12.7 37.3 12.7 37.3 12.3 37.4 12 37.5 11.7 37.6 11.4 37.7 11.1 37.8 10.8 38 10.6 38.1 10.3 38.3 10 38.5 9.8 38.6 9.5 38.8 9.3 39 9 39.3 8.8 39.5 8.6 39.7 8.4 40 8.2 40.2 8 40.5 7.8 40.7 7.6 41 7.5 41.3 7.3 41.6 7.1 41.8 7 42.2 6.9 42.5 6.7 42.8 6.6 43.1 6.5 43.4 6.4 43.7 6.3 44 6.2 44.3 6.1 44.3 6.1 44.6 6.1 44.9 6 45.2 6 45.5 6 45.8 6 46.1 6 46.4 6 46.7 6 47 6 47.3 6.1 47.6 6.1 47.8 6.2 48.1 6.2 48.4 6.3 48.7 6.4 49 6.5 49.2 6.5 49.5 6.7 49.8 6.8 50 6.9 50.3 7 50.5 7.1 50.8 7.3 51 7.4 51.3 7.6 51.5 7.8 51.7 8 51.9 8.1 52.2 8.3 52.4 8.5 52.6 8.8 52.8 9"/><polygon class="cls-1" points="15.2 18.5 15.3 18.7 15.5 18.8 15.6 19 15.8 19.1 15.9 19.2 16.1 19.4 16.3 19.5 16.5 19.6 16.6 19.8 16.8 19.9 17 20 17.1 20.1 17.3 20.2 17.5 20.4 17.6 20.5 17.8 20.6 18 20.7 18.1 20.9 18.3 21 18.5 21.1 18.7 21.2 18.8 21.4 19 21.5 19.1 21.6 19.3 21.8 19.5 21.9 19.6 22.1 19.8 22.2 19.9 22.4 20 22.5 20.2 22.7 20.3 22.8 20.3 22.8 20.4 22.9 20.5 23 20.6 23.1 20.7 23.2 20.8 23.3 20.8 23.4 20.9 23.5 21 23.7 21.1 23.8 21.1 23.9 21.2 24 21.3 24.1 21.4 24.2 21.4 24.4 21.5 24.5 21.5 24.6 21.5 24.7 21.6 24.9 21.6 25 21.7 25.1 21.7 25.3 21.8 25.4 21.8 25.5 21.8 25.7 21.8 25.8 21.9 25.9 21.9 26.1 21.9 26.2 21.9 26.3 21.9 26.5 21.9 26.6 21.9 26.7 21.9 26.7 21.9 26.7 21.9 26.7 21.9 26.8 21.9 26.8 21.9 26.8 21.9 26.8 21.9 26.8 21.9 26.8 21.9 26.8 21.9 26.8 21.9 26.8 21.9 26.8 21.9 26.8 21.9 26.8 21.9 26.8 21.9 26.8 21.9 26.8 21.9 26.8 21.9 26.9 21.9 26.9 21.9 26.9 21.9 26.9 21.9 26.9 21.9 26.9 21.9 26.9 21.9 26.9 21.9 26.9 21.9 26.9 21.9 26.9 21.9 26.9 21.9 26.9 21.9 26.9 21.9 26.9 21.9 27 21.9 27 21.9 27.1 21.9 27.1 21.9 27.1 21.9 27.2 21.9 27.2 21.9 27.3 21.9 27.3 21.9 27.3 21.9 27.4 21.9 27.4 21.9 27.5 21.9 27.5 21.9 27.6 21.9 27.6 21.8 27.7 21.8 27.7 21.8 27.7 21.8 27.8 21.8 27.8 21.8 27.9 21.8 27.9 21.8 28 21.8 28 21.8 28 21.8 28.1 21.8 28.1 21.8 28.2 21.7 28.2 21.7 28.2 21.7 28.3 21.7 28.3 21.7 28.3 21.7 28.4 21.7 28.5 21.6 28.5 21.6 28.6 21.6 28.7 21.6 28.7 21.6 28.8 21.6 28.8 21.5 28.9 21.5 29 21.5 29 21.5 29.1 21.5 29.1 21.4 29.2 21.4 29.3 21.4 29.3 21.4 29.4 21.3 29.4 21.3 29.5 21.3 29.5 21.2 29.6 21.2 29.7 21.2 29.7 21.1 29.8 21.1 29.8 21.1 29.9 21 29.9 21 30 21 30 20.9 30.1 20.9 30.1 20.9 30.1 20.9 30.2 20.9 30.2 20.8 30.2 20.8 30.2 20.8 30.2 20.8 30.2 20.8 30.2 20.8 30.2 20.8 30.2 20.7 30.2 20.7 30.2 20.7 30.2 20.7 30.2 20.7 30.2 20.7 30.2 20.7 30.2 20.7 30.2 20.6 30.2 20.6 30.2 20.6 30.1 20.6 30.1 20.6 30.1 20.6 30.1 20.6 30.1 20.6 30.1 20.6 30.1 20.6 30 20.6 30 20.6 30 20.7 30 20.7 30 20.7 30 20.7 30 20.7 29.8 20.8 29.5 20.8 29.3 20.8 29.1 20.8 28.9 20.8 28.6 20.8 28.4 20.8 28.2 20.8 28 20.8 27.7 20.7 27.5 20.7 27.3 20.7 27 20.6 26.8 20.6 26.6 20.5 26.4 20.5 26.1 20.4 25.9 20.3 25.7 20.2 25.5 20.1 25.2 20 25 20 24.8 19.9 24.6 19.7 24.4 19.6 24.2 19.5 24 19.4 23.8 19.2 23.7 19.1 23.5 19 23.3 18.8 23.1 18.8 23.1 18.7 23 18.5 22.9 18.4 22.7 18.3 22.6 18.1 22.4 18 22.3 17.8 22.2 17.7 22 17.5 21.9 17.3 21.8 17.2 21.6 17 21.5 16.9 21.3 16.7 21.2 16.5 21.1 16.4 20.9 16.3 20.8 16.1 20.7 16 20.5 15.8 20.4 15.7 20.2 15.5 20 15.4 19.9 15.3 19.7 15.2 19.5 15.1 19.4 15 19.2 14.9 19 14.8 18.8 14.7 18.7 14.6 18.4 14.6 18.2 14.6 18.2 14.6 18.2 14.6 18.2 14.7 18.2 14.7 18.2 14.7 18.2 14.7 18.3 14.7 18.3 14.7 18.3 14.8 18.3 14.8 18.3 14.8 18.3 14.8 18.3 14.8 18.3 14.8 18.4 14.9 18.4 14.9 18.4 14.9 18.4 14.9 18.4 14.9 18.5 14.9 18.5 15 18.5 15 18.5 15 18.5 15 18.5 15 18.5 15 18.5 15.1 18.5 15.1 18.5 15.1 18.6 15.1 18.6 15.1 18.6 15.2 18.5"/><polygon class="cls-1" points="7.3 24 7.4 24.2 7.4 24.3 7.4 24.4 7.4 24.5 7.4 24.7 7.4 24.8 7.4 24.9 7.4 25 7.4 25.2 7.4 25.3 7.4 25.4 7.4 25.5 7.4 25.7 7.4 25.8 7.4 25.9 7.4 26 7.4 26.1 7.4 26.3 7.4 26.4 7.4 26.5 7.5 26.6 7.5 26.8 7.5 26.9 7.5 27 7.5 27.1 7.5 27.2 7.6 27.3 7.6 27.5 7.6 27.6 7.7 27.7 7.7 27.8 7.8 27.9 7.8 27.9 7.8 28 7.9 28 8 28.1 8.1 28.2 8.2 28.2 8.3 28.2 8.4 28.3 8.5 28.3 8.6 28.3 8.7 28.3 8.8 28.4 8.9 28.4 9 28.4 9.1 28.4 9.2 28.5 9.3 28.5 9.4 28.5 9.5 28.5 9.6 28.5 9.7 28.6 9.8 28.6 9.9 28.6 10 28.7 10.1 28.7 10.2 28.7 10.3 28.8 10.4 28.8 10.5 28.9 10.5 29 10.6 29.1 10.7 29.2 10.7 29.2 10.7 29.2 10.8 29.3 10.8 29.4 10.9 29.5 10.9 29.6 10.9 29.8 10.9 29.8 11 29.9 11 30 11 30.1 11.1 30.2 11.1 30.3 11.1 30.4 11.1 30.5 11.1 30.6 11.2 30.7 11.2 30.8 11.2 30.9 11.3 31 11.3 31.1 11.3 31.2 11.4 31.3 11.4 31.3 11.5 31.4 11.5 31.5 11.6 31.6 11.6 31.7 11.7 31.7 11.8 31.8 11.9 31.8 11.9 31.9 12 32 12.1 32 12.1 32 12.3 32 12.4 32.1 12.5 32.2 12.7 32.2 12.8 32.3 13 32.3 13.1 32.3 13.2 32.4 13.4 32.4 13.5 32.5 13.7 32.5 13.8 32.5 14 32.5 14.1 32.5 14.3 32.5 14.4 32.5 14.6 32.6 14.8 32.6 14.9 32.5 15.1 32.5 15.2 32.5 15.4 32.5 15.5 32.5 15.7 32.5 15.8 32.5 16 32.4 16.1 32.4 16.3 32.3 16.4 32.3 16.6 32.2 16.7 32.2 16.9 32.1 16.9 32.1 16.9 32.1 16.9 32.1 16.9 32.1 16.9 32.1 16.9 32.1 16.9 32.1 16.9 32.1 16.9 32.1 16.9 32.2 16.9 32.2 16.9 32.2 16.9 32.2 16.9 32.2 16.9 32.2 16.9 32.2 16.9 32.2 16.9 32.2 16.9 32.2 16.9 32.2 16.9 32.2 16.9 32.2 16.9 32.2 16.9 32.2 16.9 32.2 16.9 32.2 16.9 32.2 16.9 32.2 16.9 32.2 16.9 32.2 16.9 32.2 16.9 32.2 16.9 32.2 16.9 32.2 16.8 32.3 16.6 32.4 16.5 32.5 16.3 32.6 16.2 32.7 16 32.8 15.9 32.8 15.7 32.9 15.5 33 15.4 33 15.2 33.1 15 33.1 14.9 33.1 14.7 33.2 14.5 33.2 14.4 33.2 14.2 33.2 14 33.2 13.8 33.2 13.7 33.2 13.5 33.2 13.3 33.2 13.1 33.2 13 33.2 12.8 33.2 12.6 33.1 12.5 33.1 12.3 33.1 12.1 33 12 33 11.8 32.9 11.7 32.9 11.7 32.9 11.5 32.8 11.4 32.8 11.3 32.7 11.2 32.7 11 32.6 10.9 32.5 10.8 32.5 10.7 32.4 10.6 32.3 10.5 32.2 10.4 32.1 10.4 32 10.3 31.9 10.2 31.8 10.1 31.7 10.1 31.6 10 31.5 9.9 31.4 9.9 31.3 9.8 31.1 9.7 31 9.7 30.9 9.6 30.8 9.6 30.6 9.5 30.5 9.5 30.4 9.4 30.3 9.4 30.2 9.3 30 9.2 29.9 9.2 29.8 9.2 29.7 9.2 29.7 9.1 29.7 9.1 29.6 9.1 29.6 9.1 29.6 9.1 29.6 9.1 29.6 9 29.5 9 29.5 9 29.5 9 29.5 9 29.5 9 29.5 8.9 29.5 8.9 29.4 8.9 29.4 8.9 29.4 8.9 29.4 8.8 29.4 8.8 29.3 8.8 29.3 8.8 29.3 8.8 29.3 8.8 29.3 8.7 29.3 8.7 29.3 8.7 29.3 8.7 29.2 8.7 29.2 8.7 29.2 8.6 29.2 8.6 29.2 8.6 29.2 8.6 29.2 8.6 29.2 8.5 29.1 8.4 29.1 8.3 29 8.2 29 8.1 29 8 28.9 7.9 28.9 7.8 28.9 7.7 28.8 7.6 28.8 7.5 28.8 7.4 28.8 7.3 28.7 7.2 28.7 7.1 28.7 7 28.6 6.9 28.6 6.8 28.6 6.7 28.5 6.6 28.5 6.5 28.4 6.4 28.4 6.4 28.3 6.3 28.2 6.2 28.2 6.2 28.1 6.1 28 6.1 27.9 6.1 27.8 6 27.7 6 27.5 6 27.5 6 27.4 6 27.3 6 27.1 6 27 6 26.8 6 26.7 6.1 26.5 6.1 26.4 6.1 26.3 6.1 26.1 6.1 26 6.1 25.8 6.1 25.7 6.1 25.5 6.1 25.4 6.1 25.2 6.2 25.1 6.1 25 6.2 24.8 6.2 24.7 6.2 24.5 6.2 24.4 6.2 24.3 6.2 24.1 6.3 24 6.3 23.8 6.3 23.7 6.3 23.5 6.3 23.4 6.3 23.3 6.4 23.1 6.4 23 6.4 23 6.4 23 6.4 22.9 6.4 22.9 6.4 22.9 6.4 22.9 6.4 22.9 6.4 22.9 6.4 22.9 6.5 22.9 6.5 22.9 6.5 22.9 6.5 22.9 6.5 22.9 6.5 23 6.5 23 6.5 23 6.5 23 6.6 23 6.6 23 6.6 23 6.6 23.1 6.6 23.1 6.6 23.1 6.6 23.1 6.6 23.1 6.7 23.1 6.7 23.2 6.7 23.2 6.7 23.2 6.7 23.2 6.7 23.2 6.7 23.2 6.7 23.2 6.8 23.2 6.8 23.3 6.8 23.3 6.8 23.3 6.8 23.3 6.8 23.4 6.9 23.4 6.9 23.4 6.9 23.5 6.9 23.5 6.9 23.5 6.9 23.5 7 23.6 7 23.6 7 23.6 7 23.6 7.1 23.7 7.1 23.7 7.1 23.7 7.1 23.8 7.1 23.8 7.1 23.8 7.2 23.8 7.2 23.8 7.2 23.9 7.2 23.9 7.2 23.9 7.2 24 7.3 24 7.3 24 7.3 24 7.3 24"/><polygon class="cls-1" points="41.9 11.5 41.9 11.5 41.8 11.5 41.8 11.6 41.8 11.6 41.8 11.6 41.8 11.7 41.8 11.7 41.8 11.7 41.8 11.8 41.7 11.8 41.7 11.8 41.7 11.8 41.7 11.9 41.6 11.9 41.6 11.9 41.6 12 41.5 12 41.5 12 41.5 12 41.5 12.1 41.4 12.1 41.4 12.1 41.4 12.1 41.3 12.2 41.3 12.2 41.3 12.2 41.3 12.2 41.3 12.3 41.3 12.3 41.2 12.3 41.2 12.4 41.2 12.4 41.2 12.4 41.2 12.4 41.1 12.5 41.1 12.4 41 12.5 41 12.5 40.9 12.5 40.9 12.5 40.8 12.5 40.8 12.5 40.8 12.5 40.7 12.4 40.7 12.4 40.6 12.4 40.6 12.4 40.5 12.4 40.5 12.4 40.5 12.4 40.4 12.4 40.4 12.4 40.3 12.4 40.3 12.3 40.3 12.3 40.2 12.3 40.2 12.3 40.2 12.2 40.1 12.2 40.1 12.2 40 12.2 40 12.2 40 12.2 40 12.1 39.9 12.1 39.9 12.1 40 12.1 40 12.1 40 12 40.1 12 40.1 12 40.2 12 40.2 12 40.3 12 40.3 12 40.4 11.9 40.4 11.9 40.5 11.9 40.5 11.9 40.6 11.9 40.6 11.8 40.7 11.8 40.7 11.8 40.8 11.8 40.8 11.8 40.8 11.7 40.9 11.7 41 11.7 41 11.7 41 11.7 41.1 11.6 41.2 11.6 41.2 11.6 41.2 11.6 41.3 11.6 41.3 11.5 41.4 11.5 41.4 11.5 41.4 11.5 41.4 11.5 41.5 11.5 41.5 11.5 41.5 11.5 41.5 11.5 41.5 11.4 41.5 11.4 41.5 11.4 41.5 11.4 41.5 11.4 41.6 11.4 41.6 11.4 41.6 11.4 41.6 11.4 41.6 11.4 41.6 11.4 41.7 11.4 41.7 11.4 41.7 11.5 41.7 11.4 41.7 11.4 41.7 11.5 41.7 11.5 41.7 11.5 41.8 11.5 41.8 11.5 41.8 11.5 41.8 11.5 41.8 11.5 41.8 11.5 41.8 11.5 41.9 11.5"/><polygon class="cls-1" points="35.6 16.4 35.6 16.5 35.6 16.5 35.7 16.6 35.7 16.7 35.7 16.7 35.8 16.8 35.8 16.9 35.8 16.9 35.9 17 35.9 17.1 36 17.1 36 17.2 36 17.3 36.1 17.3 36.1 17.4 36.1 17.5 36.1 17.5 36.2 17.6 36.2 17.7 36.2 17.8 36.2 17.8 36.2 17.9 36.2 17.9 36.2 18 36.2 18.1 36.2 18.1 36.2 18.2 36.1 18.2 36.1 18.3 36 18.4 36 18.4 36 18.5 36 18.5 35.9 18.5 35.9 18.5 35.8 18.5 35.8 18.5 35.7 18.5 35.7 18.5 35.7 18.4 35.7 18.4 35.6 18.4 35.6 18.3 35.6 18.3 35.6 18.3 35.6 18.2 35.5 18.2 35.5 18.1 35.5 18.1 35.5 18.1 35.5 18 35.5 18 35.5 17.9 35.5 17.9 35.5 17.8 35.5 17.8 35.5 17.7 35.4 17.7 35.4 17.7 35.4 17.6 35.4 17.6 35.4 17.5 35.3 17.5 35.3 17.5 35.3 17.4 35.3 17.4 35.2 17.3 35.2 17.3 35.2 17.2 35.1 17.1 35 17.1 35 17 34.9 17 34.9 16.9 34.8 16.8 34.7 16.8 34.7 16.7 34.6 16.7 34.5 16.7 34.5 16.6 34.4 16.6 34.3 16.6 34.2 16.5 34.2 16.5 34.1 16.5 34 16.5 33.9 16.4 33.8 16.4 33.7 16.4 33.7 16.4 33.6 16.4 33.5 16.4 33.4 16.4 33.3 16.4 33.2 16.4 33.2 16.4 33.1 16.4 33 16.4 33 16.4 32.9 16.4 32.8 16.4 32.8 16.4 32.7 16.4 32.6 16.5 32.6 16.5 32.5 16.5 32.5 16.5 32.4 16.5 32.3 16.6 32.2 16.6 32.2 16.6 32.1 16.6 32 16.7 32 16.7 32 16.7 31.9 16.8 31.8 16.8 31.8 16.8 31.7 16.9 31.7 16.9 31.6 16.9 31.6 17 31.5 17 31.5 17.1 31.4 17.1 31.4 17.1 31.3 17.2 31.3 17.2 31.2 17.3 31.2 17.3 31.1 17.4 31.1 17.4 31.1 17.4 31.1 17.4 31.1 17.4 31 17.4 31 17.4 31 17.4 31 17.4 31 17.4 30.9 17.4 30.9 17.5 30.9 17.5 30.9 17.5 30.8 17.5 30.8 17.5 30.8 17.5 30.8 17.5 30.7 17.5 30.7 17.5 30.7 17.5 30.7 17.5 30.6 17.5 30.6 17.5 30.6 17.5 30.6 17.5 30.6 17.5 30.5 17.5 30.5 17.5 30.5 17.5 30.5 17.5 30.5 17.5 30.5 17.5 30.5 17.4 30.5 17.4 30.5 17.3 30.5 17.2 30.6 17.1 30.6 17 30.7 16.9 30.7 16.8 30.8 16.8 30.9 16.7 30.9 16.6 31 16.5 31.1 16.4 31.2 16.3 31.2 16.2 31.3 16.2 31.4 16.1 31.5 16 31.6 16 31.7 15.9 31.8 15.8 31.9 15.8 32 15.7 32.1 15.7 32.2 15.6 32.4 15.6 32.5 15.5 32.6 15.5 32.7 15.5 32.8 15.4 33 15.4 33.1 15.4 33.2 15.4 33.3 15.4 33.3 15.4 33.4 15.4 33.5 15.4 33.6 15.4 33.7 15.4 33.7 15.4 33.8 15.4 33.9 15.4 34 15.5 34 15.5 34.1 15.5 34.2 15.5 34.2 15.6 34.3 15.6 34.4 15.6 34.5 15.7 34.6 15.7 34.6 15.7 34.7 15.8 34.8 15.8 34.8 15.8 34.9 15.9 35 15.9 35 16 35.1 16 35.2 16.1 35.2 16.1 35.3 16.2 35.3 16.2 35.4 16.3 35.5 16.3 35.5 16.4 35.6 16.4"/><polygon class="cls-1" points="30.1 18.2 30.1 18.2 30.1 18.2 30.2 18.3 30.2 18.3 30.2 18.3 30.2 18.3 30.2 18.4 30.2 18.4 30.3 18.5 30.3 18.5 30.3 18.5 30.3 18.5 30.3 18.6 30.3 18.6 30.4 18.6 30.4 18.7 30.4 18.7 30.4 18.8 30.4 18.8 30.4 18.8 30.4 18.9 30.4 18.9 30.5 18.9 30.4 19 30.5 19 30.4 19.1 30.5 19.1 30.4 19.1 30.5 19.2 30.5 19.2 30.4 19.2 30.4 19.2 30.4 19.2 30.6 19.2 30.7 19.2 30.8 19.2 31 19.2 31.1 19.2 31.2 19.2 31.4 19.2 31.5 19.2 31.6 19.2 31.7 19.2 31.9 19.2 32 19.3 32.1 19.3 32.2 19.4 32.3 19.4 32.4 19.5 32.6 19.5 32.7 19.6 32.8 19.6 32.9 19.7 33 19.8 33.1 19.8 33.2 19.9 33.3 20 33.4 20.1 33.5 20.2 33.6 20.2 33.7 20.3 33.8 20.4 33.9 20.5 34 20.6 34.1 20.7 34.1 20.7 34.1 20.8 34.1 20.8 34.2 20.9 34.2 21 34.2 21.1 34.3 21.2 34.3 21.2 34.3 21.3 34.3 21.4 34.3 21.5 34.3 21.6 34.4 21.7 34.4 21.7 34.4 21.8 34.4 21.9 34.4 22 34.4 22.1 34.4 22.2 34.4 22.2 34.4 22.3 34.4 22.4 34.4 22.5 34.3 22.6 34.3 22.7 34.3 22.7 34.3 22.8 34.2 22.9 34.2 23 34.2 23.1 34.2 23.2 34.1 23.2 34.1 23.3 34.1 23.3 34.1 23.4 34 23.5 34 23.5 33.9 23.6 33.9 23.7 33.8 23.7 33.8 23.8 33.8 23.8 33.7 23.9 33.6 24 33.6 24 33.5 24.1 33.4 24.1 33.4 24.2 33.3 24.2 33.2 24.3 33.2 24.3 33.1 24.4 33 24.4 32.9 24.4 32.9 24.5 32.8 24.5 32.7 24.5 32.6 24.6 32.5 24.6 32.5 24.6 32.4 24.7 32.3 24.7 32.2 24.7 32.1 24.7 32 24.7 32 24.7 32 24.7 31.9 24.7 31.9 24.7 31.9 24.6 31.9 24.6 31.9 24.6 31.9 24.6 31.9 24.5 32 24.5 32 24.5 32 24.5 32 24.5 32 24.5 32 24.5 32 24.5 32 24.5 32.1 24.4 32.1 24.4 32.1 24.4 32.1 24.4 32.2 24.4 32.2 24.4 32.2 24.4 32.2 24.4 32.2 24.4 32.3 24.4 32.3 24.4 32.3 24.3 32.3 24.3 32.3 24.3 32.3 24.3 32.4 24.3 32.4 24.3 32.4 24.3 32.4 24.2 32.5 24.1 32.6 24.1 32.6 24 32.7 23.9 32.7 23.9 32.8 23.8 32.8 23.7 32.9 23.6 33 23.5 33 23.5 33.1 23.4 33.1 23.3 33.2 23.2 33.2 23.1 33.2 23 33.3 23 33.3 22.9 33.3 22.8 33.3 22.7 33.4 22.6 33.4 22.5 33.4 22.4 33.4 22.3 33.4 22.2 33.4 22.2 33.4 22 33.4 22 33.4 21.8 33.4 21.8 33.4 21.7 33.3 21.5 33.3 21.5 33.3 21.5 33.3 21.4 33.3 21.3 33.3 21.3 33.2 21.2 33.2 21.2 33.2 21.1 33.1 21 33.1 21 33.1 21 33 20.9 33 20.8 32.9 20.8 32.9 20.8 32.8 20.7 32.8 20.7 32.7 20.7 32.7 20.6 32.6 20.6 32.6 20.6 32.5 20.5 32.5 20.5 32.4 20.5 32.3 20.5 32.3 20.5 32.2 20.4 32.2 20.4 32.1 20.4 32 20.4 32 20.4 31.9 20.3 31.9 20.3 31.9 20.3 31.8 20.3 31.7 20.3 31.6 20.3 31.5 20.3 31.4 20.3 31.3 20.3 31.2 20.3 31.2 20.3 31.1 20.3 31 20.3 30.9 20.3 30.8 20.4 30.8 20.4 30.7 20.4 30.6 20.5 30.5 20.5 30.4 20.5 30.4 20.6 30.3 20.6 30.2 20.7 30.1 20.7 30 20.7 30 20.8 29.9 20.8 29.8 20.9 29.7 20.9 29.6 20.9 29.6 20.9 29.5 21 29.4 21 29.3 21 29.2 21 29.2 21 29.2 21 29.2 21 29.2 21 29.2 21 29.2 21 29.2 21 29.1 21.1 29.1 21.1 29.1 21.1 29.1 21.1 29.1 21.1 29.1 21.1 29.1 21.1 29.1 21.1 29.1 21.1 29.1 21.1 29.1 21.1 29.1 21.1 29 21.1 29 21.1 29 21.1 29 21.1 29 21.1 29 21.1 29 21.2 29 21.2 29 21.2 29 21.2 29 21.1 28.9 21.2 28.9 21.2 28.9 21.1 28.9 21.1 28.9 21.1 28.9 21 28.9 20.9 28.9 20.9 28.9 20.8 28.9 20.7 28.9 20.7 29 20.6 29 20.6 29 20.5 29 20.4 29.1 20.4 29.1 20.3 29.2 20.3 29.2 20.2 29.2 20.2 29.3 20.1 29.4 20 29.4 20 29.5 20 29.5 19.9 29.6 19.8 29.6 19.8 29.7 19.8 29.8 19.7 29.8 19.7 29.9 19.6 29.9 19.6 30 19.5 30 19.5 30.1 19.5 30.1 19.4 30.1 19.4 30.1 19.4 30.1 19.3 30.1 19.2 30 19.2 30 19.2 30 19.1 30 19 29.9 19 29.9 18.9 29.9 18.9 29.8 18.8 29.8 18.8 29.7 18.7 29.7 18.7 29.6 18.6 29.6 18.6 29.6 18.5 29.5 18.5 29.5 18.5 29.4 18.4 29.4 18.4 29.3 18.3 29.3 18.3 29.2 18.3 29.2 18.2 29.1 18.2 29.1 18.2 29 18.2 28.9 18.2 28.9 18.1 28.8 18.1 28.8 18.1 28.8 18.1 28.7 18.1 28.7 18.1 28.6 18.1 28.6 18.1 28.5 18.1 28.5 18.1 28.4 18.1 28.4 18.1 28.4 18.1 28.3 18.1 28.3 18.1 28.2 18.1 28.2 18.1 28.1 18 28.1 18 28 18 28 18 28 18 28 18 27.9 18 27.9 18 27.8 18 27.8 18 27.7 17.9 27.7 17.9 27.6 17.9 27.6 17.9 27.6 17.9 27.5 17.9 27.5 17.8 27.5 17.8 27.4 17.8 27.4 17.8 27.4 17.8 27.4 17.8 27.4 17.8 27.4 17.8 27.5 17.8 27.5 17.8 27.5 17.8 27.5 17.8 27.5 17.8 27.5 17.8 27.5 17.8 27.5 17.8 27.5 17.7 27.5 17.7 27.5 17.7 27.5 17.7 27.5 17.7 27.5 17.7 27.5 17.7 27.5 17.7 27.5 17.7 27.5 17.7 27.5 17.7 27.5 17.7 27.5 17.7 27.5 17.7 27.5 17.7 27.5 17.7 27.5 17.7 27.5 17.7 27.5 17.7 27.5 17.6 27.5 17.6 27.6 17.6 27.7 17.6 27.8 17.6 27.9 17.5 28 17.5 28.1 17.5 28.2 17.5 28.2 17.5 28.3 17.5 28.4 17.5 28.5 17.5 28.6 17.5 28.7 17.5 28.8 17.5 28.9 17.5 29 17.5 29 17.6 29.1 17.6 29.2 17.6 29.3 17.6 29.3 17.7 29.4 17.7 29.5 17.7 29.6 17.8 29.6 17.8 29.7 17.9 29.8 17.9 29.9 18 29.9 18 30 18.1 30 18.1 30.1 18.2"/><polygon class="cls-1" points="25.9 19 25.9 19.1 25.9 19.2 25.9 19.3 25.9 19.4 25.8 19.5 25.8 19.5 25.8 19.6 25.8 19.7 25.8 19.8 25.7 19.9 25.7 20 25.7 20 25.6 20.1 25.6 20.2 25.6 20.3 25.6 20.4 25.6 20.5 25.5 20.6 25.5 20.6 25.5 20.7 25.5 20.8 25.5 20.9 25.5 21 25.5 21.1 25.5 21.2 25.5 21.2 25.5 21.3 25.5 21.4 25.5 21.5 25.5 21.6 25.6 21.7 25.6 21.8 25.6 21.8 25.6 21.8 25.6 21.9 25.6 21.9 25.6 22 25.6 22 25.6 22 25.7 22.1 25.7 22.1 25.7 22.1 25.7 22.2 25.7 22.2 25.8 22.2 25.8 22.2 25.8 22.3 25.8 22.3 25.8 22.3 25.9 22.4 25.9 22.4 25.9 22.4 25.9 22.5 25.9 22.5 26 22.5 26 22.5 26 22.5 26 22.6 26.1 22.6 26.1 22.6 26.1 22.7 26.1 22.7 26.2 22.7 26.2 22.7 26.2 22.8 26.2 22.8 26.3 22.8 26.3 22.8 26.4 22.8 26.4 22.8 26.5 22.8 26.5 22.8 26.6 22.9 26.6 22.9 26.7 22.9 26.7 22.9 26.8 22.9 26.8 23 26.9 23 27 23 27 23 27.1 23 27.1 23 27.2 23 27.2 23 27.3 23 27.3 23 27.4 23 27.4 23 27.5 23 27.5 23 27.6 23 27.7 23 27.7 23 27.8 22.9 27.8 22.9 27.9 22.9 27.9 22.9 27.9 22.9 27.9 22.9 27.9 22.9 28 22.9 28 22.9 28 23 28 23 28 23 28 23 28 23 28 23 28 23 28.1 23.1 28.1 23.1 28.1 23.1 28.1 23.1 28.1 23.1 28.1 23.1 28.1 23.2 28.2 23.2 28.2 23.2 28.2 23.2 28.2 23.2 28.2 23.2 28.2 23.3 28.2 23.3 28.2 23.3 28.2 23.3 28.2 23.3 28.2 23.4 28.1 23.4 28.1 23.4 28.1 23.4 28.1 23.4 28.1 23.5 28.1 23.5 28 23.5 28 23.5 28 23.5 28 23.5 27.9 23.6 27.9 23.6 27.9 23.6 27.8 23.6 27.8 23.6 27.7 23.6 27.7 23.6 27.7 23.6 27.6 23.7 27.6 23.7 27.5 23.7 27.5 23.7 27.5 23.7 27.4 23.7 27.4 23.7 27.4 23.7 27.3 23.7 27.3 23.7 27.2 23.7 27.2 23.7 27.2 23.7 27.1 23.7 27.1 23.7 27 23.7 27 23.7 27 23.7 27 23.7 26.9 23.7 26.8 23.7 26.7 23.7 26.6 23.7 26.5 23.7 26.4 23.7 26.3 23.6 26.2 23.6 26.2 23.5 26.1 23.5 26 23.5 25.9 23.4 25.9 23.3 25.8 23.3 25.7 23.2 25.7 23.2 25.6 23.1 25.5 23 25.5 23 25.4 22.9 25.4 22.8 25.3 22.7 25.3 22.7 25.2 22.6 25.2 22.5 25.1 22.4 25.1 22.3 25 22.3 25 22.2 25 22.1 24.9 22 24.9 21.9 24.9 21.9 24.8 21.8 24.8 21.8 24.8 21.6 24.8 21.5 24.7 21.4 24.7 21.3 24.7 21.2 24.7 21.1 24.7 21 24.7 20.9 24.7 20.8 24.7 20.7 24.7 20.6 24.7 20.4 24.7 20.3 24.8 20.2 24.8 20.1 24.8 20 24.8 19.9 24.9 19.8 24.9 19.7 25 19.6 25 19.5 25 19.4 25.1 19.3 25.1 19.2 25.2 19.1 25.3 19.1 25.4 19 25.4 18.9 25.5 18.8 25.6 18.8 25.6 18.8 25.6 18.7 25.6 18.7 25.7 18.7 25.7 18.7 25.7 18.7 25.7 18.7 25.7 18.7 25.8 18.7 25.8 18.7 25.8 18.7 25.8 18.7 25.8 18.7 25.8 18.7 25.8 18.7 25.8 18.8 25.8 18.8 25.8 18.8 25.9 18.8 25.8 18.8 25.8 18.8 25.9 18.9 25.9 18.9 25.9 18.9 25.9 18.9 25.9 18.9 25.9 19 25.9 19 25.9 19 25.9 19 25.9 19 25.9 19 25.9 19"/><polygon class="cls-1" points="51.6 11.8 51.6 12 51.7 12 51.7 12.2 51.8 12.3 51.8 12.4 51.8 12.5 51.9 12.6 51.9 12.7 51.9 12.8 52 13 52 13.1 52 13.2 52 13.3 52.1 13.5 52.1 13.6 52.1 13.7 52.1 13.8 52.1 13.9 52.1 14.1 52.1 14.2 52.1 14.3 52.1 14.4 52.1 14.5 52.1 14.6 52.1 14.8 52 14.9 52 15 52 15.1 52 15.2 51.9 15.3 51.9 15.5 51.8 15.6 51.8 15.6 51.8 15.6 51.8 15.7 51.7 15.7 51.7 15.8 51.7 15.8 51.7 15.8 51.6 15.9 51.6 15.9 51.6 16 51.5 16 51.5 16 51.5 16 51.4 16.1 51.4 16.1 51.3 16.1 51.3 16.2 51.3 16.2 51.2 16.2 51.2 16.2 51.2 16.3 51.1 16.3 51.1 16.3 51 16.3 51 16.3 51 16.4 50.9 16.4 50.9 16.4 50.8 16.4 50.8 16.4 50.7 16.4 50.7 16.4 50.6 16.4 50.6 16.4 50.6 16.4 50.6 16.4 50.6 16.4 50.5 16.4 50.5 16.4 50.5 16.4 50.5 16.4 50.5 16.4 50.5 16.4 50.5 16.4 50.4 16.4 50.4 16.4 50.4 16.4 50.4 16.4 50.3 16.4 50.3 16.4 50.3 16.4 50.3 16.4 50.3 16.4 50.3 16.4 50.2 16.4 50.2 16.4 50.2 16.4 50.2 16.4 50.2 16.4 50.2 16.4 50.2 16.4 50.1 16.4 50.1 16.4 50.1 16.3 50.1 16.3 50.1 16.3 50.1 16.3 50.2 16.2 50.3 16 50.4 15.9 50.5 15.7 50.6 15.6 50.6 15.4 50.7 15.2 50.8 15 50.8 14.9 50.9 14.7 50.9 14.5 50.9 14.3 51 14.2 51 14 51 13.8 51 13.6 51 13.4 51 13.2 51 13 50.9 12.9 50.9 12.7 50.9 12.5 50.8 12.3 50.8 12.1 50.7 11.9 50.7 11.8 50.6 11.6 50.5 11.4 50.5 11.2 50.4 11 50.3 10.9 50.2 10.7 50.2 10.7 50.2 10.7 50.3 10.8 50.3 10.8 50.4 10.8 50.5 10.8 50.5 10.9 50.5 10.9 50.6 10.9 50.6 11 50.7 11 50.7 11 50.8 11 50.8 11.1 50.9 11.1 50.9 11.1 51 11.2 51 11.2 51 11.2 51.1 11.3 51.1 11.3 51.2 11.3 51.2 11.4 51.3 11.4 51.3 11.4 51.3 11.5 51.4 11.5 51.4 11.6 51.4 11.6 51.5 11.7 51.5 11.7 51.5 11.8 51.6 11.8"/><polygon class="cls-1" points="27.7 22.2 27.7 22.3 27.7 22.3 27.7 22.3 27.7 22.3 27.7 22.3 27.6 22.3 27.6 22.3 27.7 22.3 27.6 22.3 27.6 22.3 27.6 22.4 27.6 22.4 27.6 22.4 27.6 22.4 27.6 22.4 27.6 22.4 27.6 22.4 27.6 22.4 27.6 22.4 27.6 22.4 27.6 22.4 27.5 22.4 27.5 22.4 27.5 22.4 27.5 22.4 27.5 22.5 27.5 22.4 27.5 22.4 27.5 22.4 27.5 22.4 27.5 22.4 27.5 22.4 27.5 22.4 27.4 22.4 27.4 22.4 27.3 22.4 27.2 22.3 27.2 22.3 27.2 22.3 27.1 22.3 27.1 22.2 27 22.2 27 22.2 26.9 22.1 26.9 22.1 26.9 22 26.8 22 26.8 22 26.7 21.9 26.7 21.9 26.7 21.8 26.6 21.8 26.6 21.7 26.6 21.7 26.5 21.6 26.5 21.6 26.5 21.5 26.5 21.5 26.4 21.4 26.4 21.3 26.4 21.3 26.4 21.2 26.4 21.2 26.4 21.1 26.4 21 26.4 21 26.3 21 26.3 20.9 26.3 20.9 26.3 20.9 26.3 20.8 26.3 20.8 26.4 20.8 26.4 20.8 26.4 20.8 26.4 20.8 26.4 20.8 26.4 20.8 26.4 20.8 26.4 20.8 26.5 20.8 26.5 20.8 26.5 20.9 26.5 20.9 26.6 20.9 26.6 20.9 26.6 21 26.6 21 26.7 21 26.7 21.1 26.7 21.1 26.7 21.1 26.7 21.1 26.8 21.2 26.8 21.2 26.8 21.2 26.8 21.2 26.8 21.2 26.8 21.2 26.8 21.2 26.8 21.3 26.9 21.3 26.9 21.4 26.9 21.4 26.9 21.4 27 21.5 27 21.5 27 21.5 27 21.6 27.1 21.6 27.1 21.7 27.1 21.7 27.1 21.7 27.2 21.8 27.2 21.8 27.2 21.8 27.2 21.9 27.3 21.9 27.3 21.9 27.3 22 27.4 22 27.4 22 27.4 22 27.5 22.1 27.5 22.1 27.5 22.1 27.5 22.2 27.6 22.2 27.6 22.2 27.6 22.2 27.7 22.2"/><polygon class="cls-1" points="49.7 15.3 49.7 15.4 49.6 15.5 49.6 15.5 49.6 15.6 49.6 15.7 49.6 15.7 49.6 15.8 49.5 15.9 49.5 16 49.5 16 49.5 16.1 49.5 16.2 49.5 16.2 49.4 16.3 49.4 16.4 49.4 16.4 49.4 16.5 49.3 16.5 49.3 16.6 49.3 16.7 49.2 16.7 49.2 16.8 49.1 16.8 49.1 16.8 49 16.9 49 16.9 48.9 17 48.8 17 48.8 17 48.7 17 48.6 17.1 48.5 17.1 48.5 17.1 48.5 17.1 48.5 17.1 48.5 17.1 48.5 17.1 48.5 17.1 48.5 17.1 48.5 17 48.5 17 48.4 17 48.4 17 48.4 17 48.4 17 48.4 17 48.4 17 48.4 17 48.4 17 48.3 17 48.3 17 48.3 17 48.3 16.9 48.3 16.9 48.3 16.9 48.3 16.9 48.3 16.9 48.3 16.9 48.3 16.9 48.3 16.9 48.3 16.8 48.2 16.8 48.2 16.8 48.2 16.8 48.3 16.8 48.3 16.8 48.3 16.7 48.4 16.7 48.4 16.6 48.5 16.5 48.5 16.5 48.6 16.4 48.6 16.3 48.7 16.2 48.7 16.2 48.8 16 48.8 16 48.8 15.9 48.9 15.8 48.9 15.7 48.9 15.6 49 15.5 49 15.5 49 15.4 49 15.3 49 15.2 49 15.1 49 15 49 14.9 49 14.8 49 14.8 49 14.7 49 14.6 49 14.5 49 14.4 49 14.3 49 14.2 49 14.1 49 14.1 49 14.2 49 14.2 49 14.2 49.1 14.2 49.1 14.3 49.2 14.3 49.2 14.3 49.2 14.4 49.2 14.4 49.2 14.4 49.3 14.5 49.3 14.5 49.3 14.5 49.3 14.6 49.4 14.6 49.4 14.6 49.4 14.7 49.4 14.7 49.5 14.8 49.5 14.8 49.5 14.8 49.5 14.9 49.5 14.9 49.5 15 49.6 15 49.6 15 49.6 15.1 49.6 15.2 49.6 15.2 49.6 15.2 49.7 15.3 49.7 15.3"/><polygon class="cls-1" points="38.4 19.7 38.4 19.8 38.5 19.9 38.5 19.9 38.6 20 38.6 20.1 38.6 20.1 38.7 20.2 38.7 20.3 38.7 20.4 38.7 20.4 38.7 20.5 38.8 20.6 38.8 20.7 38.8 20.7 38.8 20.8 38.8 20.9 38.8 21 38.9 21 38.9 21.1 38.9 21.2 38.9 21.3 38.9 21.3 38.9 21.4 38.9 21.5 38.8 21.6 38.8 21.7 38.8 21.7 38.8 21.8 38.8 21.9 38.8 22 38.8 22 38.8 22.1 38.8 22.1 38.8 22.1 38.7 22.2 38.7 22.2 38.7 22.2 38.7 22.3 38.7 22.3 38.6 22.3 38.6 22.4 38.6 22.4 38.6 22.5 38.6 22.5 38.5 22.5 38.5 22.6 38.5 22.6 38.5 22.7 38.5 22.7 38.4 22.7 38.4 22.8 38.4 22.8 38.4 22.8 38.3 22.9 38.3 22.9 38.3 22.9 38.2 23 38.2 23 38.2 23 38.1 23 38.1 23 38.1 23 38 23 38 23 37.9 23 37.9 23 37.9 23 37.9 23 37.9 23 37.9 23 37.9 23 37.9 23 37.9 23 37.9 23 37.9 23 37.9 23 37.8 23 37.8 23 37.8 23 37.8 23 37.8 23 37.8 23 37.8 23 37.8 23 37.8 23 37.8 23 37.8 23 37.8 23 37.8 23 37.8 23 37.8 23 37.8 23 37.8 23 37.8 23 37.8 23 37.8 23 37.8 23 37.8 23 37.8 23 37.8 22.9 37.9 22.8 37.9 22.7 38 22.7 38 22.6 38 22.5 38.1 22.4 38.1 22.3 38.1 22.2 38.2 22.2 38.2 22.1 38.2 22 38.2 21.9 38.3 21.8 38.3 21.7 38.3 21.6 38.3 21.5 38.3 21.5 38.3 21.3 38.3 21.3 38.3 21.2 38.3 21.1 38.3 21 38.3 20.9 38.2 20.8 38.2 20.7 38.2 20.6 38.2 20.5 38.2 20.5 38.1 20.4 38.1 20.3 38 20.2 38 20.2 38 20.2 37.9 20.1 37.9 20 37.8 20 37.7 20 37.7 19.9 37.6 19.9 37.5 19.8 37.4 19.8 37.4 19.8 37.3 19.8 37.2 19.8 37.2 19.7 37.1 19.7 37 19.7 36.9 19.7 36.8 19.7 36.7 19.7 36.7 19.7 36.6 19.7 36.5 19.7 36.4 19.7 36.3 19.7 36.3 19.7 36.2 19.7 36.1 19.7 36 19.7 35.9 19.7 35.9 19.7 35.8 19.7 35.7 19.7 35.6 19.7 35.6 19.7 35.6 19.7 35.5 19.7 35.5 19.7 35.4 19.7 35.4 19.7 35.3 19.7 35.3 19.7 35.2 19.7 35.2 19.8 35.2 19.8 35.1 19.8 35.1 19.8 35 19.8 35 19.8 34.9 19.8 34.9 19.8 34.9 19.8 34.8 19.9 34.8 19.9 34.7 19.9 34.7 19.9 34.6 19.9 34.6 19.9 34.6 19.9 34.5 19.9 34.5 19.9 34.4 19.9 34.4 19.9 34.3 19.9 34.3 19.9 34.2 19.9 34.2 19.8 34.2 19.8 34.2 19.8 34.2 19.7 34.2 19.7 34.2 19.6 34.2 19.6 34.2 19.5 34.2 19.5 34.3 19.5 34.3 19.4 34.3 19.4 34.3 19.4 34.4 19.3 34.4 19.3 34.4 19.3 34.5 19.2 34.5 19.2 34.5 19.2 34.6 19.2 34.6 19.1 34.7 19.1 34.7 19.1 34.8 19 34.8 19 34.8 19 34.9 19 34.9 19 35 18.9 35 18.9 35.1 18.9 35.1 18.8 35.1 18.8 35.2 18.8 35.2 18.8 35.3 18.8 35.4 18.7 35.5 18.7 35.7 18.6 35.8 18.6 35.9 18.6 36 18.6 36.1 18.6 36.2 18.6 36.3 18.6 36.4 18.6 36.5 18.6 36.7 18.7 36.7 18.7 36.8 18.7 37 18.7 37.1 18.8 37.2 18.8 37.2 18.9 37.3 18.9 37.4 19 37.5 19 37.7 19.1 37.7 19.2 37.8 19.2 37.9 19.3 38 19.3 38.1 19.4 38.2 19.5 38.2 19.6 38.3 19.6 38.4 19.7"/><polygon class="cls-1" points="43.2 19.7 43.2 19.8 43.3 19.9 43.3 19.9 43.4 20 43.4 20.1 43.5 20.1 43.5 20.2 43.5 20.3 43.6 20.3 43.6 20.4 43.6 20.5 43.7 20.6 43.7 20.7 43.7 20.7 43.8 20.8 43.8 20.9 43.8 21 43.8 21.1 43.8 21.2 43.8 21.2 43.8 21.3 43.9 21.4 43.9 21.5 43.9 21.6 43.9 21.6 43.9 21.7 43.9 21.8 43.8 21.9 43.9 22 43.8 22 43.8 22.1 43.8 22.2 43.8 22.2 43.8 22.2 43.8 22.2 43.7 22.3 43.7 22.3 43.7 22.4 43.7 22.4 43.6 22.5 43.6 22.5 43.5 22.6 43.5 22.6 43.5 22.6 43.5 22.7 43.4 22.7 43.4 22.8 43.4 22.8 43.3 22.8 43.3 22.9 43.2 22.9 43.2 22.9 43.2 23 43.1 23 43.1 23 43 23 43 23 42.9 23.1 42.9 23.1 42.8 23.1 42.8 23.1 42.8 23.1 42.7 23.1 42.6 23.1 42.6 23.1 42.6 23.1 42.5 23.1 42.5 23.1 42.5 23.1 42.5 23 42.5 23 42.5 23 42.5 23 42.5 23 42.5 23 42.5 22.9 42.5 22.9 42.5 22.9 42.5 22.9 42.5 22.9 42.5 22.8 42.5 22.8 42.6 22.8 42.6 22.8 42.6 22.8 42.6 22.8 42.6 22.7 42.6 22.7 42.7 22.7 42.7 22.7 42.7 22.6 42.7 22.6 42.7 22.6 42.7 22.6 42.7 22.6 42.8 22.5 42.7 22.5 42.8 22.5 42.8 22.5 42.8 22.5 42.8 22.4 42.8 22.3 42.9 22.3 42.9 22.2 42.9 22.2 43 22.1 43 22 43 22 43 21.9 43 21.8 43 21.8 43 21.7 43.1 21.7 43.1 21.6 43.1 21.5 43.1 21.5 43.1 21.4 43.1 21.3 43.1 21.3 43.1 21.2 43 21.1 43 21.1 43 21 43 20.9 43 20.9 43 20.8 43 20.7 42.9 20.7 42.9 20.6 42.8 20.6 42.8 20.5 42.8 20.5 42.7 20.4 42.7 20.3 42.6 20.3 42.5 20.2 42.5 20.2 42.4 20.1 42.3 20 42.2 20 42.1 19.9 42.1 19.9 42 19.8 41.9 19.8 41.8 19.8 41.7 19.7 41.6 19.7 41.5 19.6 41.4 19.6 41.3 19.6 41.2 19.5 41.1 19.5 41 19.5 40.9 19.5 40.8 19.5 40.7 19.4 40.6 19.4 40.5 19.4 40.4 19.4 40.3 19.4 40.2 19.4 40.1 19.4 40 19.4 39.9 19.4 39.9 19.4 39.9 19.4 39.9 19.4 39.8 19.4 39.8 19.4 39.8 19.4 39.8 19.4 39.8 19.4 39.7 19.4 39.7 19.4 39.7 19.4 39.7 19.4 39.6 19.4 39.6 19.4 39.6 19.4 39.5 19.4 39.5 19.4 39.5 19.4 39.5 19.4 39.5 19.4 39.4 19.4 39.4 19.4 39.4 19.4 39.3 19.4 39.3 19.4 39.3 19.4 39.3 19.4 39.3 19.3 39.3 19.3 39.2 19.3 39.2 19.3 39.2 19.2 39.2 19.2 39.2 19.2 39.3 19.2 39.3 19.1 39.4 19.1 39.5 19 39.5 19 39.6 19 39.7 18.9 39.8 18.9 39.9 18.8 39.9 18.8 40 18.8 40.1 18.8 40.2 18.8 40.3 18.8 40.4 18.7 40.4 18.7 40.5 18.7 40.6 18.7 40.7 18.7 40.8 18.7 40.9 18.7 41 18.7 41 18.7 41.1 18.7 41.2 18.7 41.3 18.8 41.4 18.8 41.5 18.8 41.5 18.8 41.6 18.8 41.7 18.8 41.8 18.9 41.8 18.9 41.8 18.9 41.9 18.9 41.9 18.9 42 19 42 19 42.1 19 42.1 19 42.2 19 42.2 19.1 42.3 19.1 42.3 19.2 42.4 19.2 42.4 19.2 42.5 19.2 42.5 19.2 42.5 19.3 42.6 19.3 42.6 19.3 42.7 19.3 42.7 19.4 42.8 19.4 42.8 19.4 42.8 19.5 42.9 19.5 42.9 19.5 43 19.6 43 19.6 43 19.6 43.1 19.7 43.1 19.7 43.1 19.7 43.2 19.7"/><polygon class="cls-1" points="32.6 22.7 32.6 22.7 32.6 22.7 32.6 22.7 32.6 22.8 32.7 22.8 32.7 22.8 32.6 22.8 32.7 22.8 32.6 22.9 32.7 22.9 32.7 22.9 32.6 23 32.6 23 32.6 23 32.6 23 32.6 23.1 32.6 23.1 32.6 23.1 32.6 23.1 32.6 23.2 32.6 23.2 32.6 23.2 32.5 23.2 32.5 23.3 32.5 23.3 32.5 23.3 32.5 23.3 32.5 23.3 32.5 23.4 32.5 23.4 32.4 23.4 32.4 23.4 32.4 23.4 32.4 23.4 32.4 23.4 32.4 23.4 32.3 23.4 32.3 23.5 32.3 23.5 32.3 23.5 32.3 23.5 32.3 23.5 32.3 23.5 32.2 23.5 32.2 23.5 32.2 23.5 32.2 23.5 32.2 23.5 32.2 23.5 32.2 23.5 32.1 23.5 32.1 23.5 32.1 23.4 32.1 23.5 32.1 23.4 32.1 23.4 32.1 23.4 32 23.4 32 23.4 32 23.4 32 23.4 32 23.4 32 23.4 32 23.4 32 23.3 32 23.3 32 23.3 32 23.3 32 23.3 32 23.3 32 23.2 32 23.2 32 23.2 32 23.2 32 23.2 32 23.2 32 23.1 32 23.1 32 23.1 32 23 32 23 32.1 23 32.1 23 32.1 23 32.1 23 32.1 22.9 32.1 22.9 32.1 22.9 32.1 22.9 32.2 22.8 32.2 22.8 32.2 22.8 32.2 22.8 32.2 22.8 32.2 22.7 32.2 22.7 32.2 22.7 32.2 22.7 32.2 22.7 32.2 22.7 32.2 22.7 32.2 22.6 32.2 22.6 32.2 22.6 32.2 22.6 32.2 22.5 32.2 22.5 32.2 22.5 32.2 22.5 32.2 22.5 32.2 22.4 32.2 22.4 32.2 22.4 32.2 22.4 32.2 22.4 32.2 22.3 32.2 22.3 32.2 22.3 32.2 22.3 32.2 22.3 32.2 22.2 32.2 22.2 32.2 22.2 32.2 22.2 32.2 22.2 32.2 22.1 32.2 22.1 32.2 22.1 32.2 22.1 32.2 22.1 32.2 22 32.2 22 32.2 22.1 32.2 22.1 32.2 22.1 32.3 22.1 32.3 22.1 32.3 22.1 32.3 22.2 32.3 22.2 32.4 22.2 32.4 22.2 32.4 22.2 32.4 22.2 32.4 22.3 32.5 22.3 32.5 22.3 32.5 22.3 32.5 22.3 32.5 22.3 32.5 22.3 32.5 22.4 32.5 22.4 32.6 22.4 32.6 22.4 32.6 22.5 32.6 22.5 32.6 22.5 32.6 22.5 32.6 22.6 32.6 22.6 32.6 22.6 32.6 22.6 32.6 22.7"/><polygon class="cls-1" points="37.6 21.4 37.6 21.5 37.6 21.5 37.6 21.5 37.6 21.5 37.6 21.6 37.6 21.6 37.6 21.6 37.6 21.6 37.6 21.7 37.6 21.7 37.5 21.7 37.6 21.7 37.5 21.8 37.5 21.8 37.5 21.8 37.5 21.8 37.5 21.9 37.5 21.9 37.5 21.9 37.5 21.9 37.5 22 37.5 22 37.5 22 37.5 22 37.5 22 37.5 22.1 37.4 22.1 37.4 22.1 37.4 22.1 37.4 22.1 37.4 22.2 37.4 22.2 37.4 22.2 37.4 22.2 37.3 22.2 37.3 22.2 37.3 22.2 37.3 22.2 37.3 22.2 37.3 22.2 37.3 22.2 37.3 22.2 37.2 22.2 37.2 22.2 37.2 22.2 37.2 22.2 37.2 22.2 37.2 22.2 37.2 22.2 37.2 22.2 37.2 22.2 37.2 22.2 37.1 22.2 37.1 22.2 37.1 22.2 37.1 22.2 37.1 22.2 37.1 22.2 37.1 22.1 37.1 22.1 37.1 22.1 37.1 22.1 37.1 22.1 37.1 22.1 37.1 22 37.1 22 37 22 37 22 37.1 21.9 37 21.9 37 21.8 37.1 21.8 37.1 21.8 37.1 21.7 37.1 21.7 37.1 21.6 37.1 21.6 37.1 21.5 37.1 21.5 37.1 21.5 37.1 21.4 37.1 21.4 37.1 21.3 37.2 21.3 37.2 21.2 37.2 21.2 37.2 21.1 37.2 21.1 37.2 21 37.2 21 37.2 20.9 37.2 20.9 37.2 20.8 37.2 20.8 37.1 20.8 37.1 20.7 37.1 20.6 37.1 20.6 37.1 20.6 37.1 20.6 37.1 20.6 37.2 20.7 37.2 20.7 37.2 20.7 37.2 20.7 37.2 20.7 37.3 20.8 37.3 20.8 37.3 20.8 37.3 20.8 37.4 20.9 37.4 20.9 37.4 20.9 37.4 20.9 37.4 21 37.4 21 37.5 21 37.5 21.1 37.5 21.1 37.5 21.1 37.5 21.2 37.5 21.2 37.5 21.2 37.5 21.2 37.5 21.3 37.6 21.3 37.6 21.3 37.6 21.4 37.6 21.4 37.6 21.4 37.6 21.4"/><polygon class="cls-1" points="31.4 25.3 31.4 25.4 31.5 25.5 31.5 25.6 31.6 25.7 31.6 25.8 31.7 25.9 31.7 26 31.7 26.1 31.8 26.2 31.8 26.3 31.8 26.4 31.9 26.5 31.9 26.6 31.9 26.7 31.9 26.8 31.9 26.9 31.9 27 31.9 27.1 31.9 27.2 31.9 27.3 31.9 27.4 31.9 27.5 31.9 27.6 31.9 27.7 31.8 27.8 31.8 27.9 31.8 28 31.7 28 31.7 28.2 31.6 28.2 31.6 28.3 31.5 28.4 31.5 28.4 31.5 28.4 31.5 28.4 31.5 28.4 31.4 28.4 31.4 28.4 31.4 28.4 31.4 28.4 31.4 28.4 31.4 28.4 31.3 28.4 31.3 28.4 31.3 28.4 31.3 28.4 31.3 28.4 31.2 28.4 31.2 28.4 31.2 28.4 31.2 28.4 31.2 28.4 31.1 28.4 31.1 28.4 31.1 28.4 31.1 28.4 31.1 28.4 31.1 28.3 31.1 28.4 31 28.3 31 28.3 31 28.3 31 28.3 31 28.3 31 28.3 31 28.3 31 28.3 31 28.2 31 28.2 31 28.2 31 28.2 31 28.2 31 28.2 31 28.2 31 28.2 31 28.2 31 28.2 31 28.2 31 28.2 31 28.2 31 28.2 31 28.2 31 28.2 31 28.2 31 28.2 31 28.2 31 28.2 31 28.1 31 28.1 31 28.1 31 28.1 31 28.1 31 28.1 31.1 28.1 31.1 28.1 31.1 28.1 31.1 28.1 31.1 28.1 31.1 28.1 31.1 28 31.1 28 31.1 27.9 31.1 27.8 31.2 27.7 31.2 27.7 31.2 27.6 31.2 27.5 31.2 27.4 31.2 27.3 31.2 27.3 31.2 27.2 31.2 27.1 31.3 27 31.2 27 31.2 26.9 31.2 26.8 31.2 26.8 31.2 26.7 31.2 26.6 31.2 26.5 31.2 26.4 31.2 26.4 31.1 26.3 31.1 26.2 31.1 26.2 31.1 26.1 31.1 26 31 25.9 31 25.9 31 25.8 30.9 25.7 30.9 25.7 30.8 25.6 30.8 25.5 30.7 25.5 30.6 25.4 30.6 25.3 30.5 25.2 30.4 25.2 30.3 25.1 30.3 25 30.2 25 30.1 25 30 24.9 30 24.8 29.9 24.8 29.8 24.7 29.7 24.7 29.6 24.6 29.5 24.6 29.5 24.5 29.4 24.5 29.3 24.5 29.2 24.4 29.1 24.4 29 24.4 28.9 24.3 28.8 24.3 28.7 24.3 28.7 24.2 28.6 24.2 28.5 24.2 28.4 24.2 28.3 24.1 28.3 24.1 28.3 24.1 28.3 24.1 28.3 24.1 28.3 24.1 28.3 24 28.3 24 28.3 24 28.3 24 28.4 24 28.4 24 28.4 24 28.4 24 28.4 24 28.4 24 28.4 24 28.5 24 28.5 24 28.5 24 28.5 24 28.5 24 28.5 24 28.6 24 28.6 24 28.6 24 28.6 24 28.6 24 28.7 24 28.7 24 28.7 24 28.7 23.9 28.7 23.9 28.8 23.9 28.8 23.9 28.9 23.9 28.9 24 29 24 29.1 24 29.2 24 29.3 24 29.4 24 29.5 24 29.6 24 29.7 24.1 29.8 24.1 29.9 24.2 30 24.2 30.1 24.2 30.1 24.2 30.2 24.3 30.3 24.3 30.4 24.4 30.5 24.5 30.5 24.5 30.6 24.6 30.7 24.6 30.8 24.7 30.8 24.7 30.9 24.8 31 24.9 31 24.9 31.1 25 31.2 25.1 31.3 25.1 31.3 25.2 31.4 25.3"/><polygon class="cls-1" points="38.2 23.6 38.2 23.7 38.3 23.7 38.3 23.8 38.4 23.9 38.5 24 38.5 24 38.6 24.1 38.6 24.2 38.7 24.3 38.7 24.4 38.8 24.5 38.8 24.5 38.8 24.6 38.9 24.7 38.9 24.8 38.9 24.9 39 25 39 25.1 39 25.2 39 25.3 39 25.4 39.1 25.5 39.1 25.6 39.1 25.7 39.1 25.8 39.1 25.9 39.1 26 39.1 26.1 39.1 26.2 39 26.3 39 26.3 39 26.4 39 26.4 39 26.5 38.9 26.5 38.9 26.5 38.9 26.5 38.9 26.6 38.8 26.6 38.8 26.7 38.8 26.7 38.8 26.7 38.7 26.8 38.7 26.8 38.7 26.8 38.7 26.8 38.6 26.9 38.6 26.9 38.6 27 38.6 27 38.5 27 38.5 27 38.5 27.1 38.5 27.1 38.4 27.1 38.4 27.2 38.4 27.2 38.3 27.2 38.3 27.2 38.3 27.2 38.3 27.3 38.2 27.3 38.2 27.3 38.2 27.3 38.1 27.3 38.1 27.3 38.1 27.3 38.1 27.3 38.1 27.3 38 27.3 38 27.3 38 27.3 38 27.3 38 27.3 38 27.3 37.9 27.3 37.9 27.3 37.9 27.3 37.9 27.3 37.8 27.3 37.8 27.3 37.8 27.3 37.8 27.3 37.8 27.3 37.7 27.3 37.7 27.3 37.7 27.3 37.7 27.3 37.7 27.3 37.7 27.2 37.7 27.2 37.6 27.2 37.6 27.2 37.6 27.2 37.6 27.2 37.6 27.2 37.6 27.2 37.6 27.1 37.6 27.1 37.6 27.1 37.7 27.1 37.7 27 37.8 27 37.8 26.9 37.8 26.9 37.9 26.8 37.9 26.8 37.9 26.8 38 26.7 38 26.7 38 26.6 38 26.5 38 26.5 38.1 26.5 38.1 26.4 38.1 26.3 38.1 26.3 38.2 26.2 38.2 26.2 38.2 26.1 38.2 26 38.2 26 38.2 25.9 38.2 25.9 38.2 25.8 38.2 25.8 38.3 25.7 38.3 25.7 38.3 25.6 38.3 25.5 38.3 25.5 38.3 25.5 38.3 25.4 38.3 25.4 38.3 25.3 38.2 25.2 38.2 25.1 38.2 25.1 38.2 25 38.2 24.9 38.2 24.9 38.1 24.8 38.1 24.8 38.1 24.7 38 24.6 38 24.6 38 24.5 38 24.4 37.9 24.4 37.9 24.3 37.8 24.3 37.8 24.2 37.8 24.2 37.7 24.1 37.7 24.1 37.6 24 37.6 24 37.5 23.9 37.5 23.9 37.4 23.8 37.4 23.8 37.3 23.8 37.3 23.7 37.2 23.7 37.2 23.7 37.2 23.6 37.1 23.6 37 23.6 37 23.6 36.9 23.6 36.8 23.5 36.8 23.5 36.7 23.5 36.6 23.5 36.6 23.5 36.5 23.5 36.4 23.5 36.4 23.4 36.3 23.4 36.2 23.4 36.1 23.4 36.1 23.4 36 23.4 35.9 23.4 35.9 23.4 35.8 23.3 35.7 23.3 35.7 23.3 35.6 23.3 35.5 23.3 35.5 23.3 35.4 23.3 35.3 23.2 35.3 23.2 35.2 23.2 35.1 23.2 35.1 23.1 35.1 23.1 35.1 23.1 35.1 23.1 35.1 23.1 35.1 23.1 35.1 23.1 35.1 23.1 35.2 23 35.2 23 35.2 23 35.2 23 35.2 23 35.2 23 35.2 23 35.2 23 35.3 23 35.3 23 35.3 23 35.3 23 35.3 23 35.4 22.9 35.4 22.9 35.4 22.9 35.4 22.9 35.4 22.9 35.5 22.9 35.5 22.9 35.5 22.9 35.5 22.9 35.5 22.9 35.5 22.9 35.5 22.8 35.6 22.8 35.6 22.8 35.6 22.8 35.7 22.8 35.8 22.8 35.9 22.8 36 22.8 36.1 22.8 36.2 22.8 36.3 22.8 36.4 22.8 36.5 22.8 36.5 22.8 36.6 22.8 36.7 22.8 36.8 22.8 36.9 22.9 37 22.9 37 22.9 37.2 22.9 37.2 23 37.3 23 37.4 23 37.5 23.1 37.5 23.1 37.6 23.2 37.7 23.2 37.8 23.3 37.8 23.3 37.9 23.4 38 23.4 38 23.5 38.1 23.5 38.2 23.6"/><polygon class="cls-1" points="42.3 23.4 42.3 23.5 42.3 23.5 42.3 23.6 42.3 23.7 42.3 23.7 42.4 23.8 42.4 23.9 42.4 23.9 42.4 24 42.5 24 42.5 24.1 42.5 24.2 42.5 24.2 42.5 24.3 42.5 24.4 42.6 24.4 42.6 24.5 42.6 24.6 42.6 24.6 42.6 24.7 42.6 24.8 42.6 24.8 42.6 24.9 42.6 25 42.6 25 42.5 25.1 42.5 25.1 42.5 25.2 42.5 25.3 42.5 25.3 42.4 25.4 42.4 25.4 42.4 25.4 42.4 25.5 42.3 25.6 42.3 25.6 42.2 25.7 42.2 25.8 42.2 25.8 42.1 25.9 42.1 26 42 26 41.9 26.1 41.9 26.1 41.8 26.2 41.8 26.2 41.7 26.3 41.6 26.3 41.6 26.3 41.5 26.4 41.4 26.4 41.4 26.5 41.3 26.5 41.2 26.5 41.1 26.6 41 26.6 41 26.6 40.9 26.7 40.8 26.7 40.7 26.7 40.7 26.7 40.6 26.7 40.5 26.7 40.4 26.7 40.3 26.7 40.3 26.7 40.3 26.7 40.3 26.7 40.3 26.7 40.3 26.7 40.3 26.7 40.3 26.7 40.2 26.7 40.2 26.7 40.2 26.7 40.2 26.7 40.2 26.7 40.2 26.7 40.2 26.7 40.1 26.7 40.1 26.7 40.1 26.7 40.1 26.7 40.1 26.7 40.1 26.7 40.1 26.7 40.1 26.7 40 26.6 40 26.7 40 26.6 40 26.6 40 26.6 40 26.6 40 26.6 40 26.6 40 26.6 40 26.6 39.9 26.6 39.9 26.6 39.9 26.6 39.9 26.6 39.9 26.6 39.9 26.5 39.9 26.5 39.9 26.5 39.9 26.5 39.9 26.5 39.9 26.5 39.9 26.5 39.9 26.5 39.9 26.5 39.9 26.5 39.9 26.5 39.9 26.5 39.9 26.5 39.9 26.5 39.9 26.5 39.9 26.5 39.9 26.5 39.9 26.5 39.9 26.5 39.9 26.4 39.9 26.4 39.9 26.4 39.9 26.4 39.9 26.4 39.9 26.4 39.9 26.4 39.9 26.4 39.9 26.4 39.9 26.4 39.9 26.4 40 26.3 40.1 26.3 40.2 26.2 40.3 26.2 40.3 26.1 40.4 26.1 40.5 26 40.6 26 40.7 25.9 40.7 25.8 40.8 25.8 40.9 25.7 41 25.7 41 25.6 41.1 25.5 41.1 25.4 41.2 25.3 41.2 25.3 41.3 25.2 41.3 25.1 41.4 25 41.4 25 41.5 24.9 41.5 24.8 41.5 24.7 41.5 24.6 41.6 24.5 41.6 24.4 41.6 24.3 41.6 24.2 41.6 24.1 41.6 24 41.6 24 41.5 24 41.5 23.9 41.5 23.8 41.5 23.8 41.4 23.7 41.4 23.6 41.3 23.6 41.3 23.5 41.3 23.5 41.2 23.4 41.2 23.4 41.1 23.3 41.1 23.3 41 23.3 41 23.2 40.9 23.2 40.9 23.1 40.8 23.1 40.7 23 40.7 23 40.6 23 40.6 22.9 40.5 22.9 40.5 22.8 40.4 22.8 40.3 22.7 40.3 22.7 40.2 22.7 40.2 22.6 40.2 22.5 40.1 22.5 40 22.4 40 22.4 40 22.4 40 22.4 40 22.4 40 22.4 40 22.4 40 22.3 39.9 22.3 39.9 22.3 39.9 22.3 39.9 22.3 39.8 22.3 39.8 22.2 39.8 22.2 39.8 22.2 39.8 22.2 39.7 22.2 39.7 22.2 39.7 22.2 39.7 22.2 39.7 22.2 39.7 22.1 39.6 22.1 39.6 22.1 39.6 22.1 39.6 22.1 39.6 22 39.6 22 39.6 22 39.5 22 39.5 22 39.5 21.9 39.6 21.9 39.6 21.9 39.7 21.9 39.8 21.9 39.9 21.9 40 21.8 40.1 21.9 40.2 21.9 40.3 21.9 40.4 21.9 40.5 21.9 40.6 22 40.7 22 40.8 22 40.8 22.1 40.9 22.1 41 22.2 41.1 22.2 41.2 22.3 41.3 22.3 41.4 22.4 41.5 22.4 41.5 22.5 41.6 22.6 41.7 22.7 41.8 22.7 41.8 22.8 41.9 22.9 42 23 42 23 42.1 23.1 42.1 23.2 42.2 23.3 42.3 23.4"/><polygon class="cls-1" points="28.2 28 28.2 28 28.3 28 28.3 28 28.4 28 28.4 28 28.4 28.1 28.5 28.1 28.5 28.1 28.5 28.1 28.6 28.2 28.6 28.2 28.6 28.2 28.7 28.2 28.7 28.2 28.8 28.3 28.8 28.3 28.8 28.3 28.9 28.3 28.9 28.3 28.9 28.4 29 28.4 29 28.4 29 28.4 29.1 28.4 29.1 28.4 29.1 28.4 29.2 28.4 29.2 28.4 29.3 28.4 29.3 28.4 29.3 28.4 29.4 28.4 29.4 28.4 29.4 28.4 29.4 28.4 29.4 28.5 29.4 28.5 29.4 28.5 29.4 28.5 29.4 28.5 29.5 28.5 29.5 28.5 29.5 28.5 29.5 28.6 29.5 28.6 29.5 28.6 29.5 28.6 29.5 28.6 29.5 28.6 29.5 28.6 29.5 28.6 29.5 28.6 29.5 28.7 29.5 28.7 29.5 28.7 29.5 28.7 29.5 28.7 29.5 28.7 29.5 28.7 29.5 28.7 29.5 28.8 29.5 28.8 29.5 28.8 29.5 28.8 29.5 28.8 29.5 28.8 29.5 28.8 29.4 28.8 29.4 28.9 29.3 28.9 29.2 28.9 29.2 28.9 29.1 28.9 29.1 28.9 29 28.9 29 28.8 28.9 28.8 28.9 28.8 28.8 28.8 28.8 28.8 28.7 28.8 28.7 28.8 28.6 28.8 28.6 28.7 28.5 28.7 28.5 28.7 28.4 28.7 28.4 28.7 28.3 28.6 28.3 28.6 28.2 28.5 28.2 28.5 28.1 28.5 28.1 28.5 28.1 28.4 28 28.4 28 28.3 28 28.3 28 28.3 27.9 28.3 27.9 28.2 27.9 28.2 27.9 28.2 27.9 28.2 27.9 28.1 27.8 28.1 27.8 28.1 27.8 28 27.8 28 27.8 28 27.7 28 27.7 27.9 27.7 27.9 27.7 27.9 27.7 27.8 27.6 27.8 27.6 27.8 27.6 27.8 27.6 27.7 27.6 27.7 27.5 27.7 27.5 27.7 27.5 27.6 27.5 27.6 27.5 27.5 27.5 27.5 27.5 27.5 27.4 27.4 27.4 27.4 27.4 27.4 27.4 27.3 27.4 27.3 27.4 27.3 27.5 27.4 27.5 27.4 27.5 27.4 27.5 27.4 27.6 27.4 27.6 27.4 27.6 27.5 27.7 27.5 27.7 27.5 27.7 27.5 27.8 27.5 27.8 27.5 27.8 27.5 27.8 27.6 27.9 27.6 27.9 27.6 27.9 27.6 27.9 27.6 28 27.7 28 27.7 28 27.7 28 27.7 28.1 27.7 28.1 27.8 28.1 27.8 28.1 27.8 28.1 27.8 28.2 27.9 28.2 27.9 28.2 27.9 28.2 28"/><polygon class="cls-1" points="40.7 24.4 40.7 24.5 40.7 24.5 40.6 24.5 40.7 24.5 40.6 24.5 40.6 24.5 40.6 24.5 40.6 24.5 40.6 24.6 40.6 24.6 40.6 24.6 40.6 24.6 40.6 24.6 40.6 24.6 40.6 24.7 40.6 24.7 40.6 24.7 40.6 24.7 40.6 24.7 40.6 24.7 40.6 24.7 40.5 24.8 40.5 24.8 40.5 24.8 40.5 24.8 40.5 24.8 40.5 24.8 40.5 24.8 40.5 24.8 40.5 24.8 40.4 24.8 40.4 24.8 40.4 24.8 40.4 24.8 40.4 24.8 40.4 24.8 40.4 24.8 40.4 24.8 40.4 24.8 40.3 24.9 40.3 24.9 40.3 24.9 40.3 24.8 40.3 24.8 40.3 24.8 40.3 24.9 40.3 24.9 40.2 24.8 40.2 24.8 40.2 24.8 40.2 24.8 40.2 24.8 40.2 24.8 40.2 24.8 40.2 24.8 40.2 24.8 40.2 24.8 40.2 24.8 40.2 24.8 40.1 24.8 40.1 24.8 40.1 24.8 40.1 24.8 40.1 24.8 40.1 24.8 40.1 24.8 40.1 24.8 40.1 24.8 40.1 24.7 40.1 24.7 40.1 24.7 40.1 24.7 40.1 24.7 40.1 24.7 40.1 24.7 40.1 24.7 40.1 24.7 40.1 24.7 40.1 24.7 40.1 24.7 40.1 24.7 40.1 24.6 40.1 24.6 40.1 24.6 40.1 24.6 40.2 24.6 40.2 24.6 40.2 24.6 40.2 24.6 40.2 24.6 40.2 24.6 40.2 24.6 40.2 24.6 40.2 24.6 40.3 24.6 40.3 24.6 40.3 24.5 40.3 24.5 40.3 24.5 40.3 24.5 40.3 24.5 40.3 24.5 40.3 24.5 40.3 24.5 40.3 24.4 40.3 24.4 40.3 24.4 40.3 24.4 40.3 24.4 40.3 24.3 40.3 24.3 40.4 24.3 40.3 24.3 40.4 24.3 40.4 24.2 40.4 24.2 40.4 24.2 40.4 24.2 40.4 24.2 40.4 24.1 40.4 24.1 40.4 24.1 40.4 24.1 40.4 24 40.4 24 40.4 24 40.4 24 40.4 24 40.4 23.9 40.4 23.9 40.4 23.9 40.4 23.9 40.4 23.9 40.4 23.9 40.5 24 40.5 24 40.5 24 40.5 24 40.5 24 40.5 24 40.5 24 40.5 24 40.5 24.1 40.5 24.1 40.6 24.1 40.6 24.1 40.6 24.1 40.6 24.2 40.6 24.2 40.6 24.2 40.6 24.2 40.6 24.2 40.6 24.2 40.7 24.2 40.6 24.3 40.6 24.3 40.7 24.3 40.7 24.3 40.7 24.3 40.7 24.4 40.7 24.4 40.7 24.4 40.7 24.4 40.7 24.4"/><polygon class="cls-1" points="36.3 26.8 36.3 26.9 36.3 26.9 36.3 26.9 36.3 26.9 36.4 26.9 36.4 26.9 36.4 26.9 36.4 26.9 36.4 26.9 36.4 26.9 36.4 26.9 36.5 27 36.5 27 36.5 27 36.5 27 36.5 27 36.5 27 36.5 27 36.5 27 36.5 27 36.5 27 36.5 27 36.5 27.1 36.5 27.1 36.5 27.1 36.6 27.1 36.6 27.1 36.6 27.1 36.6 27.1 36.6 27.1 36.6 27.2 36.6 27.2 36.6 27.2 36.5 27.2 36.5 27.2 36.5 27.2 36.5 27.3 36.4 27.3 36.4 27.3 36.4 27.3 36.3 27.3 36.3 27.3 36.3 27.3 36.2 27.4 36.2 27.4 36.2 27.4 36.1 27.4 36.1 27.4 36.1 27.4 36 27.4 36 27.4 35.9 27.4 35.9 27.4 35.8 27.3 35.8 27.3 35.8 27.3 35.7 27.3 35.7 27.3 35.7 27.3 35.6 27.3 35.6 27.3 35.5 27.3 35.5 27.3 35.5 27.3 35.4 27.3 35.4 27.3 35.4 27.3 35.4 27.2 35.3 27.2 35.3 27.2 35.3 27.2 35.3 27.2 35.2 27.2 35.2 27.1 35.2 27.1 35.2 27.1 35.1 27.1 35.1 27 35.1 27 35 27 35 27 35 26.9 35 26.9 35 26.9 34.9 26.9 34.9 26.8 34.9 26.8 34.8 26.8 34.8 26.8 34.8 26.7 34.8 26.7 34.8 26.7 34.8 26.6 34.8 26.6 34.7 26.6 34.7 26.5 34.7 26.5 34.7 26.4 34.7 26.4 34.8 26.5 34.8 26.5 34.8 26.5 34.9 26.6 34.9 26.6 35 26.6 35 26.7 35.1 26.7 35.1 26.7 35.2 26.8 35.2 26.8 35.3 26.8 35.3 26.8 35.4 26.8 35.4 26.9 35.5 26.9 35.5 26.9 35.6 26.9 35.6 26.9 35.7 26.9 35.7 26.9 35.8 26.9 35.8 27 35.9 27 35.9 26.9 36 26.9 36 26.9 36.1 26.9 36.2 26.9 36.2 26.9 36.3 26.9 36.3 26.8"/><polygon class="cls-1" points="12.9 37.2 13 37.2 13 37.2 13 37.2 13.1 37.2 13.1 37.2 13.1 37.2 13.2 37.1 13.2 37.1 13.2 37.1 13.3 37.1 13.3 37.1 13.4 37.1 13.4 37.1 13.4 37.1 13.4 37.1 13.5 37 13.5 37 13.6 37 13.6 37 13.6 37 13.6 37 13.7 37 13.7 37 13.7 36.9 13.8 36.9 13.8 36.9 13.8 36.9 13.8 36.9 13.9 36.9 13.9 36.8 13.9 36.8 13.9 36.8 13.9 36.8 14 36.9 13.9 36.9 13.9 37 13.9 37 13.9 37.1 13.9 37.2 13.9 37.2 13.8 37.2 13.8 37.3 13.8 37.3 13.7 37.4 13.7 37.4 13.6 37.4 13.6 37.5 13.6 37.5 13.5 37.5 13.4 37.6 13.4 37.6 13.4 37.6 13.3 37.7 13.2 37.7 13.2 37.7 13.1 37.7 13.1 37.8 13 37.8 13 37.8 13 37.9 12.9 37.9 12.9 37.9 12.8 37.9 12.8 38 12.7 38 12.7 38 12.6 38.1 12.4 38.2 12.3 38.2 12.1 38.3 12 38.3 11.8 38.4 11.7 38.4 11.5 38.5 11.4 38.5 11.2 38.5 11.1 38.6 10.9 38.6 10.8 38.6 10.6 38.6 10.5 38.6 10.3 38.6 10.2 38.6 10 38.6 9.9 38.6 9.7 38.6 9.6 38.6 9.4 38.5 9.3 38.5 9.1 38.5 9 38.4 8.9 38.4 8.7 38.3 8.6 38.3 8.4 38.2 8.3 38.2 8.1 38.1 8 38.1 8 38.1 8 38.1 8 38 7.9 38 7.9 38 7.9 37.9 7.9 37.9 7.8 37.9 7.8 37.9 7.8 37.9 7.7 37.8 7.7 37.8 7.7 37.8 7.6 37.8 7.6 37.7 7.6 37.7 7.6 37.7 7.5 37.7 7.5 37.6 7.5 37.6 7.5 37.6 7.4 37.6 7.4 37.5 7.4 37.5 7.4 37.4 7.3 37.4 7.3 37.4 7.3 37.4 7.3 37.3 7.3 37.3 7.2 37.3 7.2 37.2 7.2 37.2 7.2 37.2 7.2 37.2 7.2 37.2 7.2 37.2 7.2 37.2 7.2 37.2 7.2 37.2 7.2 37.2 7.2 37.2 7.2 37.2 7.2 37.2 7.2 37.1 7.2 37.1 7.2 37.1 7.2 37.1 7.2 37.1 7.2 37.1 7.2 37.1 7.2 37.1 7.2 37.1 7.2 37.1 7.3 37.1 7.3 37.1 7.3 37.1 7.3 37.1 7.3 37.1 7.3 37.1 7.3 37.1 7.3 37.1 7.3 37.1 7.3 37.1 7.3 37.1 7.3 37.1 7.3 37.1 7.5 37.1 7.6 37.1 7.8 37.1 8 37.2 8.1 37.2 8.3 37.2 8.5 37.2 8.7 37.3 8.9 37.3 9 37.3 9.2 37.3 9.4 37.3 9.6 37.3 9.7 37.4 9.9 37.4 10.1 37.4 10.3 37.4 10.4 37.4 10.6 37.4 10.8 37.4 11 37.4 11.1 37.4 11.3 37.4 11.5 37.4 11.7 37.4 11.9 37.4 12 37.3 12.2 37.3 12.4 37.3 12.6 37.3 12.8 37.3 12.9 37.2"/><polygon class="cls-1" points="17.4 37.3 17.5 37.3 17.6 37.3 17.7 37.3 17.8 37.3 17.9 37.3 18 37.2 18.1 37.2 18.2 37.2 18.3 37.2 18.4 37.2 18.5 37.2 18.6 37.2 18.7 37.2 18.8 37.2 18.9 37.2 19 37.2 19.1 37.2 19.2 37.1 19.4 37.1 19.5 37.1 19.6 37.1 19.7 37.1 19.8 37.1 19.9 37.1 20 37.1 20.1 37.1 20.2 37.1 20.3 37.1 20.4 37.1 20.5 37.1 20.6 37 20.7 37 20.7 37 20.7 37 20.7 37.1 20.8 37.1 20.8 37.1 20.8 37.1 20.8 37.1 20.8 37.1 20.8 37.1 20.8 37.1 20.8 37.1 20.8 37.1 20.8 37.2 20.8 37.2 20.9 37.2 20.9 37.2 20.9 37.2 20.9 37.2 20.9 37.2 20.9 37.2 20.8 37.3 20.8 37.3 20.8 37.3 20.8 37.3 20.8 37.3 20.8 37.3 20.8 37.3 20.8 37.4 20.8 37.4 20.8 37.4 20.8 37.4 20.8 37.4 20.8 37.4 20.8 37.4 20.6 37.5 20.5 37.6 20.4 37.6 20.3 37.7 20.2 37.7 20.1 37.8 20 37.9 19.9 37.9 19.7 38 19.6 38 19.5 38.1 19.4 38.1 19.2 38.1 19.1 38.2 19 38.2 18.9 38.2 18.7 38.3 18.6 38.3 18.5 38.3 18.4 38.3 18.2 38.3 18.1 38.3 18 38.3 17.8 38.3 17.7 38.3 17.6 38.3 17.5 38.3 17.4 38.2 17.3 38.2 17.1 38.2 17 38.2 16.9 38.1 16.9 38.1 16.9 38.1 16.9 38.1 16.9 38.1 16.8 38.1 16.8 38.1 16.8 38.1 16.8 38.1 16.8 38.1 16.7 38.1 16.7 38.1 16.7 38 16.6 38 16.6 38 16.6 38 16.6 38 16.6 38 16.6 38 16.5 38 16.5 37.9 16.5 37.9 16.5 37.9 16.5 37.9 16.5 37.9 16.4 37.9 16.4 37.9 16.4 37.9 16.4 37.9 16.4 37.9 16.3 37.8 16.3 37.8 16.3 37.8 16.3 37.8 16.3 37.8 16.2 37.8 16.2 37.8 16.2 37.8 16.2 37.8 16.1 37.8 16.1 37.8 16.1 37.7 16.1 37.7 16.1 37.7 16 37.7 16 37.7 16 37.7 16 37.6 16 37.6 16 37.6 15.9 37.6 15.9 37.6 15.9 37.5 15.9 37.5 15.9 37.5 15.9 37.5 15.9 37.4 15.9 37.4 15.8 37.4 15.8 37.4 15.8 37.4 15.8 37.3 15.8 37.3 15.8 37.3 15.8 37.3 15.8 37.2 15.7 37.2 15.7 37.2 15.8 37.2 15.8 37.2 15.9 37.2 15.9 37.2 16 37.2 16 37.2 16.1 37.2 16.1 37.2 16.2 37.2 16.2 37.2 16.3 37.2 16.4 37.2 16.4 37.3 16.5 37.3 16.5 37.3 16.5 37.3 16.6 37.3 16.6 37.3 16.7 37.3 16.8 37.3 16.8 37.3 16.9 37.3 16.9 37.3 17 37.3 17 37.3 17.1 37.3 17.1 37.3 17.2 37.3 17.2 37.3 17.2 37.3 17.3 37.3 17.4 37.3"/><polygon class="cls-1" points="14.5 40.4 14.5 40.4 14.6 40.5 14.6 40.5 14.6 40.5 14.6 40.5 14.6 40.6 14.6 40.6 14.6 40.6 14.6 40.6 14.6 40.6 14.6 40.6 14.6 40.7 14.5 40.7 14.5 40.7 14.5 40.7 14.5 40.7 14.5 40.7 14.5 40.8 14.4 40.8 14.4 40.8 14.4 40.8 14.4 40.8 14.4 40.8 14.3 40.8 14.3 40.8 14.3 40.8 14.3 40.9 14.2 40.9 14.2 40.9 14.2 40.9 14.2 40.9 14.2 40.9 14.2 40.9 14.1 41 13.9 41.1 13.8 41.2 13.6 41.3 13.4 41.4 13.3 41.4 13.1 41.5 13 41.6 12.8 41.6 12.7 41.6 12.5 41.7 12.3 41.7 12.2 41.7 12 41.8 11.9 41.8 11.7 41.8 11.5 41.8 11.4 41.8 11.2 41.8 11 41.8 10.9 41.8 10.7 41.8 10.6 41.7 10.4 41.7 10.2 41.7 10.1 41.7 9.9 41.6 9.8 41.6 9.6 41.5 9.5 41.5 9.4 41.4 9.2 41.3 9.2 41.3 9.1 41.3 9.1 41.3 9 41.3 9 41.3 8.9 41.2 8.8 41.2 8.8 41.2 8.7 41.1 8.7 41.1 8.6 41.1 8.6 41.1 8.5 41 8.5 41 8.4 40.9 8.4 40.9 8.4 40.8 8.3 40.8 8.3 40.8 8.2 40.7 8.2 40.7 8.1 40.7 8.1 40.6 8.1 40.6 8 40.5 8 40.5 7.9 40.4 7.9 40.4 7.9 40.3 7.8 40.3 7.8 40.3 7.7 40.2 7.7 40.2 7.7 40.2 7.7 40.2 7.7 40.1 7.6 40.1 7.6 40.1 7.6 40.1 7.6 40.1 7.6 40.1 7.6 40 7.6 40 7.6 40 7.6 40 7.7 40 7.7 40 7.7 40.1 7.7 40.1 7.7 40.1 7.7 40.1 7.8 40.1 7.8 40.1 7.8 40.1 7.8 40.1 7.8 40.1 7.8 40.1 7.9 40.1 7.9 40.1 7.9 40.2 7.9 40.2 7.9 40.2 8 40.2 8 40.2 8 40.2 8 40.2 8 40.2 8.2 40.2 8.4 40.2 8.6 40.3 8.8 40.3 9 40.3 9.2 40.4 9.4 40.4 9.6 40.4 9.8 40.4 10 40.4 10.2 40.4 10.4 40.4 10.6 40.5 10.8 40.5 11 40.5 11.2 40.5 11.4 40.5 11.6 40.5 11.9 40.5 12.1 40.5 12.3 40.5 12.5 40.5 12.7 40.5 12.9 40.5 13.1 40.5 13.3 40.5 13.5 40.4 13.7 40.4 13.9 40.4 14.1 40.4 14.3 40.4 14.5 40.4"/><polygon class="cls-1" points="27.8 35.4 27.8 35.4 27.8 35.5 27.8 35.5 27.8 35.5 27.8 35.5 27.8 35.5 27.8 35.5 27.8 35.5 27.8 35.5 27.8 35.5 27.8 35.5 27.8 35.5 27.8 35.5 27.8 35.5 27.8 35.5 27.8 35.5 27.8 35.5 27.8 35.5 27.8 35.6 27.8 35.6 27.8 35.6 27.8 35.6 27.8 35.6 27.8 35.6 27.8 35.6 27.8 35.6 27.8 35.6 27.8 35.6 27.8 35.6 27.8 35.6 27.8 35.7 27.8 35.7 27.8 35.7 27.8 35.7 27.8 35.7 27.7 35.8 27.7 35.8 27.7 35.8 27.7 35.8 27.6 35.8 27.6 35.9 27.6 35.9 27.5 35.9 27.5 35.9 27.5 36 27.4 36 27.4 36 27.4 36 27.3 36 27.3 36.1 27.3 36.1 27.2 36.1 27.2 36.2 27.2 36.2 27.2 36.2 27.1 36.2 27.1 36.2 27.1 36.2 27 36.3 27 36.3 27 36.3 26.9 36.3 26.9 36.3 26.9 36.3 26.8 36.4 26.8 36.4 26.8 36.4 26.7 36.4 26.6 36.4 26.6 36.5 26.5 36.5 26.5 36.5 26.4 36.6 26.3 36.6 26.3 36.6 26.2 36.6 26.2 36.7 26.1 36.7 26 36.7 26 36.7 25.9 36.8 25.9 36.8 25.8 36.8 25.7 36.8 25.7 36.8 25.6 36.9 25.5 36.9 25.5 36.9 25.4 36.9 25.4 37 25.3 37 25.2 37 25.2 37 25.1 37 25 37 25 37.1 24.9 37.1 24.9 37.1 24.9 37.1 24.8 37 24.7 37 24.7 37 24.6 36.9 24.5 36.9 24.5 36.9 24.4 36.9 24.4 36.8 24.3 36.8 24.2 36.8 24.2 36.8 24.1 36.8 24 36.8 24 36.7 23.9 36.7 23.9 36.7 23.8 36.7 23.7 36.7 23.7 36.6 23.6 36.6 23.6 36.6 23.5 36.5 23.5 36.5 23.5 36.5 23.4 36.4 23.4 36.4 23.4 36.3 23.3 36.2 23.3 36.2 23.3 36.1 23.3 36 23.2 36 23.2 36 23.4 36 23.5 36 23.7 36 23.8 36 23.9 36.1 24.1 36.1 24.2 36 24.4 36 24.5 36 24.6 36 24.8 36 24.9 36 25.1 36 25.2 36 25.4 35.9 25.5 35.9 25.6 35.9 25.8 35.8 25.9 35.8 26.1 35.8 26.2 35.7 26.4 35.7 26.5 35.7 26.6 35.6 26.8 35.6 26.9 35.6 27.1 35.5 27.2 35.5 27.4 35.5 27.5 35.5 27.6 35.5 27.8 35.4"/><polygon class="cls-1" points="17.1 40.3 17.2 40.3 17.3 40.2 17.5 40.2 17.6 40.2 17.7 40.2 17.9 40.2 18 40.2 18.1 40.2 18.3 40.1 18.4 40.1 18.5 40.1 18.7 40.1 18.8 40.1 19 40 19.1 40 19.2 40 19.4 40 19.5 40 19.7 39.9 19.8 39.9 19.9 39.9 20.1 39.9 20.2 39.8 20.3 39.8 20.5 39.8 20.6 39.8 20.7 39.8 20.9 39.8 21 39.7 21.1 39.7 21.3 39.7 21.4 39.7 21.4 39.7 21.4 39.7 21.4 39.7 21.4 39.7 21.4 39.7 21.4 39.7 21.4 39.7 21.4 39.7 21.4 39.7 21.4 39.7 21.4 39.7 21.4 39.7 21.4 39.7 21.5 39.8 21.5 39.8 21.5 39.8 21.5 39.8 21.5 39.8 21.5 39.8 21.5 39.8 21.5 39.8 21.5 39.8 21.5 39.8 21.5 39.8 21.5 39.8 21.5 39.8 21.5 39.8 21.5 39.8 21.5 39.8 21.5 39.8 21.5 39.8 21.5 39.8 21.5 39.8 21.5 39.8 21.4 39.9 21.3 40 21.3 40.1 21.2 40.1 21.1 40.2 21 40.2 20.9 40.3 20.8 40.4 20.8 40.4 20.6 40.5 20.6 40.5 20.5 40.6 20.4 40.6 20.3 40.7 20.2 40.7 20.1 40.8 20 40.8 19.9 40.8 19.8 40.9 19.7 40.9 19.5 41 19.5 41 19.3 41 19.2 41.1 19.1 41.1 19 41.1 18.9 41.1 18.8 41.1 18.7 41.2 18.6 41.2 18.5 41.2 18.4 41.2 18.4 41.2 18.3 41.2 18.3 41.2 18.2 41.2 18.2 41.2 18.1 41.2 18.1 41.2 18 41.2 18 41.2 17.9 41.1 17.9 41.1 17.8 41.1 17.8 41.1 17.7 41.1 17.7 41.1 17.6 41.1 17.6 41.1 17.5 41.1 17.5 41.1 17.4 41.1 17.4 41 17.4 41 17.3 41 17.3 41 17.2 41 17.2 40.9 17.1 40.9 17.1 40.9 17 40.9 17 40.9 16.9 40.9 16.9 40.8 16.9 40.8 16.9 40.8 16.8 40.8 16.8 40.8 16.8 40.8 16.8 40.8 16.8 40.7 16.8 40.7 16.7 40.7 16.7 40.7 16.7 40.7 16.7 40.6 16.7 40.6 16.6 40.6 16.6 40.6 16.6 40.6 16.6 40.6 16.6 40.5 16.6 40.5 16.6 40.5 16.6 40.5 16.5 40.4 16.5 40.4 16.5 40.4 16.5 40.4 16.5 40.3 16.5 40.3 16.5 40.3 16.5 40.3 16.5 40.3 16.5 40.2 16.5 40.2 16.5 40.2 16.5 40.2 16.5 40.2 16.5 40.2 16.5 40.2 16.5 40.2 16.6 40.2 16.6 40.2 16.6 40.2 16.6 40.2 16.6 40.2 16.6 40.2 16.7 40.2 16.7 40.2 16.7 40.2 16.7 40.2 16.7 40.2 16.7 40.2 16.8 40.2 16.8 40.2 16.8 40.2 16.8 40.2 16.8 40.2 16.9 40.2 16.9 40.2 16.9 40.2 16.9 40.3 16.9 40.2 17 40.3 17 40.3 17 40.3 17 40.3 17 40.3 17 40.3 17.1 40.3"/><path class="cls-1" d="M44.7,22c-3.2-5.5,8.7,0,4.9.2-1.1.1-2.3,3-4.3.1C45.3,22.3,44.8,22.3,44.7,22Z"/><path class="cls-1" d="M27.6,21.4c-2.8-1.7,1.9-3.9,1.1-1.6-.2.6.4.5.1,2.1-.1,1-1,.8-1,0C27.8,21.7,27.7,21.6,27.6,21.4Z"/><path class="cls-1" d="M35.4,26c-1.4-.3-1.8-3.5,2-2.1.4.1-.4.8.6,1.5S35.9,26.2,35.4,26Z"/><path class="cls-1" d="M39.1,20c3.8-.9,3.7,4.4.1.8A2.2,2.2,0,0,1,39.1,20Z"/><path class="cls-2" d="M24.5,46.4a5.94,5.94,0,0,0,.4-.8c.4-1,.6-2.3,1.3-3a1.27,1.27,0,0,1,.7-.4h0a2.26,2.26,0,0,1-2-2.2,2.2,2.2,0,0,1,.8-1.8,4.37,4.37,0,0,1,2.5-.7,12.48,12.48,0,0,1,2.1.2v8.8H29.2V42.7h-.8a1.7,1.7,0,0,0-1.3.4,7.91,7.91,0,0,0-1.2,2.8l-.3.6H24.5Zm4.8-8c-.2,0-.6-.1-1.1-.1-1.1,0-2.1.4-2.1,1.7,0,1.1.9,1.7,2.2,1.7h1Z"/><path class="cls-2" d="M32.4,42.1a13.42,13.42,0,0,0-.1-2.1h1l.1,1.1h0a2.45,2.45,0,0,1,2.3-1.2c1.5,0,2.7,1.3,2.7,3.2,0,2.3-1.4,3.4-2.9,3.4a2.46,2.46,0,0,1-2-1h0V49H32.4Zm1.1,1.7a.9.9,0,0,0,.1.5,1.81,1.81,0,0,0,1.7,1.4c1.2,0,1.9-1,1.9-2.5,0-1.3-.7-2.4-1.9-2.4a2,2,0,0,0-1.8,1.4,4.33,4.33,0,0,0-.1.5v1.1Z"/><path class="cls-2" d="M45.7,43.1a3.16,3.16,0,1,1-6.3.1,3.16,3.16,0,1,1,6.3-.1Zm-5.1.1c0,1.4.8,2.5,1.9,2.5s1.9-1,1.9-2.5c0-1.1-.5-2.5-1.9-2.5S40.6,42,40.6,43.2Z"/><path class="cls-2" d="M47.1,40.1a11.52,11.52,0,0,1,2-.1c1.1,0,2.8.2,2.8,1.6A1.42,1.42,0,0,1,50.6,43h0a1.64,1.64,0,0,1,1.6,1.6c0,1.7-2.1,1.9-3.4,1.9-.7,0-1.4-.1-1.8-.1V40.1Zm1.1,5.5c.3,0,.6.1.9.1.8,0,1.9-.2,1.9-1.1s-.9-1.1-2-1.1h-.8Zm0-2.9h.9c.9,0,1.7-.3,1.7-1s-.6-.9-1.7-.9a2.48,2.48,0,0,0-.9.1Z"/><path class="cls-2" d="M54.8,40v2.7a22.6,22.6,0,0,1-.1,2.6h0l1-2,2-3.3h1.4v6.4H58V43.7a22.6,22.6,0,0,1,.1-2.6h0c-.4.8-.7,1.3-1.1,2-.6,1-1.3,2.2-2,3.3H53.7V40Z"/><path class="cls-2" d="M65.3,40v.9h-2v5.5H62.2V40.9h-2V40Z"/><path class="cls-2" d="M74,37.5v1H70.4v7.9H69.3V37.5Z"/><path class="cls-2" d="M74,42.1a13.42,13.42,0,0,0-.1-2.1h1l.1,1.1h0a2.45,2.45,0,0,1,2.3-1.2c1.5,0,2.7,1.3,2.7,3.2,0,2.3-1.4,3.4-2.9,3.4a2.46,2.46,0,0,1-2-1h0V49H74Zm1.2,1.7a.9.9,0,0,0,.1.5A1.81,1.81,0,0,0,77,45.7c1.2,0,1.9-1,1.9-2.5,0-1.3-.7-2.4-1.9-2.4a2,2,0,0,0-1.8,1.4,4.33,4.33,0,0,0-.1.5v1.1Z"/><path class="cls-2" d="M81.8,40l1.4,3.8c.1.4.3.9.4,1.3h0c.1-.4.3-.9.4-1.3l1.3-3.7h1.2l-1.7,4.5c-.8,2.2-1.4,3.3-2.2,4a4.21,4.21,0,0,1-1.4.8l-.3-1a2.66,2.66,0,0,0,1-.6,4.88,4.88,0,0,0,1-1.3.5.5,0,0,0,0-.6L80.6,40Z"/><path class="cls-2" d="M92.9,40v6.4H91.7V40.9h-3v5.5H87.6V40Z"/><path class="cls-2" d="M100,40v6.4H98.8V40.9h-3v5.5H94.7V40Z"/></svg>