<?xml version="1.0" encoding="utf-8"?>
<!-- Generator: Adobe Illustrator 19.2.1, SVG Export Plug-In . SVG Version: 6.00 Build 0)  -->
<svg version="1.1" id="Layer_1" xmlns="http://www.w3.org/2000/svg" xmlns:xlink="http://www.w3.org/1999/xlink" x="0px" y="0px"
	 viewBox="0 0 150 113.4" style="enable-background:new 0 0 150 113.4;" xml:space="preserve">
<style type="text/css">
	.st0{fill:#B5B5B5;}
	.st1{fill:#8C8C8C;}
	.st2{fill:#666666;}
</style>
<path class="st0" d="M-0.2,6.5v57.3c0,3.6,1,7.1,2.8,10.2L26,113.4V17.2L10.4,2C6.5-1.9-0.2,0.9-0.2,6.5z"/>
<path class="st1" d="M28,66c0,0,28.5-18,38-24.1c6.6-4.2,11.4-4.1,17.8,0c6.1,3.9,37.1,23.4,37.1,23.4v44.9L74.7,76.9L28,110.1V66z"
	/>
<path class="st0" d="M149.8,6.8v57.3c0,3.6-1,7.1-2.8,10.2l-23.4,39.5V17.6l15.6-15.2C143.2-1.6,149.8,1.2,149.8,6.8z"/>
<path class="st2" d="M26,17.2v96.2c0,0,31-22.6,42.6-30.8c4.3-3.1,7-3.2,10.3-0.8c5.2,3.9,44.9,32,44.9,32V17.6l-4.3,4.3v83.2
	c0,0-28.2-19.9-37.9-26.5c-5.1-3.5-8.1-4-13.9-0.1c-5.8,4-37.9,25.9-37.9,25.9v-84L26,17.2z"/>
</svg>
