<svg xmlns="http://www.w3.org/2000/svg" id="Layer_1" viewBox="0 0 150 155">
  <style>
    .st0{fill:#FFFFFF;} .st1{fill:#84CFE6;} .st2{fill:url(#SVGID_1_);} .st3{fill:#1F8BA5;}
  </style>
  <path d="M33.7 126l-4.4 18.5h-4.1l-2.1-10.9H23l-2.1 10.9h-4.1L12.5 126h2.8l3.5 16.1h.2l1.5-8.1 1.2-4.4-.8-3.6h4.5l-.9 3.6 1.2 4.4 1.5 8.1h.2l3.5-16.1h2.8zm18.4 1.7h-5.3v6h4.7v1.6h-4.7v7.4H52v1.7h-8.1V126h8.2v1.7zm10.7-1.7h6.8c1.1 0 2.1.2 2.8.7.8.5 1.2 1.1 1.2 1.8v3.5c0 .5-.2 1-.6 1.5s-1 .8-1.8 1c.8.2 1.4.5 1.8.9s.6.9.6 1.4v5.2c0 .7-.4 1.3-1.2 1.8-.8.5-1.7.7-2.8.7h-6.8V126zm5.7 7.7c1.5 0 2.2-.6 2.2-1.8v-3.4c0-.2-.1-.4-.3-.5-.2-.1-.5-.2-.9-.2h-3.9v6h2.9v-.1zm-2.9 1.6v7.4h3.9c.3 0 .6-.1.9-.2.2-.1.3-.3.3-.5v-5.4c0-.5-.2-.9-.6-1.1-.4-.2-1-.3-1.9-.3h-2.6v.1zm19-9.3h6.8c1.1 0 2.1.2 2.8.7s1.2 1.1 1.2 1.8v3.5c0 .5-.2 1-.6 1.5s-1 .8-1.8 1c.8.2 1.4.5 1.8.9s.6.9.6 1.4v5.2c0 .7-.4 1.3-1.2 1.8s-1.7.7-2.8.7h-6.8V126zm5.8 7.7c1.5 0 2.2-.6 2.2-1.8v-3.4c0-.2-.1-.4-.3-.5-.2-.1-.5-.2-.9-.2h-3.9v6h2.9v-.1zm-2.9 1.6v7.4h3.9c.3 0 .6-.1.9-.2.2-.1.3-.3.3-.5v-5.4c0-.5-.2-.9-.6-1.1-.4-.2-1-.3-1.9-.3h-2.6v.1zm27.2-7.6h-5.3v6h4.7v1.6h-4.7v7.4h5.3v1.7h-8.1V126h8.2l-.1 1.7zm10.7-1.7h6.4c1.1 0 2 .2 2.8.7s1.2 1.1 1.2 1.7v3.6c0 1.1-.8 1.9-2.5 2.4 1.7.2 2.5.9 2.5 2v8H133v-7.8c0-.9-.7-1.3-2.1-1.3h-2.6v9.2h-2.8l-.1-18.5zm2.8 7.7h2.2c1.7 0 2.6-.6 2.6-1.7v-3.5c0-.2-.1-.4-.4-.5-.2-.1-.5-.2-.8-.2h-3.5v5.9h-.1z" class="st0"/>
  <path d="M-.2 6.5v57.3c0 3.6 1 7.1 2.8 10.2L26 113.4V17.2L10.4 2C6.5-1.9-.2.9-.2 6.5z" class="st1"/>
  <path d="M14.2 152.6h121v2.6h-121v-2.6z" class="st0"/>
  <linearGradient id="SVGID_1_" x1="28" x2="121" y1="81.51" y2="81.51" gradientUnits="userSpaceOnUse" gradientTransform="matrix(1 0 0 -1 0 156)">
    <stop offset="0" stop-color="#84D0E7"/>
    <stop offset="1" stop-color="#1B99B4"/>
  </linearGradient>
  <path d="M28 66s28.5-18 38-24.1c6.6-4.2 11.4-4.1 17.8 0 6.1 3.9 37.1 23.4 37.1 23.4v44.9L74.7 76.9 28 110.1V66z" class="st2"/>
  <path d="M149.8 6.8v57.3c0 3.6-1 7.1-2.8 10.2l-23.4 39.5V17.6l15.6-15.2c4-4 10.6-1.2 10.6 4.4z" class="st1"/>
  <path d="M26 17.2v96.2s31-22.6 42.6-30.8c4.3-3.1 7-3.2 10.3-.8 5.2 3.9 44.9 32 44.9 32V17.6l-4.3 4.3v83.2S91.3 85.2 81.6 78.6c-5.1-3.5-8.1-4-13.9-.1-5.8 4-37.9 25.9-37.9 25.9v-84L26 17.2z" class="st3"/>
</svg>
